<svg viewBox="0 0 600 600" xmlns="http://www.w3.org/2000/svg">
  <path fill="#2689C9" fill-rule="evenodd" d="M 303.276 271.786 C 357.287 270.616 400.299 222.196 399.572 163.393 C 399.572 103.492 356.338 55 303.276 55 C 250.215 55 205.669 103.492 205.669 163.393 C 204.935 223.023 249.146 271.793 303.931 271.786 L 303.276 271.786 Z M 396.952 242.548 C 407.433 248.253 419.88 251.105 432.327 251.105 C 478.183 251.105 516.177 208.319 516.177 156.975 C 517.272 105.495 479.617 62.908 432.327 62.131 C 416.546 62.303 401.125 67.237 387.782 76.393 C 429.87 120.856 433.848 192.922 396.952 242.548 Z M 170.949 251.105 C 184.05 251.105 195.843 248.253 206.979 242.548 C 169.757 193.037 173.753 120.699 216.15 76.393 C 203.049 67.123 187.326 61.418 170.294 61.418 C 122.991 62.58 85.631 105.495 87.098 156.975 C 86.366 208.454 124.308 250.713 171.604 251.105 L 170.949 251.105 Z M 140.161 286.048 C 108.717 286.048 92.995 257.523 92.995 257.523 C 66.791 257.523 55 281.056 55 309.581 L 55 420.113 C 55 444.359 94.304 465.752 142.781 478.588 L 142.781 330.261 C 142.781 303.876 161.123 282.482 184.706 278.917 C 171.604 281.056 148.676 286.048 140.161 286.048 Z M 386.471 296.032 C 386.471 296.032 360.922 323.843 329.479 323.843 C 319.653 323.843 311.792 306.015 301.31 306.015 C 284.933 306.015 281.002 323.843 266.591 323.843 C 244.318 323.843 212.874 296.032 212.874 296.032 C 186.671 296.032 165.709 318.851 165.709 347.376 L 165.709 499.269 C 165.709 559.169 434.291 561.309 434.291 499.269 L 434.291 347.376 C 434.291 318.851 412.674 296.032 386.471 296.032 Z M 372.715 471.456 C 342.581 477.875 258.076 478.588 227.285 471.456 C 216.15 469.318 209.6 466.465 209.6 457.195 C 209.6 449.351 214.84 443.645 227.285 447.211 C 275.579 453.672 324.416 453.672 372.715 447.211 C 391.057 445.071 392.367 449.351 393.022 457.908 C 393.677 467.178 385.16 468.604 372.715 471.456 Z M 372.715 426.531 C 342.581 433.662 258.076 433.662 227.285 426.531 C 216.15 424.392 209.6 421.539 209.6 412.982 C 209.6 404.424 214.84 398.72 227.285 402.285 C 250.87 409.416 328.17 409.416 372.715 402.285 C 391.057 400.146 392.367 404.424 393.022 412.982 C 393.677 422.252 385.16 424.392 372.715 427.244 L 372.715 426.531 Z M 507.006 258.237 C 507.006 258.237 490.628 286.048 459.184 286.048 C 450.014 286.048 427.741 280.343 414.639 278.917 C 438.222 282.482 455.91 303.876 455.91 330.261 L 455.91 477.875 C 504.385 465.752 545 444.359 545 420.113 L 545 309.581 C 545 281.056 533.209 258.237 507.006 258.237 Z" clip-rule="evenodd" style=""></path>
</svg>