<?xml version="1.0" standalone="no"?>
<!DOCTYPE svg PUBLIC "-//W3C//DTD SVG 20010904//EN"
 "http://www.w3.org/TR/2001/REC-SVG-20010904/DTD/svg10.dtd">
<svg version="1.0" xmlns="http://www.w3.org/2000/svg"
 width="700.000000pt" height="700.000000pt" viewBox="0 0 700.000000 700.000000"
 preserveAspectRatio="xMidYMid meet">
<metadata>
Created by potrace 1.14, written by Peter Selinger 2001-2017
</metadata>
<g transform="translate(0.000000,700.000000) scale(0.100000,-0.100000)"
fill="#000000" stroke="none">
<path d="M3415 6352 c-128 -15 -307 -80 -429 -157 -48 -30 -92 -60 -100 -67
-7 -7 -40 -36 -73 -65 -175 -152 -333 -433 -383 -678 -5 -27 -12 -63 -16 -80
-14 -65 -12 -360 2 -442 84 -480 393 -852 819 -986 106 -33 138 -38 280 -42
497 -14 962 364 1100 895 38 147 48 245 42 404 -6 155 -8 169 -31 271 -45 194
-122 362 -239 515 -46 61 -203 220 -217 220 -4 0 -20 11 -36 25 -71 62 -273
148 -409 176 -58 11 -248 18 -310 11z"/>
<path d="M1978 6285 c-2 -1 -31 -5 -66 -8 -260 -25 -523 -182 -684 -408 -76
-106 -161 -291 -183 -399 -50 -247 -35 -503 40 -712 103 -285 331 -526 591
-624 223 -84 483 -80 681 10 29 14 53 27 53 30 0 3 -20 34 -45 69 -60 86 -170
312 -166 342 1 3 -5 21 -13 40 -8 19 -13 35 -11 35 2 0 -2 18 -10 40 -8 22
-12 40 -10 40 3 0 1 10 -4 23 -5 12 -12 47 -15 78 -4 31 -9 67 -12 80 -7 36
-6 247 1 304 43 334 149 591 330 807 l65 77 -28 19 c-97 70 -276 136 -397 148
-34 3 -74 7 -88 8 -15 2 -28 2 -29 1z"/>
<path d="M5018 6275 c-2 -1 -32 -5 -68 -9 -84 -7 -138 -20 -225 -53 -55 -21
-171 -80 -194 -99 -2 -2 8 -18 23 -36 213 -263 319 -504 359 -815 46 -360 -51
-766 -249 -1046 l-34 -47 52 -24 c183 -82 415 -96 621 -36 125 37 288 140 398
252 154 158 272 392 304 603 15 97 21 298 11 355 -3 14 -7 43 -11 65 -62 426
-394 791 -789 870 -63 13 -191 25 -198 20z"/>
<path d="M1038 3995 c-2 -2 -21 -6 -43 -9 -91 -14 -194 -87 -251 -178 -25 -39
-62 -126 -70 -163 -30 -138 -31 -170 -31 -873 -1 -782 -2 -761 58 -847 88
-127 279 -259 514 -355 55 -23 109 -45 120 -50 70 -30 316 -102 324 -94 3 3 6
405 7 892 0 488 4 906 8 929 4 24 8 45 7 48 0 2 6 23 14 45 60 171 155 280
310 359 64 32 64 36 0 21 -22 -5 -53 -11 -70 -14 -16 -3 -73 -12 -125 -22
-222 -38 -360 -16 -510 85 -55 38 -143 123 -183 179 -17 23 -33 42 -36 43 -3
0 -14 2 -23 4 -9 2 -18 2 -20 0z"/>
<path d="M5897 3960 c-25 -41 -126 -141 -182 -180 -109 -75 -253 -120 -367
-115 -66 3 -105 9 -290 44 -81 15 -145 24 -142 20 2 -4 18 -10 35 -14 35 -8
165 -92 194 -127 57 -66 88 -112 111 -163 60 -131 57 -79 61 -1075 2 -600 6
-916 13 -918 5 -2 51 8 102 23 471 135 799 326 894 520 l29 60 0 730 c0 402
-4 753 -8 780 -29 187 -114 329 -234 392 -61 32 -81 38 -153 48 -43 6 -46 4
-63 -25z"/>
<path d="M2345 3525 c-207 -60 -364 -244 -403 -470 -3 -22 -7 -467 -7 -990 l0
-950 23 -43 c42 -78 123 -147 248 -210 57 -29 245 -96 296 -106 12 -2 61 -13
108 -24 47 -11 108 -23 135 -28 28 -4 57 -8 65 -10 22 -4 101 -15 139 -20 34
-5 70 -8 241 -21 183 -14 616 -8 805 11 106 11 166 19 207 27 26 4 68 11 94
15 89 12 310 71 403 108 176 71 296 160 343 254 l23 47 1 955 c0 525 -3 971
-8 990 -43 175 -121 299 -242 384 -63 44 -146 81 -206 91 -90 15 -91 15 -161
-44 -101 -86 -106 -89 -176 -132 -126 -78 -252 -122 -378 -134 -82 -8 -111 5
-207 96 -97 92 -137 113 -201 106 -27 -4 -68 -17 -91 -31 -39 -24 -61 -41
-134 -107 -98 -90 -217 -86 -416 12 -92 46 -194 112 -291 188 -81 65 -99 68
-210 36z m335 -1225 c141 -29 195 -36 380 -46 240 -14 691 -8 915 11 174 15
214 19 331 36 93 13 182 13 216 0 38 -14 57 -48 61 -109 4 -52 -7 -81 -43
-109 -29 -23 -122 -53 -199 -64 -42 -6 -87 -13 -101 -15 -190 -28 -391 -39
-745 -38 -267 0 -463 7 -590 20 -103 10 -302 46 -345 61 -83 30 -121 82 -112
156 5 49 25 83 61 102 35 19 59 18 171 -5z m0 -520 c36 -6 85 -12 110 -15 126
-11 188 -17 220 -21 199 -21 764 -21 985 1 22 2 67 7 100 10 33 3 85 8 115 11
30 2 64 6 75 9 11 2 56 7 101 10 124 10 178 -11 191 -75 17 -83 1 -130 -54
-158 -40 -20 -176 -56 -253 -66 -42 -6 -66 -9 -180 -21 -251 -27 -1044 -27
-1210 -1 -14 2 -50 7 -80 11 -30 4 -62 8 -70 10 -8 2 -31 6 -50 10 -131 24
-186 49 -214 95 -31 54 -21 144 21 175 45 35 56 35 193 15z"/>
</g>
</svg>
