<svg xmlns="http://www.w3.org/2000/svg" xml:space="preserve" width="500.3" height="100">
  <path fill="#2689C9" fill-rule="evenodd" d="M41.9 46.4a15 15 0 0 0 14.7-15.2C56.6 22.8 50 16 41.9 16S27 22.8 27 31.2a15 15 0 0 0 15 15.2zm14.3-4.1c1.6.8 3.5 1.2 5.4 1.2 7 0 12.8-6 12.8-13.2A13 13 0 0 0 61.6 17a13 13 0 0 0-6.8 2 17.3 17.3 0 0 1 1.4 23.3zm-34.5 1.2c2 0 3.8-.4 5.5-1.2A17.2 17.2 0 0 1 28.6 19c-2-1.3-4.4-2.1-7-2.1A13 13 0 0 0 8.9 30.3a13 13 0 0 0 12.9 13.2zM17 48.4c-4.8 0-7.2-4-7.2-4-4 0-5.8 3.3-5.8 7.3v15.5c0 3.4 6 6.4 13.4 8.2V54.6c0-3.7 2.8-6.7 6.4-7.2-2 .3-5.5 1-6.8 1zm37.6 1.4s-3.9 3.9-8.7 3.9c-1.5 0-2.7-2.5-4.3-2.5-2.5 0-3.1 2.5-5.3 2.5-3.4 0-8.2-3.9-8.2-3.9-4 0-7.2 3.2-7.2 7.2v21.3c0 8.4 41 8.7 41 0V57c0-4-3.3-7.2-7.3-7.2zm-2.1 24.6c-4.6.9-17.5 1-22.2 0-1.7-.3-2.7-.7-2.7-2 0-1.1.8-1.9 2.7-1.4a91 91 0 0 0 22.2 0c2.8-.3 3 .3 3.1 1.5.1 1.3-1.2 1.5-3.1 1.9zm0-6.3c-4.6 1-17.5 1-22.2 0-1.7-.3-2.7-.7-2.7-1.9s.8-2 2.7-1.5c3.6 1 15.4 1 22.2 0 2.8-.3 3 .3 3.1 1.5.1 1.3-1.2 1.6-3.1 2zM73 44.5s-2.5 3.9-7.3 3.9c-1.4 0-4.8-.8-6.8-1 3.6.5 6.3 3.5 6.3 7.2v20.7c7.4-1.7 13.6-4.7 13.6-8.1V51.7c0-4-1.8-7.2-5.8-7.2z" clip-rule="evenodd"/>
  <path fill="#FFF" d="M131 54.6h7.6V70c-4.2 4.7-10.2 7-18 7-6.7 0-12.2-2.2-16.7-6.5A22 22 0 0 1 97.3 54c0-6.7 2.2-12.2 6.8-16.6 4.5-4.5 10-6.7 16.4-6.7 6.5 0 11.8 1.9 16 5.7l-4 5.7a15.7 15.7 0 0 0-11.4-4c-4.5 0-8.3 1.5-11.4 4.4-3 3-4.6 6.8-4.6 11.5a15 15 0 0 0 15.3 15.7c4.3 0 7.8-.9 10.7-2.7V54.6zm50-8.4c0 7.4-3.3 12-9.7 14L183 76.3h-9.6l-10.7-15h-9.9v15h-7.5V31.7h16.6c6.8 0 11.7 1.2 14.6 3.5 3 2.3 4.4 6 4.4 11zm-10 6.3c1.5-1.3 2.2-3.4 2.2-6.3 0-3-.8-5-2.3-6-1.6-1.1-4.4-1.7-8.5-1.7h-9.6v16h9.4c4.3 0 7.2-.6 8.7-2zm55 17.7a23 23 0 0 1-16.8 6.6 23 23 0 0 1-23.5-23 23 23 0 0 1 23.5-23 23 23 0 0 1 23.6 23c0 6.5-2.3 12-6.8 16.4zm-5.5-28a15 15 0 0 0-11.3-4.7 15.9 15.9 0 0 0-15.8 16.2A15.9 15.9 0 0 0 209.3 70 15.9 15.9 0 0 0 225 53.7c0-4.5-1.5-8.3-4.5-11.4zm28.6 23.9c2 2.4 4.8 3.6 8.3 3.6 3.5 0 6.3-1.2 8.3-3.6s3-5.6 3-9.7V31.7h7.6v25c0 6.5-1.8 11.4-5.3 15-3.5 3.4-8 5.1-13.6 5.1-5.5 0-10-1.7-13.6-5.2a20 20 0 0 1-5.3-14.8v-25h7.5v24.6c0 4.1 1 7.4 3.1 9.7zM315 35.6c3.2 2.6 4.7 6.6 4.7 12s-1.5 9.4-4.7 11.9-8 3.8-14.6 3.8h-8v13H285V31.8h15.4c6.7 0 11.7 1.3 14.8 4zM309.9 54c1.5-1.6 2.2-3.9 2.2-7 0-3-1-5.3-2.9-6.5-1.9-1.3-4.9-2-9-2h-7.6v18h8.7c4.2 0 7-.9 8.6-2.5zm49.3-16.4c4.3 3.9 6.5 9.3 6.5 16.2 0 7-2.1 12.5-6.3 16.5-4.2 4-10.5 6-19.1 6h-14.9V31.8h15.4c8 0 14.1 2 18.4 5.9zM358.1 54c0-10.2-5.9-15.3-17.6-15.3H333v30.6h8.3c5.4 0 9.6-1.3 12.5-3.9 2.8-2.6 4.3-6.4 4.3-11.4zm51.5 16.2a23 23 0 0 1-16.8 6.6 23 23 0 0 1-23.5-23 23 23 0 0 1 23.5-23 23 23 0 0 1 23.5 23 22 22 0 0 1-6.7 16.4zm-5.6-28a15 15 0 0 0-11.2-4.7A15.9 15.9 0 0 0 377 53.7 15.9 15.9 0 0 0 392.8 70a15.9 15.9 0 0 0 15.8-16.2c0-4.5-1.5-8.3-4.6-11.4zm39 27.3c2.6 0 4.9-.4 6.7-1.3a23 23 0 0 0 6-4.2l4.8 5a22.3 22.3 0 0 1-17.3 7.9 23 23 0 0 1-16.8-6.5 22 22 0 0 1-6.6-16.5 23.2 23.2 0 0 1 24-23.3c7 0 12.7 2.6 17.3 7.7l-4.8 5.2a21 21 0 0 0-6-4.2 17 17 0 0 0-6.7-1.3c-4.5 0-8.3 1.5-11.4 4.4-3 3-4.6 6.7-4.6 11.2s1.6 8.3 4.6 11.4c3 3 6.7 4.5 10.8 4.5zm36.7-31.9c-2.2 0-4 .4-5.4 1.3a4.5 4.5 0 0 0-2.1 4c0 1.9.7 3.3 2 4.2 1.5 1 4.5 2 9 3.1 4.6 1.1 8 2.7 10.4 4.7 2.3 2 3.5 5 3.5 8.8s-1.5 7.1-4.4 9.5S485.9 77 481 77c-7 0-13.2-2.4-18.6-7.2l4.7-5.7c4.5 3.9 9.2 5.8 14 5.8 2.5 0 4.4-.5 5.9-1.5 1.4-1 2.1-2.4 2.1-4.2s-.7-3-2-4-3.7-1.8-7-2.6c-3.2-.8-5.7-1.5-7.4-2.2s-3.2-1.5-4.5-2.6c-2.7-2-4-5-4-9.2 0-4.1 1.5-7.3 4.5-9.5s6.7-3.4 11.1-3.4c2.9 0 5.7.5 8.5 1.4 2.9 1 5.3 2.3 7.3 4l-4 5.7a15.3 15.3 0 0 0-5.4-3c-2.2-.7-4.4-1.1-6.6-1.1z"/>
</svg>
