<svg xmlns="http://www.w3.org/2000/svg" xml:space="preserve" width="26" height="903.1" baseProfile="tiny">
  <path fill="#838894" d="M6.5 522.3c2 0 3.8.8 5.2 2.2a7.3 7.3 0 0 1 2.1 5.1h3c0-5.7-4.6-10.3-10.3-10.3v3zm0-5.3c7 0 12.6 5.7 12.6 12.6h3A15.8 15.8 0 0 0 6.5 514v3zm4.2 10.5a2 2 0 1 1-4.2 0 2 2 0 0 1 4.2 0z"/>
  <path fill="none" stroke="#838894" stroke-linecap="round" stroke-linejoin="round" stroke-miterlimit="10" stroke-width="1.3" d="M20.2 499.3H8.5c-1 0-1.7-.7-1.7-1.6V486c0-.9.8-1.6 1.7-1.6h11.7c.8 0 1.6.7 1.6 1.6v11.7c0 1-.8 1.6-1.6 1.6z"/>
  <path fill="#838894" d="M12 490.7c0-.7-.4-1.6-1.7-1.6H8.7v5.6h1.6c1.3 0 1.7-1 1.7-1.6v-2.4zm-1 2.4c0 .2 0 .3-.2.4l-.4.2h-.6V490h.6c.1 0 .3 0 .4.2l.2.4v2.4zm4.4-3.1h-1.8v1.4h1v1h-1v1.3h1.8v1h-2.1a.7.7 0 0 1-.7-.7v-4.2c0-.4.3-.7.6-.7h2.2v1zm3.6 4c-.5 1-1.3.8-1.7 0l-1.3-5h1.1l1 4 1-4h1.1l-1.3 5z"/>
  <g fill="#838894">
    <path d="M14.3 457.7a4.1 4.1 0 0 0 0 8.2 4.1 4.1 0 0 0 0-8.2zm0 6.8a2.6 2.6 0 0 1-2.6-2.7c0-1.4 1.2-2.6 2.6-2.6 1.5 0 2.6 1.2 2.6 2.6 0 1.5-1.1 2.7-2.6 2.7zm4.3-7.8a1 1 0 1 1 0 1.8 1 1 0 0 1 0-1.8z"/>
    <path d="M21 455.2c-.8-.9-2-1.3-3.4-1.3H11c-2.8 0-4.7 1.8-4.7 4.6v6.6c0 1.4.5 2.6 1.4 3.5.8.8 2 1.2 3.3 1.2h6.6c1.4 0 2.5-.4 3.4-1.2a5 5 0 0 0 1.3-3.4v-6.7c0-1.3-.5-2.5-1.3-3.3zm-.1 10a3 3 0 0 1-1 2.3c-.5.6-1.3.9-2.3.9H11a3 3 0 0 1-2.3-.9c-.6-.6-.9-1.4-.9-2.4v-6.6c0-1 .3-1.7.9-2.3.5-.6 1.4-.8 2.3-.8h6.7c1 0 1.7.2 2.3.8.6.6.9 1.4.9 2.3v6.7z"/>
  </g>
  <path fill="#838894" d="M16.8 437.4a2 2 0 0 1-1.2-.4c-.3-.1-.4-.3-.5-.6l-.2-1.8v-4h3.8v-2.5h-3.8v-4.4h-2.4a8 8 0 0 1-.6 2.3c-.3.5-.5 1-1 1.4a5 5 0 0 1-1.6.9v2.3H11v5.5c0 .8.1 1.3.3 1.7.1.4.4.8.8 1.1.4.4 1 .7 1.5.8a7.4 7.4 0 0 0 3.7 0 10 10 0 0 0 2-.6v-2.5c-1 .5-1.7.8-2.6.8zm-2.5-43.7a8.1 8.1 0 0 0-3.3 15.6c0-.6 0-1.3.2-1.9l1-4.4s-.2-.5-.2-1.3c0-1.2.7-2.1 1.5-2.1s1.1.6 1.1 1.2c0 .8-.4 1.9-.7 2.9-.2.9.4 1.6 1.3 1.6 1.5 0 2.6-2 2.6-4.4 0-1.7-1.2-3-3.4-3-2.5 0-4 1.8-4 3.8 0 .7.2 1.2.5 1.6.2.2.2.3.2.5l-.2.6c0 .2-.2.3-.4.2-1.1-.4-1.7-1.7-1.7-3 0-2.4 2-5.1 5.8-5.1 3.1 0 5.1 2.2 5.1 4.6 0 3.2-1.7 5.6-4.3 5.6-.9 0-1.7-.5-2-1l-.6 2.2c-.1.6-.5 1.2-.8 1.7a8.1 8.1 0 1 0 2.3-15.9zM17 373c-.6 0-1 .7-1 1.5 0 .9.4 1.6 1 1.6.7 0 1.2-.7 1.2-1.6 0-.8-.5-1.5-1.2-1.5zm4-4.1c0-.3 0-2.1-.6-3.8 0 0-1.6.1-4 1.8-.4-.2-1.3-.2-2.1-.2l-2.2.2a8.8 8.8 0 0 0-4-1.8 7.7 7.7 0 0 0-.5 3.8 5 5 0 0 0-1.3 3.4c0 6.2 5.2 6.3 6.5 6.3h3c1.3 0 6.4-.1 6.4-6.3 0-1.5-.4-2.5-1.2-3.4zm-6.7 8.9c-3.3 0-5.8-.4-5.8-3.6 0-.7.2-1.4.9-2 1-1 2.8-.5 4.9-.5 2 0 3.9-.5 5 .5.6.6.8 1.3.8 2 0 3.2-2.5 3.6-5.8 3.6zm-2.8-4.8c-.6 0-1 .7-1 1.5 0 .9.4 1.6 1 1.6s1.2-.7 1.2-1.6c0-.8-.5-1.5-1.2-1.5zm7.5-24.4v-4.4h1.5v5.8H7.4v-5.8h1.4v4.4h10.3zm-8.7-1.5h7.3v-1.5h-7.3v1.5zm.2-3.3 7.1 1.5.3-1.4-7.1-1.5-.3 1.4zm.9-3.4 6.6 3 .6-1.3-6.6-3-.6 1.2zm1.9-3.3 5.6 4.7.9-1.1-5.6-4.7-1 1.1zm3.6-3.4-1.2.8 4.3 6 1.2-1-4.3-5.8zm5.5-20.1v6H19V314c0-1.4-.5-2.4-1.7-2.4-1 0-1.6.7-1.8 1.3l-.1.8v6h-3.5V309h3.4v1.5c.5-.7 1.3-1.7 3.2-1.7 2.3 0 4 1.5 4 4.7zM8.1 304c-1.2 0-2 .7-2 1.8 0 1 .8 1.8 2 1.8s2-.8 2-1.8-.8-1.8-2-1.8zm-1.8 15.5h3.5V309H6.3v10.5zm16.1-41.1c-.1-1.1-1-2-2.1-2.1a69.3 69.3 0 0 0-12 0c-1.1 0-2 1-2.1 2a36.8 36.8 0 0 0 0 7c0 1.1 1 2 2 2a82.6 82.6 0 0 0 12 .1c1.2-.1 2-1 2.2-2.1a36.7 36.7 0 0 0 0-7zm-10 5.9v-4.9l4.8 2.4-4.8 2.5zm9.8-37.3-1.9.5c.7-.5 1.2-1 1.5-1.8-.7.3-1.4.6-2.1.7a3.2 3.2 0 0 0-5.5 3 9.2 9.2 0 0 1-6.7-3.4 3.3 3.3 0 0 0 1 4.3c-.6 0-1-.1-1.5-.4 0 1.7 1.1 3 2.6 3.3a3.3 3.3 0 0 1-1.5 0 3.3 3.3 0 0 0 3 2.3 6.5 6.5 0 0 1-4.7 1.3c1.4 1 3.1 1.5 5 1.5a9.2 9.2 0 0 0 9.2-9.7c.6-.4 1.2-1 1.6-1.7zM18 219.1h-2.5v-1.6c0-.6.4-.8.7-.8h1.7V214h-2.4c-2.7 0-3.3 2-3.3 3.3v1.8h-1.5v2.8h1.5v7.8h3.3v-7.8h2.2l.2-2.8zm3.4 395.8H20v.4c0 .5-.4.9-.8.9H19a2 2 0 0 1-1.5-1.1v-.2c1.8-1.4 3-3.5 3-6 0-4.1-3.5-7.5-8-7.5a7.7 7.7 0 0 0-7.8 7.5 7.7 7.7 0 0 0 9.9 7.3l.3.6a3.5 3.5 0 0 0 6.6-1.7v-.2zm-9 0c-1.2 0-2.4-.6-3-1.6l-.4-.6-.3-1.3c-.3-2-.1-4.2 0-5v-.4a3.8 3.8 0 0 1 7.5 0s.8 4.2-.2 6.5v.2l-1-1a4 4 0 0 0-5-.2l.5 1.1c.3-.1 1.5-.5 3.2 2.1l-1.2.2z"/>
  <path fill="#FFF" d="m21 17.6-3.4-3.4c.7-1 1-2.3 1-3.7a6.7 6.7 0 1 0-3 5.6l3.5 3.4a1.3 1.3 0 0 0 1.9-1.9zm-13.7-7a4.7 4.7 0 1 1 9.4 0 4.7 4.7 0 0 1-9.4 0z"/>
  <g fill="#FFF">
    <path d="M16.7 42.1a5.1 5.1 0 0 1-6.8 0 7.8 7.8 0 0 0-4.3 7c0 .3.2.5.5.5h14.4c.3 0 .6-.2.6-.5 0-3-1.7-5.7-4.4-7z"/>
    <circle cx="13.3" cy="38.2" r="4.1"/>
  </g>
  <path fill="#FFF" d="M11.9 197.6a5.3 5.3 0 0 0 0 .5v.3l-.1.2H8a3 3 0 0 1-2.1-.9 3 3 0 0 1-1-2.1V188a3 3 0 0 1 1-2.1 3 3 0 0 1 2.1-1h3.5l.2.2.1.2a5.4 5.4 0 0 0 0 .5v.2l-.1.3H8a2 2 0 0 0-1.2.5 2 2 0 0 0-.5 1.2v7.6c0 .4.2.8.5 1.2.4.3.8.5 1.2.5h3.7v.2l.1.1zm10-5.8c0 .2-.1.3-.3.5l-5.8 5.8-.5.2c-.2 0-.3 0-.5-.2a.7.7 0 0 1-.2-.5v-3H9.8l-.4-.3a.7.7 0 0 1-.2-.5v-4c0-.2 0-.4.2-.5.1-.2.3-.2.4-.2h4.8V186l.2-.5.5-.2c.2 0 .4 0 .5.2l5.8 5.8c.2.1.2.3.2.5z"/>
  <path fill="none" stroke="#FFF" stroke-linecap="round" stroke-linejoin="round" stroke-miterlimit="10" stroke-width="2.4" d="M19.2 158.1 12 165l-3.2-3.2"/>
  <path fill="#FFF" d="M19 162.5c-.4 2.8-2.8 5-5.7 5a5.8 5.8 0 0 1-5.8-5.7 5.8 5.8 0 0 1 8.6-5l1-1.1A7.2 7.2 0 0 0 6 161.8c0 4 3.3 7.2 7.3 7.2a7 7 0 0 0 7.1-6.5H19zm-7.8-24.2c0 .3-.1.6-.4.8a1 1 0 0 1-.8.4c-.4 0-.7-.1-1-.4-.2-.2-.3-.5-.3-.9s.1-.6.4-.8c.2-.3.5-.4.9-.4.3 0 .6.1.8.4.3.2.4.5.4.8zm8.7 0c0 .3-.1.6-.4.8-.2.3-.5.4-.9.4s-.6-.1-.8-.4c-.3-.2-.4-.5-.4-.9s.1-.6.4-.8c.2-.3.5-.4.8-.4s.7.1 1 .4c.2.2.3.5.3.8zm1.2-10.6v5l-.1.4-.4.2-10.1 1.2v.7l-.2.6h9c.1 0 .3 0 .4.2l.2.4c0 .2 0 .3-.2.4-.1.2-.3.2-.4.2h-10c-.1 0-.3 0-.4-.2a.6.6 0 0 1-.2-.4l.1-.3.2-.4a15.2 15.2 0 0 1 .3-.6l-1.7-8h-2c-.1 0-.3 0-.4-.2l-.2-.4c0-.1 0-.3.2-.5l.4-.2h2.5a.6.6 0 0 1 .5.3v.2l.2.3a20.4 20.4 0 0 1 0 .5h11.7c.2 0 .3 0 .4.2.2.1.2.2.2.4z"/>
  <g fill="none" stroke="#FFF" stroke-linecap="round" stroke-linejoin="round" stroke-width="1.4">
    <path stroke-miterlimit="6.2" d="M1153 68.4v9h-9.8V64.6h6" transform="matrix(1.15126 0 0 1.14297 -1308.4 20.7)"/>
    <path d="M1152.8 68.5h-3.6l-.1-.1v-3.8l3.9 3.8-.2.1z" transform="matrix(1.15126 0 0 1.14297 -1308.4 20.7)"/>
    <path d="M-61.3 68.3h4.7m-4.7-1.7h4.7m-4.7 3.4h4.7" transform="matrix(1.40338 0 0 1.39531 96.1 8.7)"/>
  </g>
  <path fill="#FFF" d="m19.6 70.5-1.2-.4-.2-.8.5-1a1 1 0 0 0 0-.9l-1-1a.7.7 0 0 0-.9-.1l-1.1.6a1 1 0 0 0-.7-.3l-.4-1.2a.7.7 0 0 0-.7-.5h-1.3c-.3 0-.6.2-.7.5l-.4 1.2-.7.3-1.1-.6a.7.7 0 0 0-.8.1l-1 1c-.2.2-.3.5-.2.8l.6 1.1-.3.8-1.2.4c-.3 0-.4.3-.4.6v1.4c0 .3.2.5.4.6l1.2.4.3.8-.6 1c0 .3 0 .7.2.9l1 1c.2.2.5.2.8 0l1-.5.8.3.4 1.2c.1.3.4.5.7.5h1.3c.3 0 .6-.2.7-.5L15 77l.7-.3 1.1.6c.3.1.6 0 .8-.2l1-1c.2-.1.3-.5.1-.7l-.5-1.1c0-.3.2-.5.3-.8l1.1-.3c.3-.1.5-.4.5-.7V71c0-.3-.2-.6-.5-.6zm-6.4 4a2.8 2.8 0 1 1 0-5.5 2.8 2.8 0 0 1 0 5.5z"/>
  <path fill="#838894" d="m20.2 547.7-6.8 6.9-.3.1-.3-.1-6.8-6.9-.2-.3c0-.1 0-.2.2-.3l.7-.8.3-.1.4.1 5.7 5.8 5.7-5.8.4-.1.3.1.7.8.2.3c0 .1 0 .3-.2.3zM6 580.9l6.8-6.8.3-.2c.1 0 .3 0 .3.2l6.8 6.8.2.3-.1.3-.8.8-.3.1-.4-.1-5.7-5.8-5.7 5.8-.4.1-.3-.1-.7-.8-.2-.3c0-.1 0-.2.2-.3z"/>
</svg>
