<?xml version="1.0" encoding="UTF-8"?>
<!--
Font Awesome Free 5.15.4 by @fontawesome - https://fontawesome.com
License - https://fontawesome.com/license/free (Icons: CC BY 4.0, Fonts: SIL OFL 1.1, Code: MIT License)
-->
<svg xmlns="http://www.w3.org/2000/svg" style="display: none;">
  <symbol id="nodejs" viewBox="0 0 44 44" fill="none">
    <path d="M21.5956 43C21.0169 43 20.4767 42.8457 19.9751 42.5756L14.8432 39.5273C14.0715 39.1029 14.4574 38.9486 14.6889 38.8714C15.7307 38.5241 15.9236 38.4469 17.004 37.8296C17.1198 37.7524 17.2741 37.791 17.3899 37.8682L21.3255 40.2219C21.4799 40.299 21.6728 40.299 21.7886 40.2219L37.1841 31.3087C37.3384 31.2315 37.4156 31.0772 37.4156 30.8842V13.0965C37.4156 12.9035 37.3384 12.7492 37.1841 12.672L21.7886 3.79743C21.6342 3.72026 21.4413 3.72026 21.3255 3.79743L5.93005 12.672C5.7757 12.7492 5.69853 12.9421 5.69853 13.0965V30.8842C5.69853 31.0386 5.7757 31.2315 5.93005 31.3087L10.1358 33.7395C12.4124 34.8971 13.84 33.5466 13.84 32.1961V14.6399C13.84 14.4084 14.0329 14.1768 14.303 14.1768H16.2709C16.5024 14.1768 16.7339 14.3698 16.7339 14.6399V32.1961C16.7339 35.2444 15.0747 37.0193 12.1808 37.0193C11.2934 37.0193 10.5989 37.0193 8.63101 36.0547L4.57956 33.7395C3.57635 33.1608 2.95898 32.0804 2.95898 30.9228V13.135C2.95898 11.9775 3.57635 10.8971 4.57956 10.3183L19.9751 1.40514C20.9397 0.864952 22.2516 0.864952 23.2162 1.40514L38.6117 10.3183C39.6149 10.8971 40.2323 11.9775 40.2323 13.135V30.9228C40.2323 32.0804 39.6149 33.1608 38.6117 33.7395L23.2162 42.6527C22.7146 42.8842 22.1358 43 21.5956 43ZM26.3416 30.7685C19.5892 30.7685 18.2001 27.6817 18.2001 25.0579C18.2001 24.8264 18.3931 24.5949 18.6632 24.5949H20.6696C20.9011 24.5949 21.094 24.7492 21.094 24.9807C21.4027 27.0257 22.2902 28.0289 26.3802 28.0289C29.6214 28.0289 31.0104 27.2958 31.0104 25.5595C31.0104 24.5563 30.6246 23.8232 25.5699 23.3215C21.3641 22.8971 18.7403 21.9711 18.7403 18.6141C18.7403 15.4887 21.3641 13.6367 25.7628 13.6367C30.7018 13.6367 33.1326 15.3344 33.4413 19.0386C33.4413 19.1543 33.4027 19.2701 33.3255 19.3859C33.2484 19.463 33.1326 19.5402 33.0169 19.5402H31.0104C30.8175 19.5402 30.6246 19.3859 30.586 19.1929C30.123 17.0707 28.9268 16.3762 25.7628 16.3762C22.213 16.3762 21.7886 17.6109 21.7886 18.537C21.7886 19.6559 22.2902 20.0032 27.0747 20.6206C31.8207 21.2379 34.0587 22.1254 34.0587 25.4437C34.0201 28.8392 31.2419 30.7685 26.3416 30.7685Z" fill="#539E43"></path>
  </symbol>
  <symbol id="python" viewBox="0 0 43 43" fill="none" xmlns="http://www.w3.org/2000/svg">
    <g>
      <path d="M21.5 11.2692H5.34615C5.34615 11.2692 0.5 11.2692 0.5 21.5C0.5 31.7308 5.34615 31.7308 5.34615 31.7308H10.1923V26.8846C10.1923 23.6538 12.8846 20.9615 16.1154 20.9615H26.8846C29.5769 20.9615 31.7308 18.8077 31.7308 16.1154V5.34615C31.7308 5.34615 31.7308 0.5 21.5 0.5C11.2692 0.5 11.2692 5.34615 11.2692 5.34615V10.1923H21.5V11.2692Z" fill="#3377BB"></path>
      <path d="M21.4993 31.7301H37.6532C37.6532 31.7301 42.4993 31.7301 42.4993 21.4993C42.4993 11.2686 37.6532 11.2686 37.6532 11.2686H32.807V16.1147C32.807 19.3455 30.1147 22.0378 26.8839 22.0378H16.1147C13.4224 22.0378 11.2686 24.1916 11.2686 26.8839V37.6532C11.2686 37.6532 11.2686 42.4993 21.4993 42.4993C31.7301 42.4993 31.7301 37.6532 31.7301 37.6532V32.807H21.4993V31.7301Z" fill="#FFBB33"></path>
      <path d="M16.1154 6.96124C17.0075 6.96124 17.7308 6.23801 17.7308 5.34585C17.7308 4.4537 17.0075 3.73047 16.1154 3.73047C15.2232 3.73047 14.5 4.4537 14.5 5.34585C14.5 6.23801 15.2232 6.96124 16.1154 6.96124Z" fill="white"></path>
      <path d="M26.8849 39.2698C27.7771 39.2698 28.5003 38.5466 28.5003 37.6544C28.5003 36.7623 27.7771 36.0391 26.8849 36.0391C25.9928 36.0391 25.2695 36.7623 25.2695 37.6544C25.2695 38.5466 25.9928 39.2698 26.8849 39.2698Z" fill="white"></path>
    </g>
  </symbol>
  <symbol id="windows" viewBox="0 0 448 512">
    <path d="M0 93.7l183.6-25.3v177.4H0V93.7zm0 324.6l183.6 25.3V268.4H0v149.9zm203.8 28L448 480V268.4H203.8v177.9zm0-380.6v180.1H448V32L203.8 65.7z"></path>
  </symbol>
  <symbol id="java" viewBox="0 0 384 512">
    <path d="M277.74 312.9c9.8-6.7 23.4-12.5 23.4-12.5s-38.7 7-77.2 10.2c-47.1 3.9-97.7 4.7-123.1 1.3-60.1-8 33-30.1 33-30.1s-36.1-2.4-80.6 19c-52.5 25.4 130 37 224.5 12.1zm-85.4-32.1c-19-42.7-83.1-80.2 0-145.8C296 53.2 242.84 0 242.84 0c21.5 84.5-75.6 110.1-110.7 162.6-23.9 35.9 11.7 74.4 60.2 118.2zm114.6-176.2c.1 0-175.2 43.8-91.5 140.2 24.7 28.4-6.5 54-6.5 54s62.7-32.4 33.9-72.9c-26.9-37.8-47.5-56.6 64.1-121.3zm-6.1 270.5a12.19 12.19 0 0 1-2 2.6c128.3-33.7 81.1-118.9 19.8-97.3a17.33 17.33 0 0 0-8.2 6.3 70.45 70.45 0 0 1 11-3c31-6.5 75.5 41.5-20.6 91.4zM348 437.4s14.5 11.9-15.9 21.2c-57.9 17.5-240.8 22.8-291.6.7-18.3-7.9 16-19 26.8-21.3 11.2-2.4 17.7-2 17.7-2-20.3-14.3-131.3 28.1-56.4 40.2C232.84 509.4 401 461.3 348 437.4zM124.44 396c-78.7 22 47.9 67.4 148.1 24.5a185.89 185.89 0 0 1-28.2-13.8c-44.7 8.5-65.4 9.1-106 4.5-33.5-3.8-13.9-15.2-13.9-15.2zm179.8 97.2c-78.7 14.8-175.8 13.1-233.3 3.6 0-.1 11.8 9.7 72.4 13.6 92.2 5.9 233.8-3.3 237.1-46.9 0 0-6.4 16.5-76.2 29.7zM260.64 353c-59.2 11.4-93.5 11.1-136.8 6.6-33.5-3.5-11.6-19.7-11.6-19.7-86.8 28.8 48.2 61.4 169.5 25.9a60.37 60.37 0 0 1-21.1-12.8z"></path>
  </symbol>
  <symbol id="docker" viewBox="0 0 640 512">
    <path d="M349.9 236.3h-66.1v-59.4h66.1v59.4zm0-204.3h-66.1v60.7h66.1V32zm78.2 144.8H362v59.4h66.1v-59.4zm-156.3-72.1h-66.1v60.1h66.1v-60.1zm78.1 0h-66.1v60.1h66.1v-60.1zm276.8 100c-14.4-9.7-47.6-13.2-73.1-8.4-3.3-24-16.7-44.9-41.1-63.7l-14-9.3-9.3 14c-18.4 27.8-23.4 73.6-3.7 103.8-8.7 4.7-25.8 11.1-48.4 10.7H2.4c-8.7 50.8 5.8 116.8 44 162.1 37.1 43.9 92.7 66.2 165.4 66.2 157.4 0 273.9-72.5 328.4-204.2 21.4.4 67.6.1 91.3-45.2 1.5-2.5 6.6-13.2 8.5-17.1l-13.3-8.9zm-511.1-27.9h-66v59.4h66.1v-59.4zm78.1 0h-66.1v59.4h66.1v-59.4zm78.1 0h-66.1v59.4h66.1v-59.4zm-78.1-72.1h-66.1v60.1h66.1v-60.1z"></path>
  </symbol>
 <symbol id="book" viewBox="0 0 448 512">
    <path d="M448 360V24c0-13.3-10.7-24-24-24H96C43 0 0 43 0 96v320c0 53 43 96 96 96h328c13.3 0 24-10.7 24-24v-16c0-7.5-3.5-14.3-8.9-18.7-4.2-15.4-4.2-59.3 0-74.7 5.4-4.3 8.9-11.1 8.9-18.6zM128 134c0-3.3 2.7-6 6-6h212c3.3 0 6 2.7 6 6v20c0 3.3-2.7 6-6 6H134c-3.3 0-6-2.7-6-6v-20zm0 64c0-3.3 2.7-6 6-6h212c3.3 0 6 2.7 6 6v20c0 3.3-2.7 6-6 6H134c-3.3 0-6-2.7-6-6v-20zm253.4 250H96c-17.7 0-32-14.3-32-32 0-17.6 14.4-32 32-32h285.4c-1.9 17.1-1.9 46.9 0 64z"></path>
  </symbol>
   <symbol id="code" viewBox="0 0 640 512">
    <path d="M278.9 511.5l-61-17.7c-6.4-1.8-10-8.5-8.2-14.9L346.2 8.7c1.8-6.4 8.5-10 14.9-8.2l61 17.7c6.4 1.8 10 8.5 8.2 14.9L293.8 503.3c-1.9 6.4-8.5 10.1-14.9 8.2zm-114-112.2l43.5-46.4c4.6-4.9 4.3-12.7-.8-17.2L117 256l90.6-79.7c5.1-4.5 5.5-12.3.8-17.2l-43.5-46.4c-4.5-4.8-12.1-5.1-17-.5L3.8 247.2c-5.1 4.7-5.1 12.8 0 17.5l144.1 135.1c4.9 4.6 12.5 4.4 17-.5zm327.2.6l144.1-135.1c5.1-4.7 5.1-12.8 0-17.5L492.1 112.1c-4.8-4.5-12.4-4.3-17 .5L431.6 159c-4.6 4.9-4.3 12.7.8 17.2L523 256l-90.6 79.7c-5.1 4.5-5.5 12.3-.8 17.2l43.5 46.4c4.5 4.9 12.1 5.1 17 .6z"></path>
  </symbol>
  <symbol id="headset" viewBox="0 0 512 512">
    <path d="M192 208c0-17.67-14.33-32-32-32h-16c-35.35 0-64 28.65-64 64v48c0 35.35 28.65 64 64 64h16c17.67 0 32-14.33 32-32V208zm176 144c35.35 0 64-28.65 64-64v-48c0-35.35-28.65-64-64-64h-16c-17.67 0-32 14.33-32 32v112c0 17.67 14.33 32 32 32h16zM256 0C113.18 0 4.58 118.83 0 256v16c0 8.84 7.16 16 16 16h16c8.84 0 16-7.16 16-16v-16c0-114.69 93.31-208 208-208s208 93.31 208 208h-.12c.08 2.43.12 165.72.12 165.72 0 23.35-18.93 42.28-42.28 42.28H320c0-26.51-21.49-48-48-48h-32c-26.51 0-48 21.49-48 48s21.49 48 48 48h181.72c49.86 0 90.28-40.42 90.28-90.28V256C507.42 118.83 398.82 0 256 0z"></path>
  </symbol>
  <symbol id="user" viewBox="0 0 448 512">
    <path d="M224 256c70.7 0 128-57.3 128-128S294.7 0 224 0 96 57.3 96 128s57.3 128 128 128zm89.6 32h-16.7c-22.2 10.2-46.9 16-72.9 16s-50.6-5.8-72.9-16h-16.7C60.2 288 0 348.2 0 422.4V464c0 26.5 21.5 48 48 48h352c26.5 0 48-21.5 48-48v-41.6c0-74.2-60.2-134.4-134.4-134.4z"></path>
  </symbol>
  <symbol id="desktop" viewBox="0 0 576 512">
    <path d="M528 0H48C21.5 0 0 21.5 0 48v320c0 26.5 21.5 48 48 48h192l-16 48h-72c-13.3 0-24 10.7-24 24s10.7 24 24 24h272c13.3 0 24-10.7 24-24s-10.7-24-24-24h-72l-16-48h192c26.5 0 48-21.5 48-48V48c0-26.5-21.5-48-48-48zm-16 352H64V64h448v288z"></path>
  </symbol>
  <symbol id="user-tie" viewBox="0 0 448 512">
    <path d="M224 256c70.7 0 128-57.3 128-128S294.7 0 224 0 96 57.3 96 128s57.3 128 128 128zm95.8 32.6L272 480l-32-136 32-56h-96l32 56-32 136-47.8-191.4C56.9 292 0 350.3 0 422.4V464c0 26.5 21.5 48 48 48h352c26.5 0 48-21.5 48-48v-41.6c0-72.1-56.9-130.4-128.2-133.8z"></path>
  </symbol>
  <symbol id="file-alt" viewBox="0 0 384 512">
    <path d="M224 136V0H24C10.7 0 0 10.7 0 24v464c0 13.3 10.7 24 24 24h336c13.3 0 24-10.7 24-24V160H248c-13.2 0-24-10.8-24-24zm64 236c0 6.6-5.4 12-12 12H108c-6.6 0-12-5.4-12-12v-8c0-6.6 5.4-12 12-12h168c6.6 0 12 5.4 12 12v8zm0-64c0 6.6-5.4 12-12 12H108c-6.6 0-12-5.4-12-12v-8c0-6.6 5.4-12 12-12h168c6.6 0 12 5.4 12 12v8zm0-72v8c0 6.6-5.4 12-12 12H108c-6.6 0-12-5.4-12-12v-8c0-6.6 5.4-12 12-12h168c6.6 0 12 5.4 12 12zm96-114.1v6.1H256V0h6.1c6.4 0 12.5 2.5 17 7l97.9 98c4.5 4.5 7 10.6 7 16.9z"></path>
  </symbol>
  <symbol id="eye" viewBox="0 0 576 512">
    <path d="M572.52 241.4C518.29 135.59 410.93 64 288 64S57.68 135.64 3.48 241.41a32.35 32.35 0 0 0 0 29.19C57.71 376.41 165.07 448 288 448s230.32-71.64 284.52-177.41a32.35 32.35 0 0 0 0-29.19zM288 400a144 144 0 1 1 144-144 143.93 143.93 0 0 1-144 144zm0-240a95.31 95.31 0 0 0-25.31 3.79 47.85 47.85 0 0 1-66.9 66.9A95.78 95.78 0 1 0 288 160z"></path>
  </symbol>
</svg>
