<svg version="1.1" id="NET" xmlns="http://www.w3.org/2000/svg" xmlns:xlink="http://www.w3.org/1999/xlink" x="0px" y="0px"
	 viewBox="0 0 512 512" xml:space="preserve">
<style type="text/css">
	.st1{fill:#2865E0;}
</style>

<g id="GroupDocs.Parser">
	<g>
		<path class="st1" d="M311.9,347.6c0,3.4-1.4,6.4-3.6,8.7c-2.2,2.2-5.3,3.6-8.7,3.6H181c-6.7,0-12.3-5.6-12.3-12.3V164.4
			c0-6.7,5.6-12.3,12.3-12.3h118.5c6.7,0,12.3,5.6,12.3,12.3V200h28.6v-35.6c0-22.4-18.2-40.6-40.9-40.6H181
			c-22.7,0-40.9,18.2-40.9,40.6v183.2c0,22.4,18.2,40.6,40.9,40.6h118.5c19.1,0,35-13.2,39.5-30.8c0.8-3.1,1.1-6.7,1.1-10.1v-1.4
			h-28.6v1.7H311.9z M199,266.4c-7.8,0-14.3,6.4-14.3,14.3s6.4,14.3,14.3,14.3h45.1c7.8,0,14.3-6.4,14.3-14.3s-6.4-14.3-14.3-14.3
			H199z M274.6,235.3c0-7.8-6.4-14.3-14.3-14.3H199c-7.8,0-14.3,6.4-14.3,14.3s6.4,14.3,14.3,14.3h61.4
			C268.2,249.6,274.6,243.1,274.6,235.3z M296.2,187.9c0-7.8-6.4-14.3-14.3-14.3H199c-7.8,0-14.3,6.4-14.3,14.3
			c0,7.8,6.4,14.3,14.3,14.3h82.9C289.8,202.2,296.2,195.8,296.2,187.9z M360.9,228c-7.3-6.2-17.7-9-30.5-9h-44.6v100.9h0.3
			c0.8,5.9,6.2,10.4,12.3,10.4h1.7c6.2,0,11.5-4.5,12.3-10.4h0.8v-39.2h17.1c7.8,0,14.6-1.1,20.5-3.1c5.9-2,10.1-4.8,12.9-7.8
			c5.6-6.4,8.1-12.9,8.1-19.6C371.9,241.4,368.2,234.1,360.9,228z M340.2,258.5c-2.5,2.2-5.6,3.4-9.8,3.4h-17.1v-24.4h17.1
			c4.2,0,7.3,1.1,9.8,3.4s3.6,5.3,3.6,9S342.7,256.3,340.2,258.5z"/>
	</g>
</g>
</svg>
