<svg version="1.1" id="NET" xmlns="http://www.w3.org/2000/svg" xmlns:xlink="http://www.w3.org/1999/xlink" x="0px" y="0px"
	 viewBox="0 0 512 512" xml:space="preserve">
<style type="text/css">
	.st1{fill:#2865E0;}
</style>

<g>
	<g>
		<g>
			<path class="st1" d="M256,189.6c35,0,67,12.4,95,37.3c12.2,10.7,20.9,21.8,26.3,29.1c-5.4,7.6-14.4,18.4-26.6,29.4
				c-28,24.6-59.9,37.3-94.7,37.3c-33.9,0-65.6-12.4-93.8-37.3c-12.4-11-21.8-22-27.4-29.7c5.1-7.3,13.8-18.4,25.7-29.1
				C188.2,202,220.4,189.6,256,189.6 M256,169.8c-99.8,0-145,86.2-145,86.2s50,86.2,145,86.2c96.7,0,145-86.2,145-86.2
				S353.8,169.8,256,169.8L256,169.8z"/>
		</g>
	</g>
	<g>
		<path class="st1" d="M256,233.4c12.2,0,22.3,9.9,22.3,22.3c0,12.2-9.9,22.3-22.3,22.3s-22.3-9.9-22.3-22.3
			C233.7,243.6,243.6,233.4,256,233.4 M256,205.1c-28,0-50.6,22.6-50.6,50.6s22.6,50.6,50.6,50.6s50.6-22.6,50.6-50.6
			S283.7,205.1,256,205.1L256,205.1z"/>
	</g>
</g>
</svg>
