<svg version="1.1" id="NET" xmlns="http://www.w3.org/2000/svg" xmlns:xlink="http://www.w3.org/1999/xlink" x="0px" y="0px"
	 viewBox="0 0 512 512" xml:space="preserve">
<style type="text/css">
	.st1{fill:#2865E0;}
	.st2{fill:none;stroke:#2865E0;stroke-width:29.0578;stroke-miterlimit:10;}
	.st3{fill:none;stroke:#2865E0;stroke-width:29.0578;stroke-linecap:round;stroke-linejoin:round;stroke-miterlimit:10;}
</style>

<g id="Dark_1_">
	<path class="st2" d="M303.9,220.1v-63.4c0,0,4.5-20.5-20.5-20.5c-25,0-129.5,0-129.5,0s-19.7-1.8-19.7,19.7c0,21.4,0,198.6,0,198.6
		s2.7,17.6,17.6,17.6s57.2,0,57.2,0"/>
	<line class="st3" x1="233.9" y1="249" x2="249.4" y2="249"/>
	<line class="st3" x1="284.8" y1="249" x2="300.3" y2="249"/>
	<line class="st3" x1="335.5" y1="249" x2="351.2" y2="249"/>
	<line class="st3" x1="233.9" y1="285.3" x2="249.4" y2="285.3"/>
	<line class="st3" x1="284.8" y1="285.3" x2="300.3" y2="285.3"/>
	<line class="st3" x1="233.9" y1="358" x2="249.4" y2="358"/>
	<line class="st3" x1="335.5" y1="358" x2="351.2" y2="358"/>
	<line class="st3" x1="284.8" y1="321.6" x2="300.3" y2="321.6"/>
	<line class="st3" x1="386.4" y1="285.3" x2="401.9" y2="285.3"/>
	<line class="st3" x1="183" y1="285.3" x2="198.5" y2="285.3"/>
	<line class="st3" x1="183" y1="321.6" x2="198.5" y2="321.6"/>
	<line class="st3" x1="335.5" y1="321.6" x2="351.2" y2="321.6"/>
</g>
</svg>
