<svg version="1.1" id="NET" xmlns="http://www.w3.org/2000/svg" xmlns:xlink="http://www.w3.org/1999/xlink" x="0px" y="0px"
	 viewBox="0 0 512 512" xml:space="preserve">
<style type="text/css">
	.st1{fill:#2865E0;}
</style>

<g id="theme">
	<g>
		<path class="st1" d="M270.7,189c0-0.3,0-0.6,0-1.1c0-7.8-6.2-14.3-14-14.3h-71.2c-7.6,0-14,6.4-14,14.3s6.2,14.3,14,14.3h48.2
			C244.7,195.2,257.3,190.4,270.7,189z M283.6,360H168.2c-6.4,0-12-5.6-12-12.3V164.4c0-6.7,5.3-12.3,12-12.3h115.2
			c6.4,0,12,5.6,12,12.3v26.1c10.1,2.2,19.3,6.2,27.7,11.5v-37.5c0-22.4-17.9-40.6-39.8-40.6H168.2c-21.9,0-39.8,18.2-39.8,40.6
			v183.2c0,22.4,17.9,40.6,39.8,40.6h115.2c21.9,0,39.8-18.2,39.8-40.6v-2.2c-9.8,6.4-21,10.9-33.1,12.6
			C288.1,359.4,285.9,360,283.6,360z M378.3,349.9L328.2,305c-0.3-0.3-0.3-0.3-0.6-0.6c6.7-10.6,10.9-23.3,10.9-37
			c0-37.3-29.4-67.5-65.6-67.5s-65.6,30.3-65.6,67.5S236.8,335,273,335c13.4,0,25.8-4.2,36.1-11.2c0.3,0.3,0.3,0.3,0.6,0.6
			l43.7,51.6c7,7.3,18.2,7.3,25.2,0C385.3,368.9,385.3,357.2,378.3,349.9z M272.7,311.8c-23.8,0-42.9-19.6-42.9-44s19.3-44,42.9-44
			c23.8,0,42.9,19.6,42.9,44C315.6,291.9,296.5,311.8,272.7,311.8z M171.5,235.5c0,7.8,6.2,14.3,14,14.3h14
			c3.1-10.4,7.8-20.2,14.3-28.6h-28.3C177.7,221.3,171.5,227.7,171.5,235.5z M269.3,234.1h-8.4c-25.8,11.8-22.1,33.9-22.1,33.9h30.5
			c8.4,0,15.1-7.6,15.1-17.1C284.2,241.7,277.5,234.1,269.3,234.1z"/>
	</g>
</g>
</svg>
