<svg version="1.1" id="NET" xmlns="http://www.w3.org/2000/svg" xmlns:xlink="http://www.w3.org/1999/xlink" x="0px" y="0px"
	 viewBox="0 0 512 512" xml:space="preserve">
<style type="text/css">
	.st1{fill:#2865E0;}
</style>

<g id="GroupDocs.Watermark">
	<g>
		<path class="st1" d="M214.8,220.5h-18.3c-7.8,0-14.2,6.7-14.2,14.5c0,8.1,6.4,14.5,14.2,14.5h18.3V220.5z M182.3,284
			c0,8.1,6.4,14.5,14.2,14.5h18.3v-29.3h-18.3C188.7,269.2,182.3,275.9,182.3,284z M297.5,362.4H178.8c-6.7,0-12.2-5.5-12.2-12.5
			V162.1c0-7,5.5-12.5,12.2-12.5h118.4c6.7,0,12.2,5.5,12.2,12.5v47.3h28.7v-47.3c0-22.9-18.3-41.8-40.9-41.8H178.8
			c-22.6,0-40.9,18.6-40.9,41.8v187.8c0,22.9,18.3,41.8,40.9,41.8h118.4c18.9,0,34.5-13.1,39.5-30.5h-34
			C301,361.8,299.2,362.4,297.5,362.4z M299.2,186.2c0-8.1-6.4-14.5-14.2-14.5h-88.5c-7.8,0-14.2,6.7-14.2,14.5
			c0,8.1,6.4,14.5,14.2,14.5h88.2C292.9,201,299.2,194.3,299.2,186.2z M374.1,249.5V217h-32.5v10.7h-81.3V217h-32.5v32.5h10.7v65
			h-10.7V347h32.5v-10.7h81.3V347h32.5v-32.5h-10.7v-65H374.1z M238.6,227.7h10.7v10.7h-10.7V227.7z M249.6,336.2h-10.7v-10.7h10.7
			V336.2z M341.6,325.2h-81.3v-10.7h-10.7v-65h10.7v-10.7h81.3v10.7h10.7v65h-10.7V325.2z M363.4,336.2h-10.7v-10.7h10.7V336.2z
			 M352.3,238.4v-10.7h10.7v10.7H352.3z M298.1,279.4l-16.8-10.4l-23.8,31.3h84.4L312.6,253L298.1,279.4z"/>
	</g>
</g>
</svg>
