<svg xmlns="http://www.w3.org/2000/svg" version="1.1" viewBox="0 0 512 512">
  <g id="Main">
    <path d="M244,372.1l-67.4-1c-7.6-0.1-13.5-6.2-13.5-13.5V154.4c0-7.3,6.2-13.5,13.5-13.5h131.7
             c7.6,0,13.5,6.2,13.5,13.5v86.4c8.5,1.5,31.7,0.7,31.7,0.7l-0.1-86.4c0-25-20.3-45.3-45.6-45.3H176.6
             c-25,0-45.6,20.3-45.6,45.3v203.1c0,25,20.3,45.4,45.6,45.3l67.6-0.2C244.4,392.8,244.6,384.1,244,372.1z
             M201.5,163.3c-8.8,0-15.9,7.1-15.9,15.9c0,8.8,7.1,15.9,15.9,15.9h81.7c8.8,0,15.9-7.1,15.9-15.9
             c0-8.8-7.1-15.9-15.9-15.9H201.5z"
          fill="#2865E0"/>
    <path d="M201.3,214.8c-8.8,0-15.9,7.1-15.9,15.9c0,8.8,7.1,15.9,15.9,15.9h81.7c8.8,0,15.9-7.1,15.9-15.9
             c0-8.8-7.1-15.9-15.9-15.9H201.3z"
          fill="#2865E0"/>
    <path d="M409.5,398.6h-35.8v-93.5l-25.9,60.7h-24.8l-25.9-60.7v93.5h-33.9V259h41.8l31.4,70
             l31.3-70h41.8V398.6z"
          fill="#2865E0"/>
  </g>
</svg>
