<svg version="1.1" id="NET" xmlns="http://www.w3.org/2000/svg" xmlns:xlink="http://www.w3.org/1999/xlink" x="0px" y="0px"
	 viewBox="0 0 512 512" xml:space="preserve">
<style type="text/css">
	.st1{fill:#2865E0;}
</style>

<g id="dark">
	<g>
		<path class="st1" d="M233.3,275.6l44.1-12l9.9-9.6l-31.4-31.4l-9.9,9.6L233.3,275.6z M341.5,220.4v86c0,6.2-4.9,11.1-11.1,11.1
			h-25.9l-0.3,37l-59.2-37h-96.8c-6.2,0-11.1-4.9-11.1-11.1V199.8c0-6.2,4.9-11.1,11.1-11.1h115l25.9-25.9H148.3
			c-20.6,0-37.3,16.6-37.3,37v106.9c0,20.3,16.6,37,37.3,37h93.4l88.4,58.9v-58.9c20.6,0,37.3-16.6,37.3-37V199.8c0-0.3,0-0.6,0-0.9
			L341.5,220.4z M394.5,115.9c-8.6-8.6-22.8-8.6-31.4,0l-96.8,96.2l31.4,31.4l96.8-95.8C403.2,138.7,403.2,124.6,394.5,115.9z
			 M172.6,269.7c-7.1,0-12.9,5.9-12.9,12.9c0,7.1,5.9,12.9,12.9,12.9h33.3c7.1,0,12.9-5.9,12.9-12.9c0-7.1-5.9-12.9-12.9-12.9H172.6
			z"/>
	</g>
</g>
</svg>
