<svg version="1.1" id="NET" xmlns="http://www.w3.org/2000/svg" xmlns:xlink="http://www.w3.org/1999/xlink" x="0px" y="0px"
	 viewBox="0 0 512 512" xml:space="preserve">
<style type="text/css">
	.st1{fill:#2865E0;}
</style>

<g id="light">
	<g>
		<path class="st1" d="M272.4,371.1h-95.8c-7.6,0-13.5-6.2-13.5-13.5V154.4c0-7.3,6.2-13.5,13.5-13.5h131.7
			c7.6,0,13.5,6.2,13.5,13.5v86.4c8.5,1.5,16.8,5.3,23.5,12.1c2.9,2.9,5.6,6.5,7.3,10h0.9V154.4c0-25-20.3-45.3-45.6-45.3H176.6
			c-25,0-45.6,20.3-45.6,45.3v203.1c0,25,20.3,45.3,45.6,45.3H280C273.3,393.4,270.6,382,272.4,371.1z M201.5,163.3
			c-8.8,0-15.9,7.1-15.9,15.9s7.1,15.9,15.9,15.9h81.7c8.8,0,15.9-7.1,15.9-15.9s-7.1-15.9-15.9-15.9H201.5z M299.1,237.9
			c0-8.8-7.1-15.9-15.9-15.9h-81.7c-8.8,0-15.9,7.1-15.9,15.9c0,8.8,7.1,15.9,15.9,15.9h81.7l0,0c0.3-0.3,0.6-0.6,0.9-1.2
			c4.1-4.1,8.8-7.1,13.8-9.1C298.8,241.7,299.1,240,299.1,237.9z M374.4,314.3c-0.9-0.9-1.8-1.5-2.6-2.1l0.3-0.3l-43.8-43.5
			c-7.6-7.6-20-7.6-27.6,0s-7.6,20,0,27.3l34.7,34.4l-35,34.7c-7.6,7.6-7.6,20,0,27.6c7.6,7.6,20,7.6,27.6,0L372,349l-0.3-0.3
			c0.9-0.6,1.8-1.5,2.6-2.4C383.2,337.6,383.2,323.2,374.4,314.3z"/>
	</g>
</g>
</svg>
