<svg version="1.1" id="NET" xmlns="http://www.w3.org/2000/svg" xmlns:xlink="http://www.w3.org/1999/xlink" x="0px" y="0px"
	 viewBox="0 0 512 512" xml:space="preserve">
<style type="text/css">
	.st1{fill:#2865E0;}
</style>

<g id="light">
	<g>
		<path class="st1" d="M304.2,342.8c0,6.8-5.3,12.1-12.1,12.1H174.7c-6.8,0-12.1-5.3-12.1-12.1V161.6c0-6.8,5.3-12.1,12.1-12.1
			h117.4c6.8,0,12.1,5.3,12.1,12.1V210l28.3-28.3v-20.1c0-22.1-18-40.4-40.4-40.4H174.7c-22.4,0-40.4,18-40.4,40.4v181.2
			c0,22.1,18,40.4,40.4,40.4h117.4c22.4,0,40.4-18,40.4-40.4v-36.3c-4.4,3.2-12.7,8-28.3,11.2C304.2,317.7,304.2,342.8,304.2,342.8z
			 M442.6,134.5c-9.4-9.4-24.8-9.4-34.2,0L303.1,239.2l34.2,34.2l105.4-104.8C452.1,159.3,452.1,143.9,442.6,134.5z M280.9,261.4
			l-13.6,47.5l47.8-13.3l10.6-10.6l-34.2-34.2L280.9,261.4z M201,302.4c-7.7,0-14.2,6.2-14.2,14.2c0,7.7,6.2,14.2,14.2,14.2h36.3
			c7.7,0,14.2-6.2,14.2-14.2c0-7.7-6.2-14.2-14.2-14.2H201z"/>
	</g>
</g>
</svg>
