<svg version="1.1" id="NET" xmlns="http://www.w3.org/2000/svg" xmlns:xlink="http://www.w3.org/1999/xlink" x="0px" y="0px"
	 viewBox="0 0 512 512" xml:space="preserve">
<style type="text/css">
	.st1{fill:#2865E0;}
</style>

<g id="GroupDocs.Editor">
	<g>
		<path class="st1" d="M160.1,166.7c0-7.4,1.5-14.9,3.9-21.4h-51.2c-18.2,0-33.1,15.2-33.1,34v152.2c0,18.8,14.9,33.7,33.1,33.7
			h50.6c-2.1-6.3-3.3-12.8-3.3-19.7v-4.2h-47.4c-5.4,0-9.8-4.5-9.8-10.1V178.9c0-5.7,4.5-10.1,9.8-10.1h47.4V166.7z M119.3,282.2
			c0,6.6,5.1,11.9,11.6,11.9h29.2v-23.5H131C124.4,270.3,119.3,275.7,119.3,282.2z M160.1,229.8H131c-6.3,0-11.6,5.4-11.6,11.9
			c0,6.6,5.1,11.9,11.6,11.9h29.2V229.8z M160.1,185.7H131c-6.3,0-11.6,5.4-11.6,11.9s5.1,11.9,11.6,11.9h29.2V185.7z M425.8,163.1
			c-8.6-8.3-22.9-8.3-31.6,0l-96.8,93.5L329,287l96.8-93.5C434.4,185.1,434.4,171.4,425.8,163.1z M330.8,185.4
			c0-8-6.6-14.6-14.6-14.6h-75c-8,0-14.6,6.6-14.6,14.6c0,8,6.6,14.6,14.6,14.6h75C324.2,200,330.8,193.5,330.8,185.4z M351.6,349.5
			c0,6.8-5.7,12.5-12.5,12.5H218.5c-6.8,0-12.5-5.7-12.5-12.5v-187c0-6.8,5.7-12.5,12.5-12.5h120.6c6.8,0,12.5,5.7,12.5,12.5v8.6
			l27.4-20.8c-5.4-17-21.1-29.5-39.9-29.5H218.5c-22.9,0-41.7,18.5-41.7,41.7v187c0,22.9,18.8,41.7,41.7,41.7h120.6
			c22.9,0,41.7-18.5,41.7-41.7v-66.4c-7.4,6.3-17.3,12.8-29.2,15.8L351.6,349.5L351.6,349.5z M308.8,306.9l9.8-9.5L287,267l-9.8,9.5
			l-12.5,42.3L308.8,306.9z"/>
	</g>
</g>
</svg>
