<svg version="1.1" id="NET" xmlns="http://www.w3.org/2000/svg" xmlns:xlink="http://www.w3.org/1999/xlink" x="0px" y="0px"
	 viewBox="0 0 512 512" xml:space="preserve">
<style type="text/css">
	.st1{fill:#2865E0;}
</style>

<g id="Merge">
	<g>
		<path class="st1" d="M275.9,362.5H155.2c-6.9,0-12.5-5.7-12.5-12.5V162.6c0-6.9,5.7-12.5,12.5-12.5h121c1.8,0,3.6,0.6,5.4,1.2
			h34.7c-4.8-17.6-20.9-30.5-40-30.5h-121c-23,0-41.8,18.5-41.8,41.5v187.3c0,23,18.5,41.5,41.8,41.5h121
			c19.7,0,35.9-13.4,40.3-31.7h-32.9C281.5,361.6,278.9,362.5,275.9,362.5z M356.8,167.7h-80.4c-23,0-41.8,18.5-41.8,41.5v0.3h29.3
			v-0.3c0-6.9,5.7-12.5,12.5-12.5h80.4c6.9,0,12.5,5.7,12.5,12.5V304c0,6.9-5.7,12.5-12.5,12.5h-80.4c-6.9,0-12.5-5.7-12.5-12.5
			v-30.5h-29.3v2.1h-56.8c-8.1,0-14.6,6.6-14.6,14.6c0,8.1,6.6,14.6,14.6,14.6h57.1c0.3,22.7,18.8,40.9,41.5,40.9h80.4
			c23,0,41.8-18.5,41.8-41.5v-94.7C398.7,186.2,380.2,167.7,356.8,167.7z M177.9,254.4h156c8.1,0,14.6-6.6,14.6-14.6
			s-6.6-14.6-14.6-14.6h-156c-8.1,0-14.6,6.6-14.6,14.6C163.5,248.1,169.8,254.4,177.9,254.4z"/>
	</g>
</g>
</svg>
