<?xml version="1.0" encoding="utf-8"?>
<!-- Generator: Adobe Illustrator 25.2.0, SVG Export Plug-In . SVG Version: 6.00 Build 0)  -->
<svg version="1.1" id="NET" xmlns="http://www.w3.org/2000/svg" xmlns:xlink="http://www.w3.org/1999/xlink" x="0px" y="0px"
	 viewBox="0 0 512 512" style="enable-background:new 0 0 512 512;" xml:space="preserve">
<style type="text/css">
	.st0{fill:#FFFFFF;}
	.st1{fill:#EF4047;}
</style>
<g id="App">
	<g id="NET-BG">
		<circle class="st0" cx="256" cy="256.1" r="242.7"/>
		<path class="st1" d="M256,20.9c129.6,0,235.2,105.4,235.2,235.2s-105.6,235-235.2,235S20.8,385.7,20.8,255.9S126.1,20.9,256,20.9
			 M256,6C118.1,6,6.1,117.9,6.1,255.9S117.8,506,256,506s249.9-111.9,249.9-249.9S393.9,6,256,6L256,6z"/>
	</g>
</g>
<g id="Redaction">
	<g>
		<path class="st1" d="M292.9,180.8c0-4.5-3.6-8-8-8h-104c-4.5,0-8,3.6-8,8v14.3c0,4.5,3.6,8,8,8h104.3c4.5,0,8-3.6,8-8v-14.3H292.9
			z M255.7,298.8l-39.5,38.9h57.1l11-9.8l-13.1-13.7l-1.8,2.1l-4.5-4.5l1.8-2.1L255.7,298.8z M301.2,349.6c0,6.8-5.3,12.5-12.2,12.5
			H172.5c-6.5,0-12.2-5.6-12.2-12.5V162.4c0-6.8,5.3-12.5,12.2-12.5H289c6.5,0,11.9,5.3,11.9,12.2h28.2
			c-0.3-22.9-18.1-41.3-40.1-41.3H172.5c-22.3,0-40.1,18.7-40.1,41.6v187.2c0,22.9,18.1,41.6,40.1,41.6H289
			c22.3,0,40.1-18.7,40.1-41.6v-5.3h-28.2v5.3L301.2,349.6L301.2,349.6z M172.8,241.4c0,8.3,6.5,15.2,14.6,15.2h75.5l28.5-30.3h-104
			C179.4,226.3,172.8,233.1,172.8,241.4z M410,166.3c-10.1-10.4-26.7-10.4-36.8,0L255.4,292l14.3,14.6l63.9-65.7
			c-2.1-3-3.6-6.8-3.6-10.7c0-9.8,7.7-17.8,17.5-17.8c3.9,0,7.4,1.5,10.4,3.6l33.3-34.2l4.5,4.5l-33.6,34.5c1.8,2.7,2.7,5.9,2.7,9.5
			c0,9.8-7.7,17.8-17.2,17.8c-3.3,0-6.5-0.9-9.2-2.7l-63.9,66l18.4,18.7l117.4-125.7C420.1,193.9,420.1,176.7,410,166.3z
			 M347.6,241.7c6.2,0,11-5.1,11-11.3s-5.1-11.3-11-11.3c-6.2,0-11,5.1-11,11.3C336.6,236.7,341.3,241.7,347.6,241.7z"/>
	</g>
</g>
</svg>
