<svg class="svg-sprite" viewBox="0 0 32 32" xmlns="http://www.w3.org/2000/svg" xmlns:xlink="http://www.w3.org/1999/xlink"><style>:root>svg{display:none}:root>svg:target{display:block}</style>
<svg  id="hint_info" viewBox="0 0 20 20" fill="none" xmlns="http://www.w3.org/2000/svg">
<path d="M10 9C9.73479 9 9.48043 9.10536 9.2929 9.29289C9.10536 9.48043 9 9.73478 9 10V14C9 14.2652 9.10536 14.5196 9.2929 14.7071C9.48043 14.8946 9.73479 15 10 15C10.2652 15 10.5196 14.8946 10.7071 14.7071C10.8946 14.5196 11 14.2652 11 14V10C11 9.73478 10.8946 9.48043 10.7071 9.29289C10.5196 9.10536 10.2652 9 10 9ZM10.38 5.08C10.1365 4.97998 9.86347 4.97998 9.62 5.08C9.49725 5.12759 9.38511 5.19896 9.29 5.29C9.20167 5.3872 9.13065 5.49881 9.08 5.62C9.02402 5.73868 8.99662 5.86882 9 6C8.99924 6.13161 9.02447 6.26207 9.07423 6.38391C9.124 6.50574 9.19732 6.61656 9.29 6.71C9.38721 6.79833 9.49882 6.86936 9.62 6.92C9.7715 6.98224 9.93597 7.00632 10.099 6.99011C10.2619 6.97391 10.4184 6.91792 10.5547 6.82707C10.691 6.73622 10.8029 6.61328 10.8805 6.46907C10.9582 6.32486 10.9992 6.16378 11 6C10.9963 5.73523 10.8927 5.48163 10.71 5.29C10.6149 5.19896 10.5028 5.12759 10.38 5.08ZM10 0C8.02219 0 6.08879 0.58649 4.4443 1.6853C2.79981 2.78412 1.51809 4.3459 0.761209 6.17317C0.00433284 8.00043 -0.193701 10.0111 0.192152 11.9509C0.578004 13.8907 1.53041 15.6725 2.92894 17.0711C4.32746 18.4696 6.10929 19.422 8.0491 19.8079C9.98891 20.1937 11.9996 19.9957 13.8268 19.2388C15.6541 18.4819 17.2159 17.2002 18.3147 15.5557C19.4135 13.9112 20 11.9778 20 10C20 8.68678 19.7413 7.38642 19.2388 6.17317C18.7363 4.95991 17.9997 3.85752 17.0711 2.92893C16.1425 2.00035 15.0401 1.26375 13.8268 0.761205C12.6136 0.258658 11.3132 0 10 0V0ZM10 18C8.41775 18 6.87104 17.5308 5.55544 16.6518C4.23985 15.7727 3.21447 14.5233 2.60897 13.0615C2.00347 11.5997 1.84504 9.99113 2.15372 8.43928C2.4624 6.88743 3.22433 5.46197 4.34315 4.34315C5.46197 3.22433 6.88743 2.4624 8.43928 2.15372C9.99113 1.84504 11.5997 2.00346 13.0615 2.60896C14.5233 3.21447 15.7727 4.23984 16.6518 5.55544C17.5308 6.87103 18 8.41775 18 10C18 12.1217 17.1572 14.1566 15.6569 15.6569C14.1566 17.1571 12.1217 18 10 18V18Z" fill="#197AFF"/>
</svg>
<svg  id="hint_warning" viewBox="0 0 22 20" fill="none" xmlns="http://www.w3.org/2000/svg">
<path d="M21.5601 15.3L13.8901 2.58C13.58 2.09481 13.1527 1.69552 12.6476 1.41894C12.1425 1.14235 11.5759 0.997375 11.0001 0.997375C10.4243 0.997375 9.85769 1.14235 9.35262 1.41894C8.84755 1.69552 8.42024 2.09481 8.1101 2.58L0.4401 15.3C0.169154 15.7517 0.021889 16.2667 0.013112 16.7933C0.00433502 17.3199 0.134355 17.8396 0.3901 18.3C0.685779 18.8183 1.11376 19.2487 1.6303 19.5474C2.14684 19.8461 2.73343 20.0023 3.3301 20H18.6701C19.2629 20.0063 19.8468 19.8562 20.363 19.5647C20.8792 19.2733 21.3093 18.8508 21.6101 18.34C21.8734 17.8748 22.0075 17.3477 21.9987 16.8132C21.9899 16.2787 21.8385 15.7563 21.5601 15.3ZM19.8601 17.35C19.7399 17.5566 19.5655 17.7264 19.3557 17.8409C19.146 17.9555 18.9089 18.0105 18.6701 18H3.3301C3.09132 18.0105 2.85422 17.9555 2.64446 17.8409C2.4347 17.7264 2.26029 17.5566 2.1401 17.35C2.05233 17.198 2.00613 17.0255 2.00613 16.85C2.00613 16.6745 2.05233 16.502 2.1401 16.35L9.8201 3.62C9.9581 3.4377 10.1365 3.28986 10.3412 3.18807C10.5459 3.08628 10.7715 3.03331 11.0001 3.03331C11.2287 3.03331 11.4543 3.08628 11.659 3.18807C11.8637 3.28986 12.0421 3.4377 12.1801 3.62L19.8501 16.34C19.9413 16.4923 19.9902 16.6661 19.992 16.8436C19.9937 17.0211 19.9482 17.1959 19.8601 17.35Z" fill="#FAB431"/>
<path d="M11 16C11.5523 16 12 15.5523 12 15C12 14.4477 11.5523 14 11 14C10.4477 14 10 14.4477 10 15C10 15.5523 10.4477 16 11 16Z" fill="#FAB431"/>
<path d="M11 7C10.7348 7 10.4804 7.10536 10.2929 7.29289C10.1054 7.48043 10 7.73478 10 8V12C10 12.2652 10.1054 12.5196 10.2929 12.7071C10.4804 12.8946 10.7348 13 11 13C11.2652 13 11.5196 12.8946 11.7071 12.7071C11.8946 12.5196 12 12.2652 12 12V8C12 7.73478 11.8946 7.48043 11.7071 7.29289C11.5196 7.10536 11.2652 7 11 7Z" fill="#FAB431"/>
</svg>

<svg id="hint_danger" viewBox="0 0 24 24" fill="none" xmlns="http://www.w3.org/2000/svg">
<path d="M12 22.5C17.799 22.5 22.5 17.799 22.5 12C22.5 6.20101 17.799 1.5 12 1.5C6.20101 1.5 1.5 6.20101 1.5 12C1.5 17.799 6.20101 22.5 12 22.5Z" stroke="#FA3D31" stroke-width="2.625" stroke-linecap="round" stroke-linejoin="round"/>
<path d="M12 6.75V12.4375" stroke="#FA3D31" stroke-width="2.625" stroke-linecap="round" stroke-linejoin="round"/>
<path d="M12 18.5625C12.9665 18.5625 13.75 17.779 13.75 16.8125C13.75 15.846 12.9665 15.0625 12 15.0625C11.0335 15.0625 10.25 15.846 10.25 16.8125C10.25 17.779 11.0335 18.5625 12 18.5625Z" fill="#FA3D31"/>
</svg>


<svg id="hint_tip" viewBox="0 0 16 23" fill="none" xmlns="http://www.w3.org/2000/svg">
<path d="M13.0899 2.82001C12.1702 2.06359 11.0933 1.52204 9.9376 1.23485C8.78194 0.947666 7.57674 0.922096 6.40994 1.16001C4.85632 1.47383 3.43093 2.24208 2.31462 3.36729C1.19832 4.49249 0.441414 5.92394 0.139942 7.48001C-0.0802115 8.64673 -0.0402063 9.84766 0.257104 10.9971C0.554414 12.1466 1.1017 13.2163 1.85994 14.13C2.56363 14.9241 2.96698 15.9395 2.99994 17V20C2.99994 20.7957 3.31601 21.5587 3.87862 22.1213C4.44123 22.6839 5.20429 23 5.99994 23H9.99994C10.7956 23 11.5587 22.6839 12.1213 22.1213C12.6839 21.5587 12.9999 20.7957 12.9999 20V17.19C13.0335 16.0192 13.4637 14.8944 14.2199 14C15.5451 12.3608 16.1697 10.2648 15.9581 8.16763C15.7465 6.07044 14.7158 4.14149 13.0899 2.80001V2.82001ZM10.9999 20C10.9999 20.2652 10.8946 20.5196 10.707 20.7071C10.5195 20.8947 10.2652 21 9.99994 21H5.99994C5.73473 21 5.48037 20.8947 5.29284 20.7071C5.1053 20.5196 4.99994 20.2652 4.99994 20V19H10.9999V20ZM12.6699 12.76C11.6644 13.9526 11.0778 15.442 10.9999 17H8.99994V14C8.99994 13.7348 8.89458 13.4804 8.70705 13.2929C8.51951 13.1054 8.26516 13 7.99994 13C7.73473 13 7.48037 13.1054 7.29284 13.2929C7.1053 13.4804 6.99994 13.7348 6.99994 14V17H4.99994C4.97356 15.4681 4.40689 13.9948 3.39994 12.84C2.73558 12.044 2.28883 11.0894 2.10325 10.0694C1.91767 9.04928 1.99959 7.99852 2.34103 7.01954C2.68247 6.04055 3.27176 5.16675 4.05146 4.48333C4.83116 3.79992 5.77465 3.33021 6.78994 3.12001C7.66249 2.94035 8.5641 2.95725 9.42931 3.16948C10.2945 3.3817 11.1016 3.78393 11.792 4.34696C12.4824 4.90999 13.0387 5.61969 13.4206 6.42453C13.8025 7.22937 14.0004 8.10915 13.9999 9.00001C14.0073 10.3699 13.537 11.6995 12.6699 12.76Z" fill="#24D036"/>
</svg>


<svg id="search"  viewBox="0 0 18 17"  xmlns="http://www.w3.org/2000/svg">
<path d="M15.677 16.6069L9.96198 10.8909C7.41965 12.6984 3.91642 12.2562 1.90285 9.87383C-0.110711 7.49141 0.0371394 3.96349 2.24298 1.7579C4.44824 -0.448656 7.97651 -0.597146 10.3594 1.41631C12.7422 3.42977 13.1846 6.93334 11.377 9.4759L17.092 15.1919L15.678 16.6059L15.677 16.6069ZM6.48498 1.99988C4.58868 1.99946 2.95267 3.33057 2.56745 5.18733C2.18224 7.04409 3.15369 8.91617 4.89366 9.67014C6.63362 10.4241 8.66388 9.85273 9.75522 8.30195C10.8466 6.75117 10.699 4.64721 9.40198 3.2639L10.007 3.8639L9.32498 3.1839L9.31298 3.1719C8.56477 2.41907 7.54637 1.99702 6.48498 1.99988Z" />
</svg>

<svg  id="search_control" viewBox="0 0 18 18"  xmlns="http://www.w3.org/2000/svg">
<path d="M2.45148 11.9888C3.61237 13.1513 5.1583 13.8492 6.79805 13.951C8.4378 14.0527 10.0582 13.5513 11.3539 12.5413L15.8122 16.9996C15.9703 17.1523 16.1821 17.2368 16.4019 17.2349C16.6217 17.233 16.832 17.1448 16.9874 16.9894C17.1428 16.834 17.231 16.6237 17.2329 16.4039C17.2348 16.1841 17.1503 15.9723 16.9976 15.8142L12.5393 11.3559C13.5942 10.0021 14.0929 8.29685 13.9338 6.58799C13.7746 4.87912 12.9696 3.29532 11.6829 2.15959C10.3962 1.02385 8.72468 0.421737 7.00928 0.476033C5.29388 0.530329 3.6638 1.23695 2.45148 2.45178C1.82507 3.07788 1.32815 3.82126 0.989117 4.63946C0.650086 5.45766 0.475586 6.33464 0.475586 7.22029C0.475586 8.10595 0.650086 8.98293 0.989117 9.80113C1.32815 10.6193 1.82507 11.3627 2.45148 11.9888ZM3.6369 3.63888C4.46567 2.81013 5.55614 2.29438 6.72254 2.17948C7.88893 2.06459 9.05908 2.35768 10.0336 3.0088C11.0082 3.65992 11.7268 4.6288 12.0671 5.75035C12.4073 6.87191 12.3482 8.07675 11.8998 9.15961C11.4513 10.2425 10.6413 11.1363 9.60771 11.6889C8.57411 12.2415 7.38089 12.4186 6.23135 12.1901C5.0818 11.9616 4.04706 11.3415 3.3034 10.4356C2.55975 9.52973 2.1532 8.39401 2.15303 7.22197C2.15073 6.55597 2.28071 5.89614 2.53544 5.28076C2.79016 4.66539 3.16456 4.10673 3.6369 3.6372V3.63888Z" />
</svg>


<svg id="search_close" viewBox="0 0 15 15"  xmlns="http://www.w3.org/2000/svg">
<path d="M1.06541 12.7496L6.34112 7.47391L1.06541 2.19819C0.912701 2.04008 0.8282 1.82831 0.83011 1.6085C0.83202 1.38869 0.920188 1.17842 1.07562 1.02299C1.23106 0.867549 1.44133 0.779381 1.66114 0.777471C1.88095 0.775561 2.09272 0.860062 2.25083 1.01277L7.52654 6.28848L12.8023 1.01277C12.8796 0.932703 12.9721 0.868835 13.0744 0.824899C13.1767 0.780962 13.2867 0.757835 13.398 0.756868C13.5093 0.7559 13.6197 0.777112 13.7227 0.819264C13.8257 0.861417 13.9194 0.923667 13.9981 1.00238C14.0768 1.0811 14.139 1.1747 14.1812 1.27773C14.2233 1.38076 14.2445 1.49115 14.2436 1.60247C14.2426 1.71378 14.2195 1.82379 14.1755 1.92607C14.1316 2.02835 14.0677 2.12086 13.9877 2.19819L8.71196 7.47391L13.9877 12.7496C14.0677 12.827 14.1316 12.9195 14.1755 13.0217C14.2195 13.124 14.2426 13.234 14.2436 13.3453C14.2445 13.4567 14.2233 13.5671 14.1812 13.6701C14.139 13.7731 14.0768 13.8667 13.9981 13.9454C13.9194 14.0241 13.8257 14.0864 13.7227 14.1285C13.6197 14.1707 13.5093 14.1919 13.398 14.1909C13.2867 14.19 13.1767 14.1668 13.0744 14.1229C12.9721 14.079 12.8796 14.0151 12.8023 13.935L7.52654 8.65933L2.25083 13.935C2.09272 14.0878 1.88095 14.1723 1.66114 14.1703C1.44133 14.1684 1.23106 14.0803 1.07562 13.9248C0.920188 13.7694 0.83202 13.5591 0.83011 13.3393C0.8282 13.1195 0.912701 12.9077 1.06541 12.7496Z" />
</svg>

<svg id="theme_dark" viewBox="0 0 14 14"  xmlns="http://www.w3.org/2000/svg">
<path d="M0.0252132 8.46822C0.0472536 8.39666 0.0831852 8.33014 0.130953 8.27248C0.17872 8.21481 0.237387 8.16713 0.303597 8.13216C0.369808 8.09719 0.442264 8.07561 0.51682 8.06866C0.591376 8.06171 0.666571 8.06953 0.738103 8.09167C1.75733 8.37181 2.83259 8.37689 3.85442 8.10639C4.87625 7.83588 5.80816 7.29944 6.55527 6.55169C7.30239 5.80395 7.83803 4.87158 8.10767 3.84953C8.37731 2.82747 8.37131 1.75221 8.0903 0.733223C8.06076 0.634696 8.05846 0.53001 8.08362 0.430277C8.10879 0.330544 8.16049 0.239487 8.23324 0.166768C8.30598 0.0940505 8.39706 0.0423859 8.4968 0.0172588C8.59655 -0.00786829 8.70123 -0.00552046 8.79975 0.0240533C9.99692 0.35923 11.0855 1.00204 11.9571 1.88852C12.8287 2.775 13.453 3.87426 13.7679 5.07693C14.0827 6.27959 14.0772 7.54375 13.7518 8.74362C13.4265 9.94349 12.7926 11.0372 11.9132 11.9161C11.0339 12.7949 9.9398 13.4282 8.73975 13.7529C7.53969 14.0776 6.27553 14.0824 5.07304 13.7668C3.87055 13.4513 2.77164 12.8264 1.88565 11.9543C0.999655 11.0822 0.35746 9.99326 0.0229559 8.7959C-0.00840282 8.68881 -0.00761795 8.57487 0.0252132 8.46822Z" />
</svg>

<svg id="theme_light" viewBox="0 0 15 14"  xmlns="http://www.w3.org/2000/svg">
<path d="M7.5 10.9177C9.67462 10.9177 11.4375 9.15485 11.4375 6.98022C11.4375 4.8056 9.67462 3.04272 7.5 3.04272C5.32538 3.04272 3.5625 4.8056 3.5625 6.98022C3.5625 9.15485 5.32538 10.9177 7.5 10.9177Z" />
<path d="M8.15625 1.79104V0.855225C8.15625 0.681176 8.08711 0.514257 7.96404 0.391186C7.84097 0.268115 7.67405 0.198975 7.5 0.198975C7.32595 0.198975 7.15903 0.268115 7.03596 0.391186C6.91289 0.514257 6.84375 0.681176 6.84375 0.855225V1.79104C6.84375 1.96509 6.91289 2.13201 7.03596 2.25508C7.15903 2.37815 7.32595 2.44729 7.5 2.44729C7.67405 2.44729 7.84097 2.37815 7.96404 2.25508C8.08711 2.13201 8.15625 1.96509 8.15625 1.79104V1.79104ZM4.29487 3.77466C4.4179 3.6516 4.48702 3.48471 4.48702 3.31069C4.48702 3.13668 4.4179 2.96979 4.29487 2.84672L3.6325 2.18522C3.57221 2.12151 3.49976 2.07054 3.41943 2.0353C3.3391 2.00007 3.25252 1.9813 3.16481 1.9801C3.07711 1.97891 2.99005 1.9953 2.90879 2.02832C2.82752 2.06135 2.75371 2.11032 2.6917 2.17236C2.62969 2.2344 2.58074 2.30824 2.54776 2.38952C2.51477 2.4708 2.49842 2.55787 2.49966 2.64557C2.5009 2.73328 2.51971 2.81985 2.55498 2.90016C2.59025 2.98047 2.64126 3.0529 2.705 3.11316L3.3665 3.77466C3.42739 3.83575 3.49973 3.88422 3.57938 3.91729C3.65904 3.95036 3.74444 3.96739 3.83069 3.96739C3.91694 3.96739 4.00234 3.95036 4.08199 3.91729C4.16165 3.88422 4.23399 3.83575 4.29487 3.77466ZM1.375 7.63647H2.31038C2.48442 7.63647 2.65134 7.56733 2.77441 7.44426C2.89748 7.32119 2.96663 7.15427 2.96663 6.98022C2.96663 6.80618 2.89748 6.63926 2.77441 6.51619C2.65134 6.39311 2.48442 6.32397 2.31038 6.32397H1.375C1.20095 6.32397 1.03403 6.39311 0.910961 6.51619C0.78789 6.63926 0.71875 6.80618 0.71875 6.98022C0.71875 7.15427 0.78789 7.32119 0.910961 7.44426C1.03403 7.56733 1.20095 7.63647 1.375 7.63647V7.63647ZM2.705 11.7752C2.76582 11.8364 2.83812 11.8849 2.91774 11.918C2.99736 11.9511 3.08274 11.9681 3.16897 11.9681C3.2552 11.9681 3.34058 11.9511 3.4202 11.918C3.49982 11.8849 3.57212 11.8364 3.63294 11.7752L4.29444 11.1137C4.35891 11.0536 4.41063 10.9812 4.4465 10.9007C4.48236 10.8202 4.50165 10.7333 4.5032 10.6452C4.50476 10.5571 4.48855 10.4695 4.45554 10.3878C4.42254 10.3061 4.37341 10.2319 4.3111 10.1696C4.24878 10.1072 4.17455 10.0581 4.09284 10.0251C4.01112 9.99211 3.9236 9.9759 3.83548 9.97746C3.74737 9.97901 3.66047 9.9983 3.57997 10.0342C3.49947 10.07 3.42702 10.1217 3.36694 10.1862L2.705 10.8468C2.64402 10.9078 2.59564 10.9802 2.56263 11.0598C2.52963 11.1395 2.51264 11.2248 2.51264 11.311C2.51264 11.3973 2.52963 11.4826 2.56263 11.5623C2.59564 11.6419 2.64402 11.7143 2.705 11.7752V11.7752ZM6.84375 12.1694V13.1052C6.84375 13.2793 6.91289 13.4462 7.03596 13.5693C7.15903 13.6923 7.32595 13.7615 7.5 13.7615C7.67405 13.7615 7.84097 13.6923 7.96404 13.5693C8.08711 13.4462 8.15625 13.2793 8.15625 13.1052V12.1694C8.15625 11.9954 8.08711 11.8284 7.96404 11.7054C7.84097 11.5823 7.67405 11.5132 7.5 11.5132C7.32595 11.5132 7.15903 11.5823 7.03596 11.7054C6.91289 11.8284 6.84375 11.9954 6.84375 12.1694V12.1694ZM11.3671 11.7752C11.4279 11.8364 11.5002 11.8849 11.5798 11.918C11.6594 11.9511 11.7448 11.9681 11.831 11.9681C11.9173 11.9681 12.0026 11.9511 12.0823 11.918C12.1619 11.8849 12.2342 11.8364 12.295 11.7752C12.418 11.6522 12.4871 11.4853 12.4871 11.3113C12.4871 11.1372 12.418 10.9704 12.295 10.8473L11.6335 10.1858C11.5732 10.1221 11.5008 10.0711 11.4204 10.0359C11.3401 10.0006 11.2535 9.98187 11.1658 9.98067C11.0781 9.97947 10.991 9.99586 10.9098 10.0289C10.8285 10.0619 10.7547 10.1109 10.6927 10.1729C10.6307 10.235 10.5817 10.3088 10.5488 10.3901C10.5158 10.4714 10.4994 10.5584 10.5007 10.6461C10.5019 10.7338 10.5207 10.8204 10.556 10.9007C10.5912 10.981 10.6423 11.0535 10.706 11.1137L11.3666 11.7752H11.3671ZM13.625 6.32397H12.6892C12.5151 6.32397 12.3482 6.39311 12.2251 6.51619C12.1021 6.63926 12.0329 6.80618 12.0329 6.98022C12.0329 7.15427 12.1021 7.32119 12.2251 7.44426C12.3482 7.56733 12.5151 7.63647 12.6892 7.63647H13.625C13.799 7.63647 13.966 7.56733 14.089 7.44426C14.2121 7.32119 14.2812 7.15427 14.2812 6.98022C14.2812 6.80618 14.2121 6.63926 14.089 6.51619C13.966 6.39311 13.799 6.32397 13.625 6.32397ZM12.295 2.18522C12.1719 2.0622 12.005 1.99308 11.831 1.99308C11.657 1.99308 11.4901 2.0622 11.3671 2.18522L10.7056 2.84672C10.6419 2.90702 10.5909 2.97947 10.5556 3.0598C10.5204 3.14013 10.5016 3.2267 10.5004 3.31441C10.4992 3.40212 10.5156 3.48918 10.5487 3.57044C10.5817 3.6517 10.6307 3.72552 10.6927 3.78753C10.7547 3.84954 10.8286 3.89848 10.9099 3.93147C10.9911 3.96445 11.0782 3.98081 11.1659 3.97957C11.2536 3.97833 11.3402 3.95951 11.4205 3.92425C11.5008 3.88898 11.5732 3.83796 11.6335 3.77422L12.295 3.1136C12.356 3.05266 12.4044 2.98029 12.4374 2.90065C12.4704 2.821 12.4874 2.73563 12.4874 2.64941C12.4874 2.5632 12.4704 2.47783 12.4374 2.39818C12.4044 2.31853 12.356 2.24617 12.295 2.18522V2.18522Z" />

</svg>


<svg id="theme_auto" viewBox="0 0 10 11"  xmlns="http://www.w3.org/2000/svg">
<path d="M2.47497 11H0.847357L4.50453 0.83732H6.27605L9.93323 11H8.30561L5.43247 2.68328H5.35308L2.47497 11ZM2.7479 7.02028H8.02773V8.31046H2.7479V7.02028Z" />
</svg>


<svg id="arrow_up" viewBox="0 0 24 24"  xmlns="http://www.w3.org/2000/svg">
<path d="M5.22981 10.64C5.31376 10.7412 5.41686 10.8249 5.5332 10.8863C5.64955 10.9476 5.77686 10.9854 5.90784 10.9975C6.03881 11.0096 6.17089 10.9957 6.29649 10.9567C6.42209 10.9176 6.53876 10.8542 6.63981 10.77L10.9998 7.13998V19C10.9998 19.2652 11.1052 19.5195 11.2927 19.7071C11.4802 19.8946 11.7346 20 11.9998 20C12.265 20 12.5194 19.8946 12.7069 19.7071C12.8945 19.5195 12.9998 19.2652 12.9998 19V7.13998L17.3598 10.77C17.4609 10.854 17.5776 10.9173 17.7032 10.9563C17.8288 10.9952 17.9608 11.0091 18.0917 10.997C18.2227 10.9849 18.3499 10.9472 18.4663 10.8859C18.5826 10.8247 18.6858 10.7411 18.7698 10.64C18.8539 10.5389 18.9172 10.4222 18.9561 10.2966C18.9951 10.171 19.0089 10.039 18.9968 9.90805C18.9848 9.77712 18.947 9.64985 18.8858 9.53351C18.8245 9.41716 18.7409 9.31402 18.6398 9.22998L12.6398 4.22998L12.4898 4.13998L12.3598 4.06998C12.1281 3.98058 11.8715 3.98058 11.6398 4.06998L11.5098 4.13998L11.3598 4.22998L5.35981 9.22998C5.25855 9.31393 5.17485 9.41703 5.11349 9.53337C5.05214 9.64972 5.01435 9.77703 5.00227 9.90801C4.99019 10.039 5.00408 10.1711 5.04312 10.2967C5.08217 10.4223 5.14561 10.5389 5.22981 10.64Z" />
</svg>

<svg id="thumb_up" viewBox="0 0 20 20"  xmlns="http://www.w3.org/2000/svg">
<path d="M19.3 8.08004C19.019 7.74269 18.6674 7.47113 18.27 7.28452C17.8726 7.0979 17.439 7.0008 17 7.00004H12.44L13 5.57004C13.2329 4.94393 13.3105 4.27065 13.2261 3.60797C13.1416 2.94528 12.8977 2.31297 12.5152 1.76527C12.1327 1.21758 11.623 0.770841 11.0299 0.463388C10.4369 0.155934 9.77804 -0.00305943 9.11 4.45912e-05C8.91764 0.000445953 8.72948 0.0563198 8.56807 0.160967C8.40666 0.265615 8.27887 0.414594 8.2 0.590044L5.35 7.00004H3C2.20435 7.00004 1.44129 7.31611 0.87868 7.87872C0.316071 8.44133 0 9.2044 0 10V17C0 17.7957 0.316071 18.5588 0.87868 19.1214C1.44129 19.684 2.20435 20 3 20H15.73C16.4318 19.9998 17.1113 19.7535 17.6503 19.3041C18.1893 18.8546 18.5537 18.2304 18.68 17.54L19.95 10.54C20.0286 10.1074 20.011 9.66283 19.8987 9.23772C19.7864 8.81262 19.582 8.4174 19.3 8.08004ZM5 18H3C2.73478 18 2.48043 17.8947 2.29289 17.7072C2.10536 17.5196 2 17.2653 2 17V10C2 9.73483 2.10536 9.48047 2.29289 9.29294C2.48043 9.1054 2.73478 9.00004 3 9.00004H5V18ZM18 10.18L16.73 17.18C16.6874 17.413 16.5635 17.6233 16.3804 17.7734C16.1973 17.9236 15.9668 18.0039 15.73 18H7V8.21004L9.72 2.09004C9.99998 2.17167 10.26 2.31045 10.4837 2.49763C10.7073 2.6848 10.8897 2.91631 11.0194 3.17754C11.1491 3.43876 11.2232 3.72404 11.2371 4.01535C11.2509 4.30666 11.2043 4.59768 11.1 4.87004L10.57 6.30005C10.4571 6.6023 10.4189 6.92739 10.4589 7.24758C10.4988 7.56776 10.6156 7.87353 10.7993 8.13878C10.983 8.40404 11.2282 8.62091 11.5139 8.77088C11.7996 8.92086 12.1173 8.99948 12.44 9.00004H17C17.1469 8.99981 17.2921 9.03194 17.4252 9.09416C17.5582 9.15638 17.676 9.24716 17.77 9.36004C17.8663 9.47137 17.9369 9.60259 17.9767 9.74434C18.0164 9.88608 18.0244 10.0349 18 10.18Z" />
</svg>

 
<!-- apps  -->
<svg id="total" viewBox="0 0 43 43" fill="none" xmlns="http://www.w3.org/2000/svg">
<path fill-rule="evenodd" clip-rule="evenodd" d="M21.7432 19.5617C23.6714 19.5231 25.5061 18.7183 26.8468 17.323C28.1876 15.9278 28.9254 14.0554 28.8993 12.1146C28.8993 7.99909 25.6863 4.66748 21.7432 4.66748C17.8 4.66748 14.4897 7.99909 14.4897 12.1146C14.4768 13.0879 14.6561 14.0541 15.0173 14.9571C15.3785 15.8601 15.9143 16.6818 16.5937 17.3747C17.273 18.0675 18.0824 18.6176 18.9747 18.9931C19.8671 19.3685 20.8247 19.5618 21.7918 19.5617H21.7432ZM28.7046 17.553C29.4835 17.9449 30.4084 18.1409 31.3334 18.1409C34.7411 18.1409 37.5646 15.2012 37.5646 11.6737C37.5839 10.8331 37.4378 9.99706 37.1345 9.21367C36.8312 8.43028 36.3768 7.71507 35.7976 7.10929C35.2183 6.50351 34.5256 6.01916 33.7594 5.68415C32.9932 5.34915 32.1687 5.17013 31.3334 5.15742C30.161 5.16915 29.015 5.50839 28.023 6.13731C29.5321 7.61101 30.4389 9.59956 30.565 11.712C30.6911 13.8245 30.0275 15.908 28.7046 17.553ZM11.9095 18.1409C12.8832 18.1409 13.7594 17.9449 14.587 17.553C13.2534 15.9126 12.5829 13.8267 12.7092 11.711C12.8355 9.59526 13.7493 7.60515 15.2686 6.13731C14.2949 5.50038 13.1266 5.10843 11.8609 5.10843C11.0255 5.12743 10.2022 5.31273 9.43833 5.65364C8.6745 5.99455 7.98531 6.48431 7.41053 7.09468C6.83575 7.70504 6.38675 8.42392 6.08945 9.20983C5.79215 9.99573 5.65243 10.8331 5.67835 11.6737C5.66548 12.5142 5.81805 13.3489 6.12728 14.1298C6.43651 14.9107 6.89627 15.6223 7.48005 16.2235C8.06384 16.8247 8.7601 17.3037 9.52869 17.6327C10.2973 17.9618 11.123 18.1345 11.9582 18.1409H11.9095ZM9.62153 20.5416C7.28483 20.5416 6.11648 18.5818 6.11648 18.5818C4.16923 18.5818 3.29297 20.1986 3.29297 22.1584V29.7525C3.29297 31.4183 6.21384 32.8881 9.81626 33.77V23.5792C9.81626 21.7665 11.1793 20.2966 12.9319 20.0517C11.9582 20.1986 10.2544 20.5416 9.62153 20.5416ZM27.9257 21.2275C27.9257 21.2275 26.0271 23.1383 23.6904 23.1383C22.9602 23.1383 22.376 21.9134 21.5971 21.9134C20.3801 21.9134 20.088 23.1383 19.017 23.1383C17.3618 23.1383 15.0251 21.2275 15.0251 21.2275C13.0779 21.2275 11.5201 22.7953 11.5201 24.7551V35.1909C11.5201 39.3064 31.4794 39.4534 31.4794 35.1909V24.7551C31.4794 22.7953 29.8729 21.2275 27.9257 21.2275ZM26.9034 33.2801C24.664 33.721 18.3842 33.77 16.0961 33.2801C15.2686 33.1331 14.7817 32.9371 14.7817 32.3002C14.7817 31.7613 15.1712 31.3693 16.0961 31.6143C19.685 32.0582 23.3145 32.0582 26.9034 31.6143C28.2664 31.4673 28.3638 31.7613 28.4125 32.3492C28.4612 32.9861 27.8283 33.0841 26.9034 33.2801ZM26.9034 30.1935C24.664 30.6834 18.3842 30.6834 16.0961 30.1935C15.2686 30.0465 14.7817 29.8505 14.7817 29.2626C14.7817 28.6746 15.1712 28.2827 16.0961 28.5277C17.8487 29.0176 23.593 29.0176 26.9034 28.5277C28.2664 28.3807 28.3638 28.6746 28.4125 29.2626C28.4612 29.8995 27.8283 30.0465 26.9034 30.2424V30.1935ZM36.883 18.6308C36.883 18.6308 35.666 20.5416 33.3293 20.5416C32.6478 20.5416 30.9926 20.1496 30.019 20.0517C31.7715 20.2966 33.0859 21.7665 33.0859 23.5792V33.721C36.6883 32.8881 39.7065 31.4183 39.7065 29.7525V22.1584C39.7065 20.1986 38.8303 18.6308 36.883 18.6308Z" fill="#558FFF"/>
</svg>



<svg id="viewer" viewBox="0 0 43 43"  xmlns="http://www.w3.org/2000/svg">
    
    <path d="M21.5 12.5547C26.2109 12.5547 30.5234 14.2266 34.2969 17.5781C35.9375 19.0156 37.1094 20.5156 37.8359 21.5C37.1094 22.5234 35.8984 23.9766 34.25 25.4609C30.4844 28.7734 26.1875 30.4844 21.5 30.4844C16.9375 30.4844 12.6641 28.8125 8.86719 25.4609C7.19531 23.9766 5.92969 22.5 5.17969 21.4609C5.86719 20.4766 7.03906 18.9844 8.64063 17.5391C12.3672 14.2266 16.7031 12.5547 21.5 12.5547ZM21.5 9.89062C8.05469 9.89062 1.96875 21.5 1.96875 21.5C1.96875 21.5 8.70312 33.1094 21.5 33.1094C34.5234 33.1094 41.0312 21.5 41.0312 21.5C41.0312 21.5 34.6719 9.89062 21.5 9.89062Z" />
    <path d="M21.5 18.4531C23.1406 18.4531 24.5 19.7891 24.5 21.4531C24.5 23.0937 23.1641 24.4531 21.5 24.4531C19.8359 24.4531 18.5 23.1172 18.5 21.4531C18.5 19.8281 19.8281 18.4531 21.5 18.4531ZM21.5 14.6406C17.7266 14.6406 14.6875 17.6875 14.6875 21.4531C14.6875 25.2187 17.7344 28.2656 21.5 28.2656C25.2656 28.2656 28.3125 25.2187 28.3125 21.4531C28.3125 17.6875 25.2344 14.6406 21.5 14.6406Z" fill="#558FFF"/>
  
</svg>

  <svg id="annotation" viewBox="0 0 43 43"  xmlns="http://www.w3.org/2000/svg">
   
      <path d="M18.436 24.1326L24.3735 22.5154L25.7095 21.2185L21.4829 16.9919L20.147 18.2888L18.436 24.1326ZM33.0142 16.7029V28.2888C33.0142 29.1248 32.3579 29.781 31.522 29.781H28.0298L27.9907 34.7654L20.0142 29.781H6.9751C6.13916 29.781 5.48291 29.1248 5.48291 28.2888V13.9294C5.48291 13.0935 6.13916 12.4373 6.9751 12.4373H22.4673L25.9517 8.94507H6.99072C4.21729 8.94507 1.96729 11.1794 1.96729 13.9294V28.3279C1.96729 31.0623 4.20166 33.3123 6.99072 33.3123H19.5688L31.4751 41.2419V33.3123C34.2485 33.3123 36.4985 31.0779 36.4985 28.3279V13.9294C36.4985 13.8904 36.4985 13.8513 36.4985 13.8044L33.0142 16.7029ZM40.1548 2.62476C38.9985 1.46851 37.0845 1.46851 35.9282 2.62476L22.8814 15.5857L27.1079 19.8123L40.1548 6.90601C41.3189 5.69507 41.3189 3.79663 40.1548 2.62476ZM10.2642 23.3435C9.31104 23.3435 8.52979 24.1404 8.52979 25.0779C8.52979 26.031 9.32666 26.8123 10.2642 26.8123H14.7485C15.7017 26.8123 16.4829 26.0154 16.4829 25.0779C16.4829 24.1248 15.686 23.3435 14.7485 23.3435H10.2642Z" fill="#558FFF"/>
   
  </svg>


  <svg id="signature" viewBox="0 0 43 43"  xmlns="http://www.w3.org/2000/svg">
    <path d="M23.108 33.471C23.108 34.3734 22.4119 35.0695 21.5096 35.0695H5.99785C5.09551 35.0695 4.39941 34.3734 4.39941 33.471V9.52886C4.39941 8.62651 5.09551 7.93042 5.99785 7.93042H21.5096C22.4119 7.93042 23.108 8.62651 23.108 9.52886V15.9226L26.8463 12.1843V9.52886C26.8463 6.60698 24.4658 4.19214 21.5096 4.19214H5.99785C3.0416 4.19214 0.661133 6.57261 0.661133 9.52886V33.471C0.661133 36.3929 3.0416 38.8078 5.99785 38.8078H21.5096C24.4658 38.8078 26.8463 36.4273 26.8463 33.471V28.6757C26.2619 29.0968 25.1705 29.7328 23.108 30.1539C23.108 30.1539 23.108 33.471 23.108 33.471ZM41.3955 5.94526C40.1494 4.69917 38.1213 4.69917 36.8752 5.94526L22.9619 19.7812L27.4822 24.3015L41.4127 10.457C42.6502 9.22808 42.6502 7.19136 41.3955 5.94526ZM20.0314 22.7117L18.2354 28.9851L24.5518 27.232L25.9525 25.8312L21.4322 21.3109L20.0314 22.7117ZM9.47832 28.1343C8.46426 28.1343 7.60488 28.9507 7.60488 30.0078C7.60488 31.0218 8.42129 31.8812 9.47832 31.8812H14.2736C15.2877 31.8812 16.1471 31.0648 16.1471 30.0078C16.1471 28.9937 15.3307 28.1343 14.2736 28.1343H9.47832Z" fill="#558FFF"/>
  </svg>

  <svg id="parser" viewBox="0 0 43 43" fill="none" xmlns="http://www.w3.org/2000/svg">
    <path d="M29.7617 35.0313C29.7617 35.5313 29.5586 35.9766 29.2305 36.3203C28.9023 36.6484 28.4492 36.8516 27.9414 36.8516H10.4258C9.43359 36.8516 8.60547 36.0234 8.60547 35.0313V7.96875C8.60547 6.97656 9.43359 6.14844 10.4258 6.14844H27.9336C28.9258 6.14844 29.7539 6.97656 29.7539 7.96875V13.2266H33.9805V7.96875C33.9805 4.65625 31.293 1.96875 27.9414 1.96875H10.4258C7.06641 1.96875 4.37891 4.65625 4.37891 7.96875V35.0313C4.37891 38.3438 7.06641 41.0312 10.418 41.0312H27.9258C30.7461 41.0312 33.0977 39.0781 33.7617 36.4844C33.8789 36.0234 33.9258 35.4922 33.9258 34.9922V34.7812H29.6992V35.0313H29.7617ZM13.082 23.0391C11.9258 23.0391 10.9727 23.9844 10.9727 25.1484C10.9727 26.3125 11.918 27.2578 13.082 27.2578H19.7461C20.9023 27.2578 21.8555 26.3125 21.8555 25.1484C21.8555 23.9844 20.9102 23.0391 19.7461 23.0391H13.082ZM24.2539 18.4453C24.2539 17.2891 23.3086 16.3359 22.1445 16.3359H13.082C11.9258 16.3359 10.9727 17.2812 10.9727 18.4453C10.9727 19.6094 11.918 20.5547 13.082 20.5547H22.1523C23.3086 20.5547 24.2539 19.5937 24.2539 18.4453ZM27.4414 11.4375C27.4414 10.2812 26.4961 9.32812 25.332 9.32812H13.082C11.9258 9.32812 10.9727 10.2734 10.9727 11.4375C10.9727 12.5937 11.918 13.5469 13.082 13.5469H25.332C26.4961 13.5547 27.4414 12.6094 27.4414 11.4375ZM37.0039 17.3594C35.9258 16.4453 34.3867 16.0312 32.4961 16.0312H25.9102V30.9375H25.957C26.0742 31.8125 26.8711 32.4766 27.7773 32.4766H28.0273C28.9414 32.4766 29.7227 31.8125 29.8477 30.9375H29.9648V25.1484H32.4883C33.6445 25.1484 34.6445 24.9844 35.5195 24.6875C36.3945 24.3906 37.0117 23.9766 37.4258 23.5312C38.2539 22.5859 38.6211 21.625 38.6211 20.6328C38.6289 19.3437 38.082 18.2656 37.0039 17.3594ZM33.9414 21.8672C33.5742 22.1953 33.1133 22.3672 32.4961 22.3672H29.9727V18.7656H32.4961C33.1133 18.7656 33.5742 18.9297 33.9414 19.2656C34.3086 19.6016 34.4727 20.0469 34.4727 20.5937C34.4727 21.1484 34.3086 21.5469 33.9414 21.8672Z" fill="#558FFF"/>
  </svg>

  <svg id="assembly" viewBox="0 0 43 43" fill="none" xmlns="http://www.w3.org/2000/svg">
   
      <path d="M35.0869 11.4456H39.8594C41.5029 11.4456 42.8125 12.7727 42.8125 14.3987V30.4915C42.8125 32.135 41.4854 33.4446 39.8594 33.4446H34.9814" stroke="#558FFF" stroke-width="1.64394" stroke-miterlimit="10"/>
      <path d="M36.0625 20.9641H37.6006" stroke="#558FFF" stroke-width="1.64383" stroke-miterlimit="10" stroke-linecap="square" stroke-linejoin="bevel"/>
      <path d="M36.5195 20.9641H39.0684" stroke="#558FFF" stroke-width="1.64383" stroke-miterlimit="10" stroke-linecap="round" stroke-linejoin="bevel"/>
      <path d="M36.0625 16.1125H37.6006" stroke="#558FFF" stroke-width="1.64383" stroke-miterlimit="10" stroke-linecap="square" stroke-linejoin="bevel"/>
      <path d="M36.5195 16.1125H39.0684" stroke="#558FFF" stroke-width="1.64383" stroke-miterlimit="10" stroke-linecap="round" stroke-linejoin="bevel"/>
      <path d="M7.91211 11.4453H3.13965C1.49609 11.4453 0.186523 12.7725 0.186523 14.3984V30.4912C0.186523 32.1348 1.51367 33.4443 3.13965 33.4443H8.01758" stroke="#558FFF" stroke-width="1.64394" stroke-miterlimit="10"/>
      <path d="M6.93701 20.9641H5.39893" stroke="#558FFF" stroke-width="1.64383" stroke-miterlimit="10" stroke-linecap="square" stroke-linejoin="bevel"/>
      <path d="M6.47998 20.9641H3.93115" stroke="#558FFF" stroke-width="1.64383" stroke-miterlimit="10" stroke-linecap="round" stroke-linejoin="bevel"/>
      <path d="M6.93701 16.1123H5.39893" stroke="#558FFF" stroke-width="1.64383" stroke-miterlimit="10" stroke-linecap="square" stroke-linejoin="bevel"/>
      <path d="M6.47998 16.1123H3.93115" stroke="#558FFF" stroke-width="1.64383" stroke-miterlimit="10" stroke-linecap="round" stroke-linejoin="bevel"/>
      <path d="M31.8535 32.0205C31.8535 34.1738 30.1396 35.8965 27.9775 35.8965H14.7676C12.6143 35.8965 10.8916 34.1826 10.8916 32.0205V10.9795C10.8916 8.82617 12.6055 7.10352 14.7676 7.10352H28.0127C30.166 7.10352 31.8887 8.81738 31.8887 10.9795V32.0205H31.8535V32.0205Z" stroke="#558FFF" stroke-width="2.45641" stroke-miterlimit="10"/>
      <path d="M15.8838 13.4229H26.9404" stroke="#558FFF" stroke-width="2.45641" stroke-miterlimit="10" stroke-linecap="round" stroke-linejoin="round"/>
      <path d="M15.8838 19.5576H26.9404" stroke="#558FFF" stroke-width="2.45641" stroke-miterlimit="10" stroke-linecap="round" stroke-linejoin="round"/>
   
   
  </svg>

  <svg id="watermark" viewBox="0 0 43 43" fill="none" xmlns="http://www.w3.org/2000/svg">
   
      <path d="M15.5703 16.3906H12.9375C11.8125 16.3906 10.8906 17.3516 10.8906 18.4766C10.8906 19.6406 11.8125 20.5625 12.9375 20.5625H15.5703V16.3906V16.3906ZM10.8906 25.5313C10.8906 26.6953 11.8125 27.6172 12.9375 27.6172H15.5703V23.3984H12.9375C11.8125 23.3984 10.8906 24.3672 10.8906 25.5313ZM27.4766 36.8125H10.3906C9.42969 36.8125 8.63281 36.0234 8.63281 35.0156V7.98438C8.63281 6.97656 9.42188 6.1875 10.3906 6.1875H27.4297C28.3906 6.1875 29.1875 6.97656 29.1875 7.98438V14.7891H33.3203V7.98438C33.3203 4.6875 30.6875 1.96875 27.4297 1.96875H10.3906C7.13281 1.96875 4.5 4.64844 4.5 7.98438V35.0156C4.5 38.3125 7.13281 41.0312 10.3906 41.0312H27.4297C30.1484 41.0312 32.3984 39.1484 33.1172 36.6406H28.2188C27.9766 36.7266 27.7188 36.8125 27.4766 36.8125ZM27.7188 11.4531C27.7188 10.2891 26.7969 9.36719 25.6719 9.36719H12.9375C11.8125 9.36719 10.8906 10.3281 10.8906 11.4531C10.8906 12.6172 11.8125 13.5391 12.9375 13.5391H25.6328C26.8125 13.5859 27.7188 12.6172 27.7188 11.4531ZM38.5 20.5625V15.8828H33.8203V17.4219H22.1172V15.8828H17.4375V20.5625H18.9766V29.9141H17.4375V34.5938H22.1172V33.0547H33.8203V34.5938H38.5V29.9141H36.9609V20.5625H38.5ZM18.9922 17.4297H20.5313V18.9688H18.9922V17.4297ZM20.5781 33.0469H19.0391V31.5H20.5781V33.0469ZM33.8203 31.4609H22.1172V29.9219H20.5781V20.5625H22.1172V19.0234H33.8203V20.5625H35.3594V29.9141H33.8203V31.4609ZM36.9609 33.0469H35.4219V31.5H36.9609V33.0469ZM35.3594 18.9688V17.4297H36.8984V18.9688H35.3594ZM27.5625 24.8672L25.1406 23.3672L21.7188 27.875H33.8672L29.6484 21.0703L27.5625 24.8672Z" fill="#558FFF"/>
  
    
  </svg>

  <svg id="conversion" viewBox="0 0 43 43" fill="none" xmlns="http://www.w3.org/2000/svg">
    <path d="M23.4067 34.8987H12.2573C11.3755 34.8987 10.6851 34.1741 10.6851 33.3264V9.68091C10.6851 8.83325 11.4097 8.10864 12.2573 8.10864H27.5835C28.4653 8.10864 29.1558 8.83325 29.1558 9.68091V19.7366C30.147 19.9143 31.1108 20.3518 31.8901 21.1448C32.2251 21.4797 32.5395 21.9036 32.7378 22.3069H32.8403V9.68091C32.8472 6.77563 30.4819 4.4104 27.5425 4.4104H12.2573C9.35205 4.4104 6.95264 6.77563 6.95264 9.68091V33.3196C6.95264 36.2317 9.31787 38.5901 12.2573 38.5901H24.2886C23.5161 37.4963 23.2017 36.1702 23.4067 34.8987ZM15.1558 10.72C14.1304 10.72 13.3032 11.5471 13.3032 12.5725C13.3032 13.5979 14.1304 14.425 15.1558 14.425H24.6645C25.6899 14.425 26.5171 13.5979 26.5171 12.5725C26.5171 11.5471 25.6899 10.72 24.6645 10.72H15.1558V10.72ZM26.5171 19.4016C26.5171 18.3762 25.6899 17.5491 24.6645 17.5491H15.1558C14.1304 17.5491 13.3032 18.3762 13.3032 19.4016C13.3032 20.427 14.1304 21.2541 15.1558 21.2541H24.6645C24.6987 21.22 24.7329 21.1858 24.7671 21.1174C25.2456 20.6389 25.7925 20.2903 26.3735 20.0579C26.4829 19.8391 26.5171 19.6409 26.5171 19.4016ZM35.2808 28.2883C35.1782 28.1858 35.0688 28.1106 34.98 28.0422L35.0142 28.0081L29.9146 22.9426C29.0327 22.0608 27.5903 22.0608 26.7017 22.9426C25.813 23.8245 25.8198 25.2668 26.7017 26.1213L30.7417 30.1272L26.6675 34.1672C25.7856 35.0491 25.7856 36.4915 26.6675 37.3801C27.5493 38.2688 28.9917 38.262 29.8804 37.3801L35.0005 32.3284L34.9663 32.2942C35.0688 32.2258 35.1782 32.1165 35.2671 32.0139C36.3062 31.0022 36.3062 29.3274 35.2808 28.2883Z" fill="#558FFF"/>
  </svg>

  <svg id="metadata" viewBox="0 0 43 43" fill="none" xmlns="http://www.w3.org/2000/svg">
      <path d="M27.4577 14.8152V5.4768C27.4577 5.4768 28.1235 2.45453 24.4354 2.45453C20.7474 2.45453 5.36447 2.45453 5.36447 2.45453C5.36447 2.45453 2.46484 2.19173 2.46484 5.36292C2.46484 8.51659 2.46484 34.6045 2.46484 34.6045C2.46484 34.6045 2.85905 37.1975 5.05786 37.1975C7.25668 37.1975 13.4852 37.1975 13.4852 37.1975" stroke="#558FFF" stroke-width="4" stroke-miterlimit="10"/>
      <path d="M17.1475 19.0728H19.4251" stroke="#558FFF" stroke-width="4" stroke-miterlimit="10" stroke-linecap="round" stroke-linejoin="round"/>
      <path d="M24.6455 19.0728H26.9232" stroke="#558FFF" stroke-width="4" stroke-miterlimit="10" stroke-linecap="round" stroke-linejoin="round"/>
      <path d="M32.1094 19.0728H34.4221" stroke="#558FFF" stroke-width="4" stroke-miterlimit="10" stroke-linecap="round" stroke-linejoin="round"/>
      <path d="M17.1475 24.4163H19.4251" stroke="#558FFF" stroke-width="4" stroke-miterlimit="10" stroke-linecap="round" stroke-linejoin="round"/>
      <path d="M24.6455 24.4163H26.9232" stroke="#558FFF" stroke-width="4" stroke-miterlimit="10" stroke-linecap="round" stroke-linejoin="round"/>
      <path d="M17.1475 35.1213H19.4251" stroke="#558FFF" stroke-width="4" stroke-miterlimit="10" stroke-linecap="round" stroke-linejoin="round"/>
      <path d="M32.1094 35.1213H34.4221" stroke="#558FFF" stroke-width="4" stroke-miterlimit="10" stroke-linecap="round" stroke-linejoin="round"/>
      <path d="M24.6455 29.7603H26.9232" stroke="#558FFF" stroke-width="4" stroke-miterlimit="10" stroke-linecap="round" stroke-linejoin="round"/>
      <path d="M9.64844 24.4163H11.9349" stroke="#558FFF" stroke-width="4" stroke-miterlimit="10" stroke-linecap="round" stroke-linejoin="round"/>
      <path d="M9.64844 29.7603H11.9349" stroke="#558FFF" stroke-width="4" stroke-miterlimit="10" stroke-linecap="round" stroke-linejoin="round"/>
      <path d="M32.1094 29.7603H34.4221" stroke="#558FFF" stroke-width="4" stroke-miterlimit="10" stroke-linecap="round" stroke-linejoin="round"/>
  </svg>



  <svg id="editor" viewBox="0 0 43 43" fill="none" xmlns="http://www.w3.org/2000/svg">
   
      <path d="M9.90576 10.707C9.90576 9.81055 10.0903 8.90527 10.3804 8.12305H4.18408C1.98682 8.12305 0.185059 9.95996 0.185059 12.2363V30.6406C0.185059 32.917 1.98682 34.7187 4.18408 34.7187H10.3013C10.0464 33.9541 9.90576 33.1719 9.90576 32.3369V31.8271H4.17529C3.5249 31.8271 2.98877 31.2822 2.98877 30.6055V12.1748C2.98877 11.4893 3.53369 10.9531 4.17529 10.9531H9.90576V10.707ZM4.9751 24.6641C4.9751 25.4639 5.59033 26.1055 6.38135 26.1055H9.91455V23.2666H6.39892C5.59033 23.2314 4.9751 23.8818 4.9751 24.6641ZM9.90576 18.3359H6.39014C5.62549 18.3359 4.98389 18.9863 4.98389 19.7773C4.98389 20.5771 5.59912 21.2187 6.39014 21.2187H9.92334V18.3359H9.90576ZM9.90576 13.001H6.39014C5.62549 13.001 4.98389 13.6514 4.98389 14.4424C4.98389 15.2246 5.59912 15.8838 6.39014 15.8838H9.92334V13.0098H9.90576V13.001ZM42.0298 10.2676C40.9927 9.26562 39.2612 9.26562 38.2065 10.2676L26.5083 21.5703L30.3315 25.2441L42.0298 13.9414C43.0757 12.9307 43.0757 11.2695 42.0298 10.2676ZM30.5425 12.9658C30.5425 11.999 29.7427 11.1992 28.7759 11.1992H19.7144C18.7476 11.1992 17.9478 11.999 17.9478 12.9658C17.9478 13.9326 18.7476 14.7324 19.7144 14.7324H28.7847C29.7515 14.7324 30.5425 13.9414 30.5425 12.9658ZM33.0649 32.8027C33.0649 33.6289 32.3794 34.3144 31.5532 34.3144H16.9634C16.1372 34.3144 15.4517 33.6289 15.4517 32.8027V10.1973C15.4517 9.37109 16.1372 8.68555 16.9634 8.68555H31.5444C32.3706 8.68555 33.0561 9.37109 33.0561 10.1973V11.2344L36.3696 8.7207C35.7192 6.66406 33.8208 5.15234 31.5444 5.15234H16.9634C14.1948 5.15234 11.9185 7.39355 11.9185 10.1973V32.8115C11.9185 35.5801 14.1948 37.8564 16.9634 37.8564H31.5444C34.313 37.8564 36.5894 35.6152 36.5894 32.8115V24.7871C35.6929 25.5518 34.4976 26.334 33.0561 26.6943V32.8027H33.0649ZM27.8882 27.6523L29.0747 26.501L25.2515 22.8271L24.0649 23.9785L22.5532 29.0937L27.8882 27.6523Z" fill="#558FFF"/>
   
  </svg>

  <svg id="redaction" viewBox="0 0 43 43" fill="none" xmlns="http://www.w3.org/2000/svg">
    <path d="M23.9312 11.3047C23.9312 10.6953 23.4468 10.2187 22.8452 10.2187H8.74365C8.13428 10.2187 7.65772 10.7031 7.65772 11.3047V13.2422C7.65772 13.8516 8.14209 14.3281 8.74365 14.3281H22.8843C23.4937 14.3281 23.9702 13.8438 23.9702 13.2422V11.3047H23.9312V11.3047ZM18.8843 27.3047L13.5249 32.5781H21.2671L22.7593 31.25L20.9858 29.3906L20.7437 29.6719L20.1343 29.0625L20.3765 28.7813L18.8843 27.3047ZM25.0562 34.1875C25.0562 35.1094 24.3374 35.8828 23.3999 35.8828H7.60303C6.72022 35.8828 5.94678 35.125 5.94678 34.1875V8.8125C5.94678 7.89062 6.66553 7.11719 7.60303 7.11719H23.3999C24.2827 7.11719 25.0171 7.83594 25.0171 8.77344H28.8374C28.7983 5.67187 26.3843 3.17188 23.3999 3.17188H7.60303C4.57959 3.17188 2.16553 5.71094 2.16553 8.8125V34.1953C2.16553 37.2969 4.61865 39.8359 7.60303 39.8359H23.3999C26.4233 39.8359 28.8374 37.2969 28.8374 34.1953V33.4766H25.0171V34.1953L25.0562 34.1875ZM7.64209 19.5234C7.64209 20.6484 8.5249 21.5859 9.61865 21.5859H19.853L23.7202 17.4766H9.62647C8.54053 17.4766 7.64209 18.3984 7.64209 19.5234ZM39.8062 9.33594C38.439 7.92969 36.189 7.92969 34.814 9.33594L18.8452 26.3828L20.7827 28.3594L29.4468 19.4531C29.1655 19.0469 28.9624 18.5313 28.9624 18C28.9624 16.6719 30.0093 15.5859 31.3374 15.5859C31.8687 15.5859 32.3374 15.7891 32.7437 16.0703L37.2593 11.4297L37.8687 12.0391L33.314 16.7188C33.5562 17.0859 33.6812 17.5156 33.6812 18.0078C33.6812 19.3359 32.6343 20.4219 31.3452 20.4219C30.8999 20.4219 30.4624 20.2969 30.0952 20.0547L21.4312 29.0078L23.9233 31.5469L39.8452 14.5C41.1733 13.0781 41.1733 10.75 39.8062 9.33594ZM31.3452 19.5625C32.189 19.5625 32.8374 18.8672 32.8374 18.0313C32.8374 17.1953 32.1421 16.5 31.3452 16.5C30.5015 16.5 29.853 17.1953 29.853 18.0313C29.853 18.8828 30.4937 19.5625 31.3452 19.5625Z" fill="#558FFF"/>
  </svg>

  <svg id="classification" viewBox="0 0 43 43" fill="none" xmlns="http://www.w3.org/2000/svg">
    <path d="M8.6498 19.4663C8.6498 20.6241 9.55625 21.5838 10.6836 21.5838L19.3291 21.5L19.4129 17.3639H10.6836C9.57148 17.3639 8.6498 18.3161 8.6498 19.4663ZM24.8287 2.67798H8.61172C5.50391 2.67798 3.02832 5.28306 3.02832 8.47466V34.5254C3.02832 37.7094 5.54961 40.3145 8.61172 40.3145H21.0125L20.9744 36.2622H8.56602C7.65957 36.2622 6.86738 35.4852 6.86738 34.5254V8.47466C6.86738 7.53013 7.60625 6.73794 8.56602 6.73794H24.783C25.6895 6.73794 26.4359 7.47681 26.4359 8.43657H30.3588C30.3664 5.24497 27.8908 2.67798 24.8287 2.67798ZM10.6836 9.92192C9.57148 9.92192 8.6498 10.8665 8.6498 12.0395C8.6498 13.2125 9.55625 14.1571 10.6836 14.1571L19.3291 14.0733L19.4129 9.93716L10.6836 9.92192Z" fill="#558FFF"/>
    <path d="M23.7162 9.25146C24.9121 9.25146 25.8719 10.196 25.8719 11.4071C25.8719 12.6183 24.9273 13.5628 23.7162 13.5628C22.5051 13.5628 21.5605 12.6183 21.5605 11.4071C21.5605 10.196 22.5127 9.25146 23.7162 9.25146ZM23.7162 8.22314C21.9795 8.22314 20.5322 9.63232 20.5322 11.4071C20.5322 13.1438 21.9414 14.5911 23.7162 14.5911C25.4529 14.5911 26.9002 13.1819 26.9002 11.4071C26.9002 9.63232 25.4529 8.22314 23.7162 8.22314Z" fill="#558FFF"/>
    <path d="M36.4062 28.1954C37.7315 28.1954 38.7979 29.2694 38.7979 30.5872C38.7979 31.905 37.7239 32.979 36.4062 32.979C35.0884 32.979 34.0144 31.905 34.0144 30.5872C34.0144 29.2847 35.0884 28.1954 36.4062 28.1954ZM36.4062 27.0376C34.4562 27.0376 32.8413 28.6524 32.8413 30.6024C32.8413 32.5524 34.4562 34.1673 36.4062 34.1673C38.3562 34.1673 39.971 32.5524 39.971 30.6024C39.971 28.6524 38.4019 27.0376 36.4062 27.0376Z" fill="#558FFF"/>
    <path d="M24.174 22.1247C25.5832 22.1247 26.7334 23.2825 26.7334 24.6841C26.7334 26.0856 25.5756 27.2435 24.174 27.2435C22.7725 27.2435 21.6146 26.0856 21.6146 24.6841C21.6146 23.2825 22.7268 22.1247 24.174 22.1247ZM24.174 20.8755C22.0564 20.8755 20.373 22.5741 20.373 24.6765C20.373 26.7788 22.0717 28.4774 24.174 28.4774C26.2916 28.4774 27.975 26.7788 27.975 24.6765C27.975 22.5741 26.2307 20.8755 24.174 20.8755Z" fill="#558FFF"/>
    <path d="M34.7921 14.0505C36.445 14.0505 37.8161 15.414 37.8161 17.0746C37.8161 18.7351 36.4526 20.0986 34.7921 20.0986C33.1392 20.0986 31.7681 18.7351 31.7681 17.0746C31.73 15.414 33.1087 14.0505 34.7921 14.0505ZM34.7921 12.6033C32.3165 12.6033 30.2827 14.6371 30.2827 17.1126C30.2827 19.5882 32.3165 21.622 34.7921 21.622C37.2677 21.622 39.3015 19.5882 39.3015 17.1126C39.2634 14.599 37.2448 12.6033 34.7921 12.6033Z" fill="#558FFF"/>
    <path d="M25.6591 34.6931C26.855 34.6931 27.8147 35.6376 27.8147 36.8488C27.8147 38.0599 26.8702 39.0044 25.6591 39.0044C24.448 39.0044 23.5034 38.0599 23.5034 36.8488C23.5034 35.6453 24.448 34.6931 25.6591 34.6931ZM25.6591 33.6648C23.9224 33.6648 22.4751 35.074 22.4751 36.8488C22.4751 38.6236 23.8843 40.0328 25.6591 40.0328C27.4339 40.0328 28.8431 38.6236 28.8431 36.8488C28.8431 35.074 27.3882 33.6648 25.6591 33.6648Z" fill="#558FFF"/>
    <path d="M13.5404 24.9353C14.5307 24.9353 15.3609 25.758 15.3609 26.7558C15.3609 27.746 14.5383 28.5763 13.5404 28.5763C12.5426 28.5763 11.7199 27.7537 11.7199 26.7558C11.7123 25.758 12.5502 24.9353 13.5404 24.9353ZM13.5404 24.0593C12.0475 24.0593 10.8516 25.2552 10.8516 26.7482C10.8516 28.2412 12.0475 29.4371 13.5404 29.4371C15.0334 29.4371 16.2293 28.2412 16.2293 26.7482C16.2293 25.2552 15.0258 24.0593 13.5404 24.0593Z" fill="#558FFF"/>
    <path d="M23.9214 13.9285L24.1728 21.5" stroke="#558FFF" stroke-width="1.18607" stroke-miterlimit="10"/>
    <path d="M31.9436 18.8569L26.6953 23.1987" stroke="#558FFF" stroke-width="1.18607" stroke-miterlimit="10"/>
    <path d="M26.9004 25.9714L33.8016 29.4449" stroke="#558FFF" stroke-width="1.18607" stroke-miterlimit="10"/>
    <path d="M21.1114 24.6838L15.7642 26.1768" stroke="#558FFF" stroke-width="1.18607" stroke-miterlimit="10"/>
    <path d="M24.9121 27.708L25.2016 33.7941" stroke="#558FFF" stroke-width="1.18607" stroke-miterlimit="10"/>
  </svg>

  <svg id="comparison" viewBox="0 0 43 43" fill="none" xmlns="http://www.w3.org/2000/svg">
    
      <path d="M14.1436 35.3164H5.65332C4.73926 35.3164 4.01855 34.5957 4.01855 33.6816V9.31836C4.01855 8.4043 4.73926 7.68359 5.65332 7.68359H14.1436C14.5391 6.20703 15.3828 4.88867 16.4902 3.89551H5.65332C2.62109 3.89551 0.186523 6.33008 0.186523 9.31836V33.6904C0.186523 36.6787 2.62109 39.1133 5.65332 39.1133H16.499C15.3828 38.1113 14.5391 36.793 14.1436 35.3164ZM13.8271 10.3906H8.6416C7.56055 10.3906 6.72559 11.2344 6.72559 12.3066C6.72559 13.335 7.56934 14.2227 8.6416 14.2227H13.8271V10.3906ZM6.72559 19.3643C6.72559 20.3926 7.56934 21.2803 8.6416 21.2803H13.8271V17.4922H8.6416C7.5957 17.457 6.72559 18.2832 6.72559 19.3643ZM34.3584 10.3906H24.5146C23.4336 10.3906 22.5986 11.2344 22.5986 12.3066C22.5986 13.335 23.4424 14.2227 24.5146 14.2227H34.3584C35.4395 14.2227 36.2744 13.3789 36.2744 12.3066C36.2744 11.2695 35.4043 10.3906 34.3584 10.3906ZM37.3555 3.89551H21.4736C18.4414 3.89551 16.0068 6.33008 16.0068 9.31836V33.6904C16.0068 36.6787 18.4414 39.1133 21.4736 39.1133H37.3379C40.3701 39.1133 42.8047 36.6787 42.8047 33.6904V9.31836C42.8574 6.33008 40.3789 3.89551 37.3555 3.89551ZM39.0254 33.6816C39.0254 34.5957 38.3047 35.3164 37.3906 35.3164H21.5264C20.6123 35.3164 19.8916 34.5957 19.8916 33.6816V9.31836C19.8916 8.4043 20.6123 7.68359 21.5264 7.68359H37.3906C38.3047 7.68359 39.0254 8.4043 39.0254 9.31836V33.6816V33.6816ZM34.3584 17.457H24.5146C23.4336 17.457 22.5986 18.3008 22.5986 19.373C22.5986 20.4014 23.4424 21.2891 24.5146 21.2891H34.3584C35.4395 21.2891 36.2744 20.4453 36.2744 19.373C36.2744 18.2832 35.4043 17.457 34.3584 17.457Z" fill="#558FFF"/>
  
  </svg>

  <svg id="search-app" viewBox="0 0 43 43" fill="none" xmlns="http://www.w3.org/2000/svg">
   
      <path d="M23.6782 11.5393C23.6782 11.4924 23.6782 11.4534 23.6782 11.3752C23.6782 10.219 22.7563 9.25024 21.6001 9.25024H11.0298C9.90478 9.25024 8.95166 10.2034 8.95166 11.3752C8.95166 12.5471 9.87353 13.5002 11.0298 13.5002H18.186C19.8188 12.4612 21.6938 11.7424 23.6782 11.5393ZM25.6001 36.9299H8.45947C7.50635 36.9299 6.67822 36.1018 6.67822 35.1018V7.88306C6.67822 6.89087 7.46728 6.05493 8.45947 6.05493H25.561C26.5142 6.05493 27.3423 6.88306 27.3423 7.88306V11.7581C28.8423 12.0862 30.2095 12.6799 31.4517 13.469V7.89868C31.4517 4.57056 28.7954 1.86743 25.5454 1.86743H8.45947C5.20947 1.86743 2.55322 4.57056 2.55322 7.89868V35.1018C2.55322 38.4299 5.20947 41.1331 8.45947 41.1331H25.561C28.811 41.1331 31.4673 38.4299 31.4673 35.1018V34.7737C30.0142 35.7268 28.3501 36.3909 26.5532 36.6409C26.2642 36.8362 25.936 36.9299 25.6001 36.9299ZM39.6548 35.4299L32.2173 28.7659C32.1704 28.719 32.1704 28.719 32.1313 28.6799C33.1235 27.1096 33.7485 25.219 33.7485 23.1877C33.7485 17.6487 29.3813 13.1643 24.0063 13.1643C18.6313 13.1643 14.2642 17.6643 14.2642 23.1877C14.2642 28.7112 18.647 33.219 24.022 33.219C26.0142 33.219 27.8501 32.594 29.3813 31.5549C29.4282 31.6018 29.4282 31.6018 29.4673 31.6409L35.9595 39.3049C36.9985 40.3909 38.6626 40.3909 39.7017 39.3049C40.7017 38.2502 40.7017 36.5081 39.6548 35.4299ZM23.9829 29.7737C20.4517 29.7737 17.6157 26.8596 17.6157 23.2424C17.6157 19.6252 20.4829 16.7112 23.9829 16.7112C27.5142 16.7112 30.3501 19.6252 30.3501 23.2424C30.3501 26.8127 27.5142 29.7737 23.9829 29.7737ZM8.95166 18.4377C8.95166 19.594 9.87353 20.5627 11.0298 20.5627H13.1079C13.5688 19.0159 14.2642 17.5627 15.2329 16.3127H11.0298C9.87353 16.3362 8.95166 17.2815 8.95166 18.4377ZM23.4751 18.2346H22.2251C18.397 19.9846 18.9438 23.2659 18.9438 23.2659H23.4751C24.7251 23.2659 25.7173 22.1409 25.7173 20.7268C25.686 19.3596 24.6938 18.2346 23.4751 18.2346Z" fill="#558FFF"/>
    
  </svg>

  <svg id="merger" viewBox="0 0 43 43" fill="none" xmlns="http://www.w3.org/2000/svg">
    <path d="M24.1406 35.6641H8.09375C7.17969 35.6641 6.42969 34.9062 6.42969 34V9.09375C6.42969 8.17969 7.1875 7.42969 8.09375 7.42969H24.1719C24.4141 7.42969 24.6484 7.50781 24.8906 7.58594H29.5C28.8594 5.25 26.7188 3.53125 24.1875 3.53125H8.10938C5.05469 3.53125 2.55469 5.99219 2.55469 9.04687V33.9375C2.55469 36.9922 5.01563 39.4531 8.10938 39.4531H24.1875C26.8047 39.4531 28.9609 37.6719 29.5469 35.2422H25.1719C24.8828 35.5391 24.5391 35.6641 24.1406 35.6641ZM34.8906 9.77344H24.2031C21.1484 9.77344 18.6484 12.2344 18.6484 15.2891V15.3281H22.5391V15.2891C22.5391 14.375 23.2969 13.625 24.2031 13.625H34.8906C35.8047 13.625 36.5547 14.3828 36.5547 15.2891V27.8906C36.5547 28.8047 35.7969 29.5547 34.8906 29.5547H24.2031C23.2891 29.5547 22.5391 28.7969 22.5391 27.8906V23.8359H18.6484V24.1172H11.1016C10.0234 24.1172 9.16406 24.9922 9.16406 26.0547C9.16406 27.1328 10.0391 27.9922 11.1016 27.9922H18.6875C18.7266 31.0078 21.1875 33.4297 24.2031 33.4297H34.8906C37.9453 33.4297 40.4453 30.9687 40.4453 27.9141V15.3281C40.4609 12.2266 38 9.77344 34.8906 9.77344ZM11.1172 21.2969H31.8516C32.9297 21.2969 33.7891 20.4219 33.7891 19.3594C33.7891 18.2969 32.9141 17.4219 31.8516 17.4219H11.1172C10.0391 17.4219 9.17969 18.2969 9.17969 19.3594C9.20313 20.4531 10.0391 21.2969 11.1172 21.2969Z" fill="#558FFF"/>
  </svg>

  <svg id="protect" viewBox="0 0 43 43" fill="none" xmlns="http://www.w3.org/2000/svg">
    <path d="M30.4899 10.0074C30.1292 5.35768 26.2423 1.69678 21.5003 1.69678C16.521 1.69678 12.4839 5.73387 12.4839 10.7131V18.8589C12.4839 22.1359 14.2328 17.6812 16.8471 19.2601V10.7882C16.8471 8.26018 18.8963 6.211 21.4235 6.211C23.7254 6.211 25.6297 7.90988 25.9515 10.123C25.9437 10.2015 25.9394 10.2809 25.9394 10.3611V19.4206C25.9394 20.6846 26.9644 21.7097 28.2285 21.7097C29.4925 21.7097 30.5175 20.6846 30.5175 19.4206V10.9841V10.7123V10.3603C30.5166 10.2412 30.5071 10.123 30.4899 10.0074Z" fill="#558FFF"/>
    <path d="M6.85107 22.8927V37.2344C6.85107 39.4811 8.67247 41.3034 10.9201 41.3034H32.0805C34.3273 41.3034 36.1495 39.482 36.1495 37.2344V22.8927C36.1495 20.6451 34.3281 18.8237 32.0805 18.8237H10.9192C8.67247 18.8246 6.85107 20.646 6.85107 22.8927ZM30.8165 21.7737C31.6646 21.7737 32.3532 22.4613 32.3532 23.3103V36.8168C32.3532 37.6658 31.6655 38.3534 30.8165 38.3534H12.1832C11.3342 38.3534 10.6466 37.6658 10.6466 36.8168V23.3103C10.6466 22.4613 11.3342 21.7737 12.1832 21.7737H30.8165Z" fill="#558FFF"/>
    <path d="M23.8836 27.4225C23.8836 28.7392 22.8163 29.8065 21.4997 29.8065C20.183 29.8065 19.1157 28.7392 19.1157 27.4225C19.1157 26.1059 20.183 25.0386 21.4997 25.0386C22.8163 25.0386 23.8836 26.1059 23.8836 27.4225Z" fill="#558FFF"/>
    <path d="M23.8836 34.8201H19.1157L21.2072 27.4224H21.7913L23.8836 34.8201Z" fill="#558FFF"/>
  </svg>

  <svg id="unlock" viewBox="0 0 43 43" fill="none" xmlns="http://www.w3.org/2000/svg">
    <path d="M30.4755 10.0247C30.1154 5.38196 26.2343 1.72656 21.4994 1.72656C16.5276 1.72656 12.4966 5.75758 12.4966 10.7294V18.8629C12.4966 22.1349 14.2429 17.6878 16.8533 19.2635V10.8043C16.8533 8.28009 18.8993 6.234 21.4236 6.234C23.7221 6.234 25.6235 7.93032 25.9448 10.1401C25.937 10.2185 25.9327 10.2978 25.9327 10.3779V13.3932C25.9327 14.6553 26.9562 15.6788 28.2183 15.6788C29.4804 15.6788 30.5039 14.6553 30.5039 13.3932V10.9999V10.7285V10.377C30.5022 10.2581 30.4927 10.1401 30.4755 10.0247Z" fill="#558FFF"/>
    <path d="M6.87305 22.8905V37.2106C6.87305 39.454 8.6917 41.2735 10.9359 41.2735H32.0645C34.3079 41.2735 36.1274 39.4548 36.1274 37.2106V22.8905C36.1274 20.6463 34.3088 18.8276 32.0645 18.8276H10.9351C8.6917 18.8285 6.87305 20.6472 6.87305 22.8905ZM30.8024 21.7732C31.6493 21.7732 32.3368 22.4598 32.3368 23.3075V36.7936C32.3368 37.6414 31.6502 38.328 30.8024 38.328H12.1972C11.3495 38.328 10.6628 37.6414 10.6628 36.7936V23.3075C10.6628 22.4598 11.3495 21.7732 12.1972 21.7732H30.8024Z" fill="#558FFF"/>
    <path d="M15.0283 34.9605H21.8033C22.8879 34.9605 23.7667 34.0817 23.7667 32.9971C23.7667 31.9124 22.8879 31.0337 21.8033 31.0337H15.0283C13.9437 31.0337 13.0649 31.9124 13.0649 32.9971C13.0649 34.0809 13.9445 34.9605 15.0283 34.9605Z" fill="#558FFF"/>
    <path d="M15.0283 28.866H21.8033C22.8879 28.866 23.7667 27.9864 23.7667 26.9026C23.7667 25.818 22.8879 24.9392 21.8033 24.9392H15.0283C13.9437 24.9392 13.0649 25.8188 13.0649 26.9026C13.0649 27.9872 13.9445 28.866 15.0283 28.866Z" fill="#558FFF"/>
  </svg>


  <svg id="splitter" viewBox="0 0 43 43" fill="none" xmlns="http://www.w3.org/2000/svg">
    <path d="M18.8787 3.1416C17.9309 3.1416 17.1709 3.91009 17.1709 4.84936V38.1506C17.1709 39.0899 17.9309 39.8584 18.8787 39.8584C19.8265 39.8584 20.5864 39.0899 20.5864 38.1506V4.84936C20.5864 3.91009 19.8179 3.1416 18.8787 3.1416Z" fill="#558FFF"/>
    <path d="M24.0876 3.1416C23.1484 3.1416 22.3799 3.91009 22.3799 4.84936V38.1506C22.3799 39.0899 23.1484 39.8584 24.0876 39.8584C25.0269 39.8584 25.7954 39.0899 25.7954 38.1506V4.84936C25.7954 3.91009 25.0269 3.1416 24.0876 3.1416Z" fill="#558FFF"/>
    <path d="M9.63116 21.7135L15.1472 26.6062C15.5059 26.9307 16.0779 26.6745 16.0779 26.1878V16.8122C16.0779 16.3255 15.5059 16.0693 15.1472 16.3938L9.63116 21.3036C9.51162 21.4146 9.51162 21.6025 9.63116 21.7135Z" fill="#558FFF"/>
    <path d="M33.5139 21.7135L27.9893 26.6062C27.6307 26.9307 27.0586 26.6745 27.0586 26.1878V16.8122C27.0586 16.3255 27.6307 16.0693 27.9893 16.3938L33.5054 21.3036C33.6335 21.4146 33.6335 21.6025 33.5139 21.7135Z" fill="#558FFF"/>
    <path d="M17.2562 32.8224C17.2562 33.3518 16.8293 33.7787 16.2999 33.7787H6.4888C5.9594 33.7787 5.53246 33.3518 5.53246 32.8224V10.1775C5.53246 9.64812 5.9594 9.22118 6.4888 9.22118H16.2999C16.8293 9.22118 17.2562 9.64812 17.2562 10.1775V5.46411C16.8037 5.46411 16.6243 5.46411 16.2999 5.46411H6.4888C3.89301 5.46411 1.77539 7.58173 1.77539 10.1775V32.8224C1.77539 35.4182 3.89301 37.5358 6.4888 37.5358H16.2999C16.6243 37.5358 16.8293 37.5358 17.2562 37.5358V32.8224Z" fill="#558FFF"/>
    <path d="M25.7437 32.8224C25.7437 33.3518 26.1706 33.7787 26.7 33.7787H36.5111C37.0405 33.7787 37.4674 33.3518 37.4674 32.8224V10.1775C37.4674 9.64812 37.0405 9.22118 36.5111 9.22118H26.7C26.1706 9.22118 25.7437 9.64812 25.7437 10.1775V5.46411C26.1962 5.46411 26.3755 5.46411 26.7 5.46411H36.5111C39.1069 5.46411 41.2245 7.58173 41.2245 10.1775V32.8224C41.2245 35.4182 39.1069 37.5358 36.5111 37.5358H26.7C26.3755 37.5358 26.1706 37.5358 25.7437 37.5358V32.8224Z" fill="#558FFF"/>
  </svg>

  <svg id="translation" viewBox="0 0 43 43" fill="none" xmlns="http://www.w3.org/2000/svg">
    <path d="M35.8858 32.7855L34.4239 28.0062H27.1063L25.6524 32.7855H21.0659L28.1505 12.6321H33.3556L40.4643 32.7855H35.8858ZM33.4118 24.4398C32.0704 20.1103 31.3073 17.6604 31.1386 17.0981C30.9699 16.5278 30.8494 16.086 30.7772 15.7567C30.4719 16.9294 29.6124 19.8211 28.1827 24.4478H33.4118V24.4398Z" fill="#558FFF"/>
    <path d="M28.5523 35.3479C28.5523 36.3921 27.6767 37.2436 26.6084 37.2436H8.69605C7.62773 37.2436 6.75219 36.3921 6.75219 35.3479V7.652C6.75219 6.60778 7.62773 5.75634 8.69605 5.75634H26.6084C27.6767 5.75634 28.5523 6.60778 28.5523 7.652V10.616H32.7854V7.652C32.7854 4.32657 30.0142 1.61963 26.6165 1.61963H8.70408C5.29832 1.61963 2.53516 4.32657 2.53516 7.652V35.3479C2.53516 38.6733 5.30635 41.3803 8.70408 41.3803H26.6165C30.0222 41.3803 32.7854 38.6733 32.7854 35.3479V34.874H28.5523V35.3479Z" fill="#558FFF"/>
    <path d="M18.8329 8.59985H15.5798V10.3911H9.40283V13.6523H18.9695H25.0019V10.3911H18.8329V8.59985H15.5798Z" fill="#558FFF"/>
    <path d="M22.3348 13.6523C22.3348 13.6523 21.3549 15.8291 20.7926 16.7609C20.0375 18.0059 19.419 18.761 19.419 18.761L21.4432 20.8173L20.2142 24.1266L18.4632 22.4077L17.2583 21.0904L17.1137 21.243L15.3948 22.9619L12.6798 25.5403L10.2861 23.1467L11.748 21.8374L12.8324 20.7932L14.7441 18.769L14.9128 18.5762C14.9128 18.5762 13.7722 17.1304 13.3947 16.4556C13.0172 15.7809 12.4951 14.8492 12.3505 14.4716C12.1979 14.0941 12.1738 14.0057 12.1738 14.0057L15.5956 13.9897L16.2864 15.3391L16.7282 16.0862L16.9691 16.4717L17.194 16.7609C17.194 16.7609 17.194 16.7609 17.4511 16.3432C18.0535 15.3873 18.0535 15.3873 18.3587 14.8251C18.5756 14.4315 18.9291 13.6443 18.9291 13.6443H22.3348" fill="#558FFF"/>
  </svg>

  <svg id="scanner" viewBox="0 0 43 43" fill="none" xmlns="http://www.w3.org/2000/svg">
    <path d="M0.850098 5.37842V7.84192V11.2161H3.3136V7.84192H6.68775V5.37842H3.3136H0.850098Z" fill="#558FFF"/>
    <path d="M39.7827 5.37842H36.4077V7.84192H39.7827V11.2161H42.2454V7.84192V5.37842H39.7827Z" fill="#558FFF"/>
    <path d="M0.753906 37.6213V35.1578V31.7837H3.21657V35.1578H6.59156V37.6213H3.21657H0.753906Z" fill="#558FFF"/>
    <path d="M39.6857 37.6213H36.3115V35.1578H39.6857V31.7837H42.1492V35.1578V37.6213H39.6857Z" fill="#558FFF"/>
    <path d="M42.2463 20.3928H0.850098V22.6063H42.2463V20.3928Z" fill="#558FFF"/>
    <path d="M11.8799 8.85034H9.88965V18.9343H11.8799V8.85034Z" fill="#558FFF"/>
    <path d="M15.4179 8.85034H13.4277V18.9343H15.4179V8.85034Z" fill="#558FFF"/>
    <path d="M29.5717 8.85034H27.5815V18.9343H29.5717V8.85034Z" fill="#558FFF"/>
    <path d="M18.9565 8.85034H16.9663V18.9343H18.9565V8.85034Z" fill="#558FFF"/>
    <path d="M22.4951 8.85034H20.5049V18.9343H22.4951V8.85034Z" fill="#558FFF"/>
    <path d="M26.0327 8.85034H24.0425V18.9343H26.0327V8.85034Z" fill="#558FFF"/>
    <path d="M33.1093 8.85034H31.1191V18.9343H33.1093V8.85034Z" fill="#558FFF"/>
    <path d="M11.8799 24.0652H9.88965V34.1492H11.8799V24.0652Z" fill="#558FFF"/>
    <path d="M15.4179 24.0652H13.4277V33.3129H15.4179V24.0652Z" fill="#558FFF"/>
    <path d="M29.5717 24.0652H27.5815V33.3129H29.5717V24.0652Z" fill="#558FFF"/>
    <path d="M18.9565 24.0652H16.9663V33.3129H18.9565V24.0652Z" fill="#558FFF"/>
    <path d="M22.4951 24.0652H20.5049V33.3129H22.4951V24.0652Z" fill="#558FFF"/>
    <path d="M26.0327 24.0652H24.0425V33.3129H26.0327V24.0652Z" fill="#558FFF"/>
    <path d="M33.1093 24.0652H31.1191V34.1492H33.1093V24.0652Z" fill="#558FFF"/>
  </svg>

<!-- platforms -->
<svg id="net" viewBox="0 0 43 43" fill="none" xmlns="http://www.w3.org/2000/svg">
<path d="M40.4019 2.59814L19.9878 5.62244V20.7439L40.4019 20.5549V2.59814ZM18.0977 22.4451L2.59814 22.2561V35.1093L17.9086 37.1885L18.0977 22.4451ZM2.59814 7.89066V20.7439H17.9086V5.81146L2.59814 7.89066ZM19.7988 22.4451V37.3776L40.4019 40.4019V22.6341L19.7988 22.4451Z" fill="#558FFF"/>
</svg>

<svg id="java" viewBox="0 0 43 43" fill="none" xmlns="http://www.w3.org/2000/svg">
<path d="M15.8902 32.9719C15.8902 32.9719 14.2568 33.9046 17.0527 34.2202C20.44 34.5996 22.1712 34.5452 25.904 33.8515C25.904 33.8515 26.8853 34.4557 28.2559 34.979C19.888 38.5001 9.3177 34.775 15.8902 32.9719Z" fill="#5382A1"/>
<path d="M14.8675 28.3772C14.8675 28.3772 13.0354 29.7087 15.8334 29.9929C19.4518 30.3594 22.3093 30.3893 27.2539 29.4545C27.2539 29.4545 27.9378 30.1353 29.0132 30.5075C18.8959 33.4122 7.62707 30.7366 14.8675 28.3772Z" fill="#5382A1"/>
<path d="M23.4878 20.5832C25.5497 22.9139 22.9461 25.0112 22.9461 25.0112C22.9461 25.0112 28.1815 22.3577 25.7771 19.0348C23.5315 15.9361 21.8094 14.3964 31.1321 9.08789C31.1321 9.08789 16.4986 12.6762 23.4878 20.5832Z" fill="#E76F00"/>
<path d="M34.5549 36.3706C34.5549 36.3706 35.7637 37.3485 33.2236 38.105C28.3935 39.5416 13.1203 39.9754 8.87749 38.1623C7.3523 37.5108 10.2125 36.6068 11.1122 36.4171C12.0505 36.2173 12.5867 36.2545 12.5867 36.2545C10.8905 35.0814 1.62335 38.5581 7.8794 39.5537C24.9406 42.2703 38.9803 38.3305 34.5549 36.3706Z" fill="#5382A1"/>
<path d="M16.6753 23.6165C16.6753 23.6165 8.90642 25.4281 13.9242 26.086C16.0428 26.3645 20.2663 26.3015 24.2003 25.9779C27.4155 25.7116 30.6439 25.1455 30.6439 25.1455C30.6439 25.1455 29.5102 25.6221 28.69 26.172C20.8008 28.2092 5.5603 27.2615 9.94783 25.1777C13.6584 23.4167 16.6753 23.6165 16.6753 23.6165Z" fill="#5382A1"/>
<path d="M30.6124 31.265C38.6321 27.1734 34.9241 23.2414 32.3359 23.7712C31.7016 23.9008 31.4187 24.0131 31.4187 24.0131C31.4187 24.0131 31.6542 23.6509 32.104 23.4941C37.2242 21.7268 41.1619 28.7067 30.4512 31.4712C30.4512 31.4713 30.5753 31.3624 30.6124 31.265Z" fill="#5382A1"/>
<path d="M25.7765 0.515625C25.7765 0.515625 30.218 4.8778 21.564 11.5856C14.6244 16.9664 19.9816 20.0344 21.5611 23.5397C17.5104 19.9513 14.5376 16.7925 16.532 13.8526C19.4592 9.53701 27.5685 7.44467 25.7765 0.515625Z" fill="#E76F00"/>
<path d="M17.4642 42.3522C25.1621 42.836 36.9832 42.0838 37.2631 38.5076C37.2631 38.5076 36.725 39.8633 30.9012 40.9399C24.3308 42.1539 16.2272 42.0122 11.4209 41.2342C11.421 41.2341 12.4048 42.0337 17.4642 42.3522Z" fill="#5382A1"/>
</svg>

<svg id="nodejs" viewBox="0 0 44 44" fill="none" xmlns="http://www.w3.org/2000/svg">
<path d="M21.5956 43C21.0169 43 20.4767 42.8457 19.9751 42.5756L14.8432 39.5273C14.0715 39.1029 14.4574 38.9486 14.6889 38.8714C15.7307 38.5241 15.9236 38.4469 17.004 37.8296C17.1198 37.7524 17.2741 37.791 17.3899 37.8682L21.3255 40.2219C21.4799 40.299 21.6728 40.299 21.7886 40.2219L37.1841 31.3087C37.3384 31.2315 37.4156 31.0772 37.4156 30.8842V13.0965C37.4156 12.9035 37.3384 12.7492 37.1841 12.672L21.7886 3.79743C21.6342 3.72026 21.4413 3.72026 21.3255 3.79743L5.93005 12.672C5.7757 12.7492 5.69853 12.9421 5.69853 13.0965V30.8842C5.69853 31.0386 5.7757 31.2315 5.93005 31.3087L10.1358 33.7395C12.4124 34.8971 13.84 33.5466 13.84 32.1961V14.6399C13.84 14.4084 14.0329 14.1768 14.303 14.1768H16.2709C16.5024 14.1768 16.7339 14.3698 16.7339 14.6399V32.1961C16.7339 35.2444 15.0747 37.0193 12.1808 37.0193C11.2934 37.0193 10.5989 37.0193 8.63101 36.0547L4.57956 33.7395C3.57635 33.1608 2.95898 32.0804 2.95898 30.9228V13.135C2.95898 11.9775 3.57635 10.8971 4.57956 10.3183L19.9751 1.40514C20.9397 0.864952 22.2516 0.864952 23.2162 1.40514L38.6117 10.3183C39.6149 10.8971 40.2323 11.9775 40.2323 13.135V30.9228C40.2323 32.0804 39.6149 33.1608 38.6117 33.7395L23.2162 42.6527C22.7146 42.8842 22.1358 43 21.5956 43ZM26.3416 30.7685C19.5892 30.7685 18.2001 27.6817 18.2001 25.0579C18.2001 24.8264 18.3931 24.5949 18.6632 24.5949H20.6696C20.9011 24.5949 21.094 24.7492 21.094 24.9807C21.4027 27.0257 22.2902 28.0289 26.3802 28.0289C29.6214 28.0289 31.0104 27.2958 31.0104 25.5595C31.0104 24.5563 30.6246 23.8232 25.5699 23.3215C21.3641 22.8971 18.7403 21.9711 18.7403 18.6141C18.7403 15.4887 21.3641 13.6367 25.7628 13.6367C30.7018 13.6367 33.1326 15.3344 33.4413 19.0386C33.4413 19.1543 33.4027 19.2701 33.3255 19.3859C33.2484 19.463 33.1326 19.5402 33.0169 19.5402H31.0104C30.8175 19.5402 30.6246 19.3859 30.586 19.1929C30.123 17.0707 28.9268 16.3762 25.7628 16.3762C22.213 16.3762 21.7886 17.6109 21.7886 18.537C21.7886 19.6559 22.2902 20.0032 27.0747 20.6206C31.8207 21.2379 34.0587 22.1254 34.0587 25.4437C34.0201 28.8392 31.2419 30.7685 26.3416 30.7685Z" fill="#539E43"/>
</svg>


<svg id="python" viewBox="0 0 43 43" fill="none" xmlns="http://www.w3.org/2000/svg">
<g>
<path d="M21.5 11.2692H5.34615C5.34615 11.2692 0.5 11.2692 0.5 21.5C0.5 31.7308 5.34615 31.7308 5.34615 31.7308H10.1923V26.8846C10.1923 23.6538 12.8846 20.9615 16.1154 20.9615H26.8846C29.5769 20.9615 31.7308 18.8077 31.7308 16.1154V5.34615C31.7308 5.34615 31.7308 0.5 21.5 0.5C11.2692 0.5 11.2692 5.34615 11.2692 5.34615V10.1923H21.5V11.2692Z" fill="#3377BB"/>
<path d="M21.4993 31.7301H37.6532C37.6532 31.7301 42.4993 31.7301 42.4993 21.4993C42.4993 11.2686 37.6532 11.2686 37.6532 11.2686H32.807V16.1147C32.807 19.3455 30.1147 22.0378 26.8839 22.0378H16.1147C13.4224 22.0378 11.2686 24.1916 11.2686 26.8839V37.6532C11.2686 37.6532 11.2686 42.4993 21.4993 42.4993C31.7301 42.4993 31.7301 37.6532 31.7301 37.6532V32.807H21.4993V31.7301Z" fill="#FFBB33"/>
<path d="M16.1154 6.96124C17.0075 6.96124 17.7308 6.23801 17.7308 5.34585C17.7308 4.4537 17.0075 3.73047 16.1154 3.73047C15.2232 3.73047 14.5 4.4537 14.5 5.34585C14.5 6.23801 15.2232 6.96124 16.1154 6.96124Z" fill="white"/>
<path d="M26.8849 39.2698C27.7771 39.2698 28.5003 38.5466 28.5003 37.6544C28.5003 36.7623 27.7771 36.0391 26.8849 36.0391C25.9928 36.0391 25.2695 36.7623 25.2695 37.6544C25.2695 38.5466 25.9928 39.2698 26.8849 39.2698Z" fill="white"/>
</g>
</svg>


<!-- resources -->
<svg id="api" viewBox="0 0 33 32" fill="none" xmlns="http://www.w3.org/2000/svg">
<g clip-path="url(#clip0_341_529)">
<path d="M19.4381 12.6033V10.8688C20.233 10.5316 21.046 10.2787 21.8771 10.11C22.7082 9.94141 23.5814 9.8571 24.4968 9.8571C25.1231 9.8571 25.7374 9.90528 26.3397 10.0016C26.9419 10.098 27.5321 10.2184 28.1102 10.363V11.9529C27.5321 11.7361 26.9479 11.5735 26.3577 11.4651C25.7675 11.3567 25.1472 11.3025 24.4968 11.3025C23.5814 11.3025 22.7022 11.4169 21.859 11.6457C21.0159 11.8746 20.2089 12.1938 19.4381 12.6033ZM19.4381 20.5527V18.7822C20.233 18.4449 21.046 18.198 21.8771 18.0414C22.7082 17.8849 23.5814 17.8066 24.4968 17.8066C25.1231 17.8066 25.7374 17.8547 26.3397 17.9511C26.9419 18.0475 27.5321 18.1679 28.1102 18.3124V19.9023C27.5321 19.6855 26.9479 19.5229 26.3577 19.4145C25.7675 19.3061 25.1472 19.2519 24.4968 19.2519C23.5814 19.2519 22.7022 19.3603 21.859 19.5771C21.0159 19.7939 20.2089 20.1191 19.4381 20.5527ZM19.4381 16.578V14.8436C20.233 14.5063 21.046 14.2534 21.8771 14.0848C22.7082 13.9161 23.5814 13.8318 24.4968 13.8318C25.1231 13.8318 25.7374 13.88 26.3397 13.9764C26.9419 14.0727 27.5321 14.1932 28.1102 14.3377V15.9276C27.5321 15.7108 26.9479 15.5482 26.3577 15.4398C25.7675 15.3314 25.1472 15.2772 24.4968 15.2772C23.5814 15.2772 22.7022 15.3916 21.859 15.6205C21.0159 15.8493 20.2089 16.1685 19.4381 16.578ZM8.16429 22.504C9.46511 22.504 10.7238 22.6545 11.9403 22.9556C13.1568 23.2568 14.3552 23.7084 15.5356 24.3107V8.88148C14.4516 8.15881 13.2772 7.59873 12.0126 7.20126C10.7479 6.80378 9.46511 6.60505 8.16429 6.60505C7.2489 6.60505 6.35157 6.71947 5.47232 6.94832C4.59306 7.17717 3.70778 7.46022 2.81647 7.79747V23.4796C3.56324 23.1423 4.41239 22.8954 5.36391 22.7388C6.31544 22.5823 7.2489 22.504 8.16429 22.504ZM17.7036 24.3107C18.9081 23.7084 20.0885 23.2568 21.2448 22.9556C22.4011 22.6545 23.6296 22.504 24.9304 22.504C25.8458 22.504 26.7913 22.5762 27.7669 22.7208C28.7426 22.8653 29.5797 23.058 30.2783 23.2989V7.79747C29.4592 7.38795 28.592 7.08683 27.6766 6.89412C26.7612 6.7014 25.8458 6.60505 24.9304 6.60505C23.6296 6.60505 22.3709 6.80378 21.1544 7.20126C19.9379 7.59873 18.7877 8.15881 17.7036 8.88148V24.3107ZM16.6196 27.5627C15.3911 26.6473 14.0541 25.9427 12.6088 25.4489C11.1634 24.9551 9.68192 24.7081 8.16429 24.7081C7.27299 24.7081 6.40578 24.8165 5.56265 25.0333C4.71953 25.2502 3.8764 25.5151 3.03328 25.8283C2.47922 26.0933 1.94324 26.0571 1.42532 25.7199C0.907397 25.3826 0.648438 24.9009 0.648438 24.2745V7.54453C0.648438 7.18319 0.73275 6.85196 0.901375 6.55085C1.07 6.24973 1.32294 6.01486 1.66019 5.84623C2.67194 5.36445 3.72584 5.00913 4.82191 4.78028C5.91797 4.55144 7.0321 4.43701 8.16429 4.43701C9.68192 4.43701 11.1574 4.64177 12.5907 5.05129C14.024 5.46081 15.367 6.08713 16.6196 6.93025C17.8482 6.08713 19.1671 5.46081 20.5763 5.05129C21.9855 4.64177 23.4369 4.43701 24.9304 4.43701C26.0626 4.43701 27.1707 4.55144 28.2548 4.78028C29.3388 5.00913 30.3867 5.36445 31.3984 5.84623C31.7357 6.01486 31.9946 6.24973 32.1753 6.55085C32.356 6.85196 32.4463 7.18319 32.4463 7.54453V24.2745C32.4463 24.949 32.1753 25.4609 31.6333 25.8102C31.0913 26.1595 30.5553 26.1655 30.0253 25.8283C29.2063 25.491 28.3752 25.22 27.5321 25.0153C26.689 24.8105 25.8217 24.7081 24.9304 24.7081C23.4128 24.7081 21.9554 24.9611 20.5582 25.467C19.161 25.9728 17.8482 26.6714 16.6196 27.5627Z" fill="#558FFF"/>
</g>
<defs>
<clipPath id="clip0_341_529">
<rect width="32" height="32" fill="white" transform="translate(0.547363)"/>
</clipPath>
</defs>
</svg>

<svg id="code" viewBox="0 0 33 32" fill="none" xmlns="http://www.w3.org/2000/svg">
<path d="M19.6411 27V24.9375H23.7661C24.2474 24.9375 24.6541 24.7714 24.9864 24.4391C25.3187 24.1068 25.4849 23.7 25.4849 23.2188V19.7812C25.4849 18.9333 25.7427 18.1771 26.2583 17.5125C26.7739 16.8479 27.4328 16.3896 28.2349 16.1375V15.8625C27.4328 15.6333 26.7739 15.1807 26.2583 14.5047C25.7427 13.8286 25.4849 13.0667 25.4849 12.2188V8.78125C25.4849 8.3 25.3187 7.89323 24.9864 7.56094C24.6541 7.22865 24.2474 7.0625 23.7661 7.0625H19.6411V5H23.7661C24.8203 5 25.714 5.36667 26.4474 6.1C27.1807 6.83333 27.5474 7.72708 27.5474 8.78125V12.2188C27.5474 12.7 27.7135 13.1068 28.0458 13.4391C28.3781 13.7714 28.7849 13.9375 29.2661 13.9375H30.2974V18.0625H29.2661C28.7849 18.0625 28.3781 18.2286 28.0458 18.5609C27.7135 18.8932 27.5474 19.3 27.5474 19.7812V23.2188C27.5474 24.2729 27.1807 25.1667 26.4474 25.9C25.714 26.6333 24.8203 27 23.7661 27H19.6411ZM9.32861 27C8.27445 27 7.3807 26.6333 6.64736 25.9C5.91403 25.1667 5.54736 24.2729 5.54736 23.2188V19.7812C5.54736 19.3 5.38122 18.8932 5.04893 18.5609C4.71663 18.2286 4.30986 18.0625 3.82861 18.0625H2.79736V13.9375H3.82861C4.30986 13.9375 4.71663 13.7714 5.04893 13.4391C5.38122 13.1068 5.54736 12.7 5.54736 12.2188V8.78125C5.54736 7.72708 5.91403 6.83333 6.64736 6.1C7.3807 5.36667 8.27445 5 9.32861 5H13.4536V7.0625H9.32861C8.84736 7.0625 8.44059 7.22865 8.1083 7.56094C7.77601 7.89323 7.60986 8.3 7.60986 8.78125V12.2188C7.60986 13.0667 7.35205 13.8286 6.83643 14.5047C6.3208 15.1807 5.66195 15.6333 4.85986 15.8625V16.1375C5.66195 16.3896 6.3208 16.8479 6.83643 17.5125C7.35205 18.1771 7.60986 18.9333 7.60986 19.7812V23.2188C7.60986 23.7 7.77601 24.1068 8.1083 24.4391C8.44059 24.7714 8.84736 24.9375 9.32861 24.9375H13.4536V27H9.32861Z" fill="#558FFF"/>
</svg>

<svg id="consulting" viewBox="0 0 33 32" fill="none" xmlns="http://www.w3.org/2000/svg">
<path d="M15.0059 29.875V27.5625H28.11V15.8458C28.11 14.3556 27.7888 12.9231 27.1465 11.5484C26.5041 10.1738 25.6434 8.95972 24.5642 7.90625C23.485 6.85278 22.2517 6.01128 20.8642 5.38177C19.4767 4.75226 18.0378 4.4375 16.5475 4.4375C15.0572 4.4375 13.6184 4.75226 12.2309 5.38177C10.8434 6.01128 9.61003 6.85278 8.53086 7.90625C7.45169 8.95972 6.59093 10.1738 5.94857 11.5484C5.30621 12.9231 4.98503 14.3556 4.98503 15.8458V25.25H4.21419C3.36628 25.25 2.64041 24.9481 2.03659 24.3443C1.43277 23.7405 1.13086 23.0146 1.13086 22.1667V19.0833C1.13086 18.4924 1.27218 17.972 1.55482 17.5224C1.83746 17.0727 2.21003 16.7066 2.67253 16.424L2.78815 14.3812C3.0194 12.5056 3.55256 10.8097 4.38763 9.29375C5.2227 7.77778 6.26332 6.49306 7.50951 5.43958C8.75569 4.38611 10.156 3.57031 11.7105 2.99219C13.2651 2.41406 14.8774 2.125 16.5475 2.125C18.2434 2.125 19.8685 2.41406 21.423 2.99219C22.9776 3.57031 24.3715 4.39253 25.6048 5.45885C26.8382 6.52517 27.8724 7.8099 28.7074 9.31302C29.5425 10.8161 30.0757 12.4927 30.3069 14.3427L30.4225 16.3469C30.885 16.5781 31.2576 16.9186 31.5402 17.3682C31.8229 17.8179 31.9642 18.3125 31.9642 18.8521V22.3979C31.9642 22.9632 31.8229 23.4642 31.5402 23.901C31.2576 24.3378 30.885 24.6719 30.4225 24.9031V27.5625C30.4225 28.2049 30.1977 28.7509 29.748 29.2005C29.2984 29.6502 28.7524 29.875 28.11 29.875H15.0059ZM11.9225 18.6979C11.6142 18.6979 11.3444 18.5823 11.1132 18.351C10.8819 18.1198 10.7663 17.8372 10.7663 17.5031C10.7663 17.1948 10.8819 16.9314 11.1132 16.713C11.3444 16.4946 11.627 16.3854 11.9611 16.3854C12.2694 16.3854 12.5328 16.4946 12.7512 16.713C12.9696 16.9314 13.0788 17.2076 13.0788 17.5417C13.0788 17.85 12.9696 18.1198 12.7512 18.351C12.5328 18.5823 12.2566 18.6979 11.9225 18.6979ZM21.1725 18.6979C20.8642 18.6979 20.5944 18.5823 20.3632 18.351C20.1319 18.1198 20.0163 17.8372 20.0163 17.5031C20.0163 17.1948 20.1319 16.9314 20.3632 16.713C20.5944 16.4946 20.877 16.3854 21.2111 16.3854C21.5194 16.3854 21.7828 16.4946 22.0012 16.713C22.2196 16.9314 22.3288 17.2076 22.3288 17.5417C22.3288 17.85 22.2196 18.1198 22.0012 18.351C21.7828 18.5823 21.5066 18.6979 21.1725 18.6979ZM7.33607 16.6937C7.23329 15.1778 7.44527 13.8031 7.97201 12.5698C8.49874 11.3365 9.20534 10.2894 10.0918 9.42865C10.9783 8.56788 11.9996 7.90625 13.1559 7.44375C14.3121 6.98125 15.4684 6.75 16.6246 6.75C18.9628 6.75 20.9284 7.48872 22.5215 8.96615C24.1145 10.4436 25.0909 12.2872 25.4507 14.4969C23.0354 14.4712 20.9092 13.8224 19.072 12.5505C17.2349 11.2786 15.8152 9.62778 14.8132 7.59792C14.402 9.67917 13.5349 11.5227 12.2116 13.1286C10.8883 14.7345 9.26315 15.9229 7.33607 16.6937Z" fill="#558FFF"/>
</svg>

<svg id="free-support" viewBox="0 0 32 32" fill="none" xmlns="http://www.w3.org/2000/svg">
<path d="M18.0625 31L17.6875 26.875H16.1875C12.6125 26.875 9.5625 25.6125 7.0375 23.0875C4.5125 20.5625 3.25 17.5125 3.25 13.9375C3.25 10.3625 4.51875 7.3125 7.05625 4.7875C9.59375 2.2625 12.6625 1 16.2625 1C18.0375 1 19.6812 1.31875 21.1937 1.95625C22.7062 2.59375 24.025 3.4875 25.15 4.6375C26.275 5.7875 27.1562 7.14375 27.7937 8.70625C28.4312 10.2687 28.75 11.975 28.75 13.825C28.75 15.475 28.5063 17.125 28.0188 18.775C27.5313 20.425 26.825 22 25.9 23.5C24.975 25 23.85 26.3875 22.525 27.6625C21.2 28.9375 19.7125 30.05 18.0625 31ZM19.9375 26.95C21.9875 25.225 23.5937 23.1938 24.7562 20.8563C25.9187 18.5188 26.5 16.175 26.5 13.825C26.5 10.725 25.5312 8.1875 23.5938 6.2125C21.6563 4.2375 19.2125 3.25 16.2625 3.25C13.2625 3.25 10.7188 4.29375 8.63125 6.38125C6.54375 8.46875 5.5 10.9875 5.5 13.9375C5.5 16.8875 6.54375 19.4063 8.63125 21.4938C10.7188 23.5813 13.2375 24.625 16.1875 24.625H19.9375V26.95ZM16.2625 22.6375C16.6625 22.6375 17 22.5 17.275 22.225C17.55 21.95 17.6875 21.6125 17.6875 21.2125C17.6875 20.8125 17.55 20.475 17.275 20.2C17 19.925 16.6625 19.7875 16.2625 19.7875C15.8625 19.7875 15.525 19.925 15.25 20.2C14.975 20.475 14.8375 20.8125 14.8375 21.2125C14.8375 21.6125 14.975 21.95 15.25 22.225C15.525 22.5 15.8625 22.6375 16.2625 22.6375ZM15.25 17.5375H17.125C17.125 16.9125 17.2312 16.3938 17.4437 15.9813C17.6562 15.5688 18.1 15.025 18.775 14.35C19.45 13.675 19.925 13.0563 20.2 12.4938C20.475 11.9313 20.6125 11.325 20.6125 10.675C20.6125 9.55 20.2312 8.625 19.4688 7.9C18.7063 7.175 17.6875 6.8125 16.4125 6.8125C15.3625 6.8125 14.425 7.0875 13.6 7.6375C12.775 8.1875 12.1625 8.9375 11.7625 9.8875L13.4875 10.6C13.7625 9.95 14.1437 9.46875 14.6312 9.15625C15.1187 8.84375 15.675 8.6875 16.3 8.6875C17.05 8.6875 17.6375 8.86875 18.0625 9.23125C18.4875 9.59375 18.7 10.075 18.7 10.675C18.7 11.15 18.5625 11.6313 18.2875 12.1188C18.0125 12.6063 17.525 13.2125 16.825 13.9375C16.15 14.6375 15.7188 15.2 15.5312 15.625C15.3438 16.05 15.25 16.6875 15.25 17.5375V17.5375Z" fill="#558FFF"/>
</svg>

<svg id="demos" viewBox="0 0 32 32" fill="none" xmlns="http://www.w3.org/2000/svg">
<path d="M12.3625 20.875L22.375 14.5L12.3625 8.125V20.875ZM10.375 29.5V26.5H3.25C2.65 26.5 2.125 26.275 1.675 25.825C1.225 25.375 1 24.85 1 24.25V4.75C1 4.15 1.225 3.625 1.675 3.175C2.125 2.725 2.65 2.5 3.25 2.5H28.75C29.35 2.5 29.875 2.725 30.325 3.175C30.775 3.625 31 4.15 31 4.75V24.25C31 24.85 30.775 25.375 30.325 25.825C29.875 26.275 29.35 26.5 28.75 26.5H21.625V29.5H10.375ZM3.25 24.25H28.75V4.75H3.25V24.25ZM3.25 24.25V4.75V24.25Z" fill="#558FFF"/>
</svg>

<svg id="paid-support" viewBox="0 0 32 32" fill="none" xmlns="http://www.w3.org/2000/svg">
<path d="M14.9125 26.7625H16.975V24.8125C18.5 24.6375 19.6875 24.1687 20.5375 23.4062C21.3875 22.6438 21.8125 21.625 21.8125 20.35C21.8125 19.075 21.45 18.0375 20.725 17.2375C20 16.4375 18.775 15.675 17.05 14.95C15.6 14.35 14.55 13.8125 13.9 13.3375C13.25 12.8625 12.925 12.225 12.925 11.425C12.925 10.65 13.2062 10.0375 13.7687 9.5875C14.3312 9.1375 15.1 8.9125 16.075 8.9125C16.825 8.9125 17.475 9.0875 18.025 9.4375C18.575 9.7875 19.0375 10.3125 19.4125 11.0125L21.2125 10.15C20.7875 9.275 20.225 8.5875 19.525 8.0875C18.825 7.5875 18 7.2875 17.05 7.1875V5.275H14.9875V7.1875C13.7125 7.3625 12.7063 7.83125 11.9688 8.59375C11.2312 9.35625 10.8625 10.3 10.8625 11.425C10.8625 12.65 11.2375 13.625 11.9875 14.35C12.7375 15.075 13.8625 15.75 15.3625 16.375C17.0375 17.075 18.1875 17.7062 18.8125 18.2687C19.4375 18.8312 19.75 19.525 19.75 20.35C19.75 21.15 19.4187 21.7938 18.7562 22.2812C18.0937 22.7687 17.2625 23.0125 16.2625 23.0125C15.2875 23.0125 14.4187 22.7375 13.6562 22.1875C12.8938 21.6375 12.3625 20.8875 12.0625 19.9375L10.15 20.575C10.675 21.725 11.3187 22.6312 12.0812 23.2937C12.8437 23.9562 13.7875 24.4375 14.9125 24.7375V26.7625ZM16 31C13.95 31 12.0125 30.6062 10.1875 29.8187C8.3625 29.0312 6.76875 27.9563 5.40625 26.5938C4.04375 25.2312 2.96875 23.6375 2.18125 21.8125C1.39375 19.9875 1 18.05 1 16C1 13.925 1.39375 11.975 2.18125 10.15C2.96875 8.325 4.04375 6.7375 5.40625 5.3875C6.76875 4.0375 8.3625 2.96875 10.1875 2.18125C12.0125 1.39375 13.95 1 16 1C18.075 1 20.025 1.39375 21.85 2.18125C23.675 2.96875 25.2625 4.0375 26.6125 5.3875C27.9625 6.7375 29.0312 8.325 29.8187 10.15C30.6062 11.975 31 13.925 31 16C31 18.05 30.6062 19.9875 29.8187 21.8125C29.0312 23.6375 27.9625 25.2312 26.6125 26.5938C25.2625 27.9563 23.675 29.0312 21.85 29.8187C20.025 30.6062 18.075 31 16 31ZM16 28.75C19.55 28.75 22.5625 27.5063 25.0375 25.0188C27.5125 22.5313 28.75 19.525 28.75 16C28.75 12.45 27.5125 9.4375 25.0375 6.9625C22.5625 4.4875 19.55 3.25 16 3.25C12.475 3.25 9.46875 4.4875 6.98125 6.9625C4.49375 9.4375 3.25 12.45 3.25 16C3.25 19.525 4.49375 22.5313 6.98125 25.0188C9.46875 27.5063 12.475 28.75 16 28.75Z" fill="#558FFF"/>
</svg>

<!-- product page -->
<svg id="time" viewBox="0 0 21 20"  xmlns="http://www.w3.org/2000/svg">
<path d="M10.4791 18.2917C9.45135 18.2917 8.4826 18.0972 7.57288 17.7083C6.66315 17.3194 5.87149 16.7882 5.19788 16.1146C4.52426 15.441 3.98954 14.6493 3.59371 13.7396C3.19788 12.8299 2.99996 11.8542 2.99996 10.8125C2.99996 9.78472 3.19788 8.81597 3.59371 7.90625C3.98954 6.99653 4.52426 6.20139 5.19788 5.52083C5.87149 4.84028 6.66315 4.30556 7.57288 3.91667C8.4826 3.52778 9.45135 3.33333 10.4791 3.33333C11.5069 3.33333 12.4757 3.52778 13.3854 3.91667C14.2951 4.30556 15.0902 4.84028 15.7708 5.52083C16.4513 6.20139 16.9861 6.99653 17.375 7.90625C17.7638 8.81597 17.9583 9.78472 17.9583 10.8125C17.9583 11.8542 17.7638 12.8299 17.375 13.7396C16.9861 14.6493 16.4513 15.441 15.7708 16.1146C15.0902 16.7882 14.2951 17.3194 13.3854 17.7083C12.4757 18.0972 11.5069 18.2917 10.4791 18.2917ZM13 14.2083L13.875 13.3333L11.1666 10.625V6.66667H9.91663V11.125L13 14.2083ZM4.95829 1.9375L5.83329 2.8125L2.41663 6.10417L1.54163 5.22917L4.95829 1.9375ZM16 1.9375L19.4166 5.22917L18.5416 6.10417L15.125 2.8125L16 1.9375ZM10.4791 17.0417C12.2152 17.0417 13.6875 16.4375 14.8958 15.2292C16.1041 14.0208 16.7083 12.5486 16.7083 10.8125C16.7083 9.07639 16.1041 7.60417 14.8958 6.39583C13.6875 5.1875 12.2152 4.58333 10.4791 4.58333C8.74302 4.58333 7.27079 5.1875 6.06246 6.39583C4.85413 7.60417 4.24996 9.07639 4.24996 10.8125C4.24996 12.5486 4.85413 14.0208 6.06246 15.2292C7.27079 16.4375 8.74302 17.0417 10.4791 17.0417Z" />
</svg>

<svg id="document" viewBox="0 0 20 20" xmlns="http://www.w3.org/2000/svg">
<path d="M6.64587 14.7917H13.3542V13.5417H6.64587V14.7917ZM6.64587 11.25H13.3542V10H6.64587V11.25ZM4.58337 18.3333C4.25004 18.3333 3.95837 18.2083 3.70837 17.9583C3.45837 17.7083 3.33337 17.4167 3.33337 17.0833V2.91667C3.33337 2.58334 3.45837 2.29167 3.70837 2.04167C3.95837 1.79167 4.25004 1.66667 4.58337 1.66667H12.1042L16.6667 6.22917V17.0833C16.6667 17.4167 16.5417 17.7083 16.2917 17.9583C16.0417 18.2083 15.75 18.3333 15.4167 18.3333H4.58337ZM11.4792 6.79167V2.91667H4.58337V17.0833H15.4167V6.79167H11.4792ZM4.58337 2.91667V6.79167V2.91667V17.0833V2.91667Z" />
</svg>


<svg id="code-example" viewBox="0 0 37 37" fill="none"  xmlns="http://www.w3.org/2000/svg">
<path d="M12.3334 27.6729L3.08337 18.4229L12.4105 9.09584L14.0677 10.7531L6.39796 18.4229L13.9907 26.0156L12.3334 27.6729ZM24.5896 27.75L22.9323 26.0927L30.6021 18.4229L23.0094 10.8302L24.6667 9.17292L33.9167 18.4229L24.5896 27.75Z" fill="#558FFF" />
</svg>

<svg id="git" viewBox="0 0 33 33"  xmlns="http://www.w3.org/2000/svg">
<path d="M16.1433 6.30762C13.6703 6.30772 11.278 7.18778 9.3945 8.79034C7.51099 10.3929 6.25918 12.6134 5.86303 15.0544C5.46689 17.4955 5.95227 19.9979 7.23233 22.1138C8.51239 24.2298 10.5036 25.8212 12.8497 26.6034C13.3704 26.6945 13.5657 26.3821 13.5657 26.1087C13.5657 25.8613 13.5526 25.0411 13.5526 24.1689C10.9359 24.6506 10.259 23.531 10.0507 22.9452C9.81954 22.3754 9.45315 21.8705 8.98315 21.4741C8.61864 21.2788 8.0979 20.7971 8.97012 20.7841C9.30318 20.8203 9.62261 20.9362 9.90135 21.122C10.1801 21.3078 10.4099 21.5581 10.5714 21.8516C10.7138 22.1075 10.9054 22.3328 11.135 22.5145C11.3647 22.6963 11.628 22.8309 11.9097 22.9107C12.1915 22.9905 12.4863 23.014 12.7771 22.9797C13.068 22.9454 13.3492 22.854 13.6047 22.7108C13.6498 22.1814 13.8857 21.6863 14.2686 21.3179C11.9514 21.0575 9.52993 20.1592 9.52993 16.1756C9.51529 15.1406 9.89724 14.1391 10.5974 13.3767C10.279 12.4771 10.3163 11.4898 10.7016 10.6168C10.7016 10.6168 11.5738 10.3434 13.5656 11.6843C15.2698 11.2156 17.0689 11.2156 18.773 11.6843C20.7648 10.3303 21.6371 10.6168 21.6371 10.6168C22.0224 11.4898 22.0597 12.4771 21.7412 13.3767C22.4435 14.1378 22.8258 15.1401 22.8087 16.1756C22.8087 20.1723 20.3743 21.0575 18.057 21.3179C18.3056 21.5698 18.497 21.8723 18.6183 22.2047C18.7396 22.5372 18.7879 22.8918 18.76 23.2446C18.76 24.6376 18.747 25.7572 18.747 26.1087C18.747 26.3821 18.9422 26.7075 19.463 26.6034C21.8049 25.8149 23.7904 24.2197 25.065 22.1027C26.3396 19.9857 26.8204 17.4846 26.4215 15.0458C26.0226 12.6071 24.77 10.3895 22.8873 8.78894C21.0047 7.18834 18.6144 6.3089 16.1433 6.30762V6.30762Z" />
</svg>

<svg id="git-big" viewBox="0 0 33 33" xmlns="http://www.w3.org/2000/svg">
<path d="M16.5003 1.41797C12.8283 1.41812 9.27617 2.72486 6.47949 5.10438C3.6828 7.48391 1.82408 10.781 1.23587 14.4054C0.647666 18.0301 1.36837 21.7457 3.26904 24.8874C5.16971 28.0293 8.12632 30.3923 11.6099 31.5537C12.383 31.689 12.673 31.2251 12.673 30.8192C12.673 30.4518 12.6536 29.234 12.6536 27.9389C8.76821 28.6541 7.76313 26.9917 7.45384 26.1219C7.11061 25.2759 6.56658 24.5262 5.86871 23.9376C5.32747 23.6476 4.55427 22.9324 5.84936 22.9131C6.3439 22.9668 6.8182 23.1389 7.23208 23.4148C7.64598 23.6907 7.98719 24.0623 8.22699 24.4981C8.43843 24.8781 8.72292 25.2126 9.06384 25.4824C9.4049 25.7523 9.79586 25.9522 10.2141 26.0707C10.6326 26.1892 11.0703 26.2241 11.5021 26.1732C11.934 26.1222 12.3515 25.9865 12.7309 25.7739C12.7979 24.9878 13.1482 24.2527 13.7167 23.7057C10.2761 23.319 6.68059 21.9852 6.68059 16.0702C6.65885 14.5334 7.22598 13.0464 8.26559 11.9143C7.79283 10.5786 7.84821 9.11262 8.42031 7.81636C8.42031 7.81636 9.71538 7.41041 12.6729 9.40142C15.2033 8.70548 17.8747 8.70548 20.405 9.40142C23.3624 7.39096 24.6577 7.81636 24.6577 7.81636C25.2298 9.11262 25.2851 10.5786 24.8122 11.9143C25.855 13.0444 26.4227 14.5327 26.3973 16.0702C26.3973 22.0046 22.7826 23.319 19.3418 23.7057C19.711 24.0797 19.9951 24.5289 20.1753 25.0224C20.3554 25.5161 20.4271 26.0426 20.3857 26.5665C20.3857 28.6349 20.3664 30.2973 20.3664 30.8192C20.3664 31.2251 20.6562 31.7083 21.4295 31.5537C24.9068 30.3829 27.8549 28.0143 29.7475 24.871C31.6401 21.7276 32.354 18.0139 31.7617 14.3927C31.1694 10.7716 29.3095 7.47886 26.514 5.1023C23.7187 2.72569 20.1695 1.41987 16.5003 1.41797Z" />
</svg>


<svg id="docker" viewBox="0 0 32 33" xmlns="http://www.w3.org/2000/svg">
<path d="M30.3707 13.8071C30.3707 13.8071 29.0948 12.6021 26.4721 13.0274C26.1886 10.9718 23.9913 9.76685 23.9913 9.76685C23.9913 9.76685 21.9357 12.2477 23.4242 15.0121C22.9989 15.2248 22.2901 15.5083 21.2268 15.5083H1.73417C1.37976 16.8551 1.37976 25.7863 11.1615 25.7863C18.1789 25.7863 23.4242 22.5257 25.9051 16.5716C29.591 16.8551 30.3707 13.8071 30.3707 13.8071Z" />
<rect x="3.87012" y="12.488" width="2.94043" height="2.40576" />
<rect x="7.45166" y="12.488" width="2.94043" height="2.40576" />
<rect x="11.0332" y="12.488" width="2.94043" height="2.40576" />
<rect x="14.6147" y="12.488" width="2.94043" height="2.40576" />
<rect x="18.1963" y="12.488" width="2.94043" height="2.40576"/>
<rect x="7.45166" y="9.20215" width="2.94043" height="2.40576" />
<rect x="11.0332" y="9.20215" width="2.94043" height="2.40576" />
<rect x="14.6147" y="9.20215" width="2.94043" height="2.40576" />
<rect x="14.6147" y="5.9165" width="2.94043" height="2.40576" />
</svg>


<svg id="app" viewBox="0 0 33 33"  xmlns="http://www.w3.org/2000/svg">
<path d="M4.81006 27.1319C4.27673 27.1319 3.81006 26.9319 3.41006 26.5319C3.01006 26.1319 2.81006 25.6653 2.81006 25.1319V7.79858C2.81006 7.26525 3.01006 6.79858 3.41006 6.39858C3.81006 5.99858 4.27673 5.79858 4.81006 5.79858H27.4767C28.0101 5.79858 28.4767 5.99858 28.8767 6.39858C29.2767 6.79858 29.4767 7.26525 29.4767 7.79858V25.1319C29.4767 25.6653 29.2767 26.1319 28.8767 26.5319C28.4767 26.9319 28.0101 27.1319 27.4767 27.1319H4.81006ZM4.81006 25.1319H27.4767V10.5986H4.81006V25.1319Z" />
</svg>


<svg id="nuget" viewBox="0 0 512 512" version="1.1" xmlns="http://www.w3.org/2000/svg" xmlns:xlink="http://www.w3.org/1999/xlink">
    <defs>
        <polygon id="path-1" points="0 46.021103 0 3.7002935 84.6521577 3.7002935 84.6521577 88.3419125 0 88.3419125"></polygon>
    </defs>
    <g id="Symbols" stroke="none" stroke-width="1" fill="none" fill-rule="evenodd">
        <g id="nuget">
            <g id="Global/Logo" transform="translate(0.000000, 6.000000)">
                <path d="M374.424959,454.856991 C327.675805,454.856991 289.772801,416.950177 289.772801,370.196324 C289.772801,323.463635 327.675805,285.535656 374.424959,285.535656 C421.174113,285.535656 459.077116,323.463635 459.077116,370.196324 C459.077116,416.950177 421.174113,454.856991 374.424959,454.856991 M205.565067,260.814741 C176.33891,260.814741 152.657469,237.109754 152.657469,207.901824 C152.657469,178.672728 176.33891,154.988907 205.565067,154.988907 C234.791225,154.988907 258.472666,178.672728 258.472666,207.901824 C258.472666,237.109754 234.791225,260.814741 205.565067,260.814741 M378.170817,95.6417786 L236.886365,95.6417786 C164.889705,95.6417786 106.479717,154.057639 106.479717,226.082702 L106.479717,367.360191 C106.479717,439.40642 164.889705,497.77995 236.886365,497.77995 L378.170817,497.77995 C450.209803,497.77995 508.577466,439.40642 508.577466,367.360191 L508.577466,226.082702 C508.577466,154.057639 450.209803,95.6417786 378.170817,95.6417786" id="Fill-12" fill="#004880" fill-rule="evenodd"></path>
                <mask id="mask-2" >
                    <use xlink:href="#path-1"></use>
                </mask>
                <g id="Clip-15"></g>
                <path d="M84.6521577,46.0115787 C84.6521577,69.3990881 65.6900744,88.3419125 42.3260788,88.3419125 C18.9409203,88.3419125 0,69.3990881 0,46.0115787 C0,22.6452344 18.9409203,3.68124485 42.3260788,3.68124485 C65.6900744,3.68124485 84.6521577,22.6452344 84.6521577,46.0115787" id="Fill-14" fill="#004880" fill-rule="evenodd" mask="url(#mask-2)"></path>
            </g>
        </g>
    </g>
</svg>

</svg>