<svg xmlns="http://www.w3.org/2000/svg" version="1.1" xmlns:xlink="http://www.w3.org/1999/xlink" width="70" height="70"><svg xml:space="preserve" width="70" height="70" version="1.1" id="SvgjsSvg1007" sodipodi:docname="icon-only.svg" inkscape:export-filename="favicon.png" inkscape:export-xdpi="104.50249" inkscape:export-ydpi="104.50249" inkscape:version="1.4.2 (f4327f4, 2025-05-13)" xmlns:inkscape="http://www.inkscape.org/namespaces/inkscape" xmlns:sodipodi="http://sodipodi.sourceforge.net/DTD/sodipodi-0.dtd" xmlns="http://www.w3.org/2000/svg" xmlns:svg="http://www.w3.org/2000/svg"><sodipodi:namedview id="SvgjsSodipodi:namedview1006" pagecolor="#ffffff" bordercolor="#000000" borderopacity="0.25" inkscape:showpageshadow="2" inkscape:pageopacity="0.0" inkscape:pagecheckerboard="0" inkscape:deskcolor="#d1d1d1" inkscape:zoom="8.8264689" inkscape:cx="39.483513" inkscape:cy="25.321564" inkscape:window-width="2560" inkscape:window-height="1494" inkscape:window-x="-11" inkscape:window-y="-11" inkscape:window-maximized="1" inkscape:current-layer="svg2"></sodipodi:namedview><defs id="SvgjsDefs1005"></defs>
  <path id="SvgjsPath1004" d="m 35.401072,7.4408488 c -6.497362,0 -11.952251,5.4539492 -11.952251,12.1919542 -0.08913,6.684204 5.285959,12.155809 11.961651,12.193521 6.609384,-0.136805 11.870952,-5.582121 11.781481,-12.193521 0,-6.738005 -5.29352,-12.1919542 -11.790881,-12.1919542 z M 19.116933,8.1630915 C 13.324893,8.2939989 8.7505968,13.121397 8.9303378,18.912127 c -0.08916,5.784192 4.5469132,10.533743 10.3291642,10.587667 1.579704,-0.0081 3.002936,-0.328446 4.349121,-0.961945 C 19.051417,22.968382 19.540633,14.830998 24.731936,9.847279 23.12765,8.8044926 21.202505,8.1630915 19.116933,8.1630915 Z m 32.085737,0.079902 c -1.931692,0.019203 -3.819141,0.5746106 -5.453635,1.6042869 5.153976,5.0009106 5.639836,13.1085066 1.121748,18.6905686 1.28343,0.641715 2.807815,0.961946 4.331887,0.961946 5.615005,0 10.268064,-4.812234 10.268064,-10.587667 C 61.605058,13.121614 56.994079,8.3305429 51.20267,8.2429935 Z M 9.6525798,30.222037 c -3.2085729,0 -4.6530576,2.646133 -4.6530576,5.854707 v 12.433223 c 0,2.727288 4.8131736,5.134659 10.7490348,6.578517 V 38.403273 c 0,-2.911219 2.160055,-5.281675 4.967963,-5.749738 -1.625208,0.25238 -4.281208,0.777076 -5.289133,0.777076 -3.850289,0 -5.7748072,-3.208574 -5.7748072,-3.208574 z m 50.6948392,0.0799 c 0,0 -2.005985,3.128672 -5.856273,3.128672 -1.123001,0 -3.849349,-0.641714 -5.453635,-0.802143 2.887715,0.401071 5.052563,2.806875 5.052563,5.774805 v 16.60531 c 5.935861,-1.363644 10.910404,-3.771327 10.910404,-6.498615 V 36.076744 c 0,-3.208573 -1.444485,-5.774805 -4.653059,-5.774805 z m -36.016554,4.251986 c -3.208574,0 -5.774806,2.566232 -5.774806,5.774807 v 17.086281 c 0,6.738005 32.887882,6.978648 32.887882,0 v -17.08628 c 0,-3.208574 -2.647701,-5.774807 -5.856275,-5.774807 0,0 -3.127732,3.127107 -6.978021,3.127107 -1.203215,0 -2.166414,-2.005358 -3.449844,-2.005358 -2.005358,0 -2.485704,2.005358 -4.25042,2.005358 -2.727288,0 -6.578516,-3.127107 -6.578516,-3.127106 z m 12.974333,7.942986 c 0.373188,0 0.720556,0.05925 1.03088,0.209937 0.318953,0.152541 0.651742,0.494558 0.651742,0.914944 0,0.121645 -0.02402,0.253794 -0.07834,0.376004 l -4.634258,11.259776 -0.0016,0.0031 c -0.08924,0.213182 -0.26605,0.407665 -0.471573,0.51544 -0.205524,0.107776 -0.422259,0.141002 -0.636075,0.141002 -0.374932,0 -0.725818,-0.06029 -1.038713,-0.209936 l -0.0047,-0.0016 c -0.31531,-0.154153 -0.639208,-0.498698 -0.639208,-0.913379 0,-0.121644 0.02402,-0.253793 0.07834,-0.376005 l 4.634259,-11.259776 v -0.0031 c 0.08924,-0.213181 0.267616,-0.407665 0.473139,-0.515439 0.205522,-0.107778 0.422258,-0.141002 0.636074,-0.141002 z m -8.082535,2.160461 c 0.267491,0 0.515424,0.134718 0.675242,0.294537 0.163629,0.163629 0.268282,0.345426 0.380705,0.570274 0.141465,0.28293 0.242837,0.531477 0.242837,0.838177 0,0.363333 -0.266919,0.728468 -0.560874,0.883612 l -0.01254,0.0062 -3.031538,1.513419 3.031538,1.514986 0.01254,0.0062 c 0.293955,0.155144 0.560874,0.520278 0.560874,0.883611 0,0.306699 -0.101372,0.555248 -0.242837,0.838178 -0.112423,0.224847 -0.217076,0.406644 -0.380705,0.570273 -0.159818,0.15982 -0.407751,0.294537 -0.675242,0.294537 -0.20961,2e-6 -0.352356,-0.06103 -0.490373,-0.130035 l -0.0062,-0.0031 -5.434836,-2.801235 -0.0031,-0.0016 C 23.094639,49.834777 22.91137,49.679472 22.796215,49.470099 l -0.01097,-0.02036 c -0.117594,-0.23518 -0.130035,-0.446869 -0.130035,-0.684642 1e-6,-0.237772 0.01244,-0.451028 0.130035,-0.686209 l 0.01097,-0.02036 c 0.115155,-0.20938 0.29842,-0.364677 0.491939,-0.465305 l 0.0031,-0.0016 5.434836,-2.801234 0.0062,-0.0031 c 0.138018,-0.06901 0.280763,-0.130036 0.490373,-0.130036 z m 12.025885,0 c 0.209611,0 0.352356,0.06103 0.490373,0.130035 l 0.0062,0.0031 5.434834,2.801234 0.0016,0.0016 c 0.193203,0.100466 0.377483,0.261913 0.488807,0.47784 0.125632,0.235158 0.145702,0.455878 0.145702,0.694042 0,0.238155 -0.02008,0.457329 -0.145702,0.692476 -0.111324,0.215921 -0.295606,0.377374 -0.488807,0.477838 l -0.0016,0.0016 -5.434834,2.801236 -0.0062,0.0031 c -0.138017,0.06901 -0.280762,0.130035 -0.490373,0.130035 -0.26749,0 -0.515422,-0.134717 -0.675242,-0.294537 -0.163629,-0.163629 -0.269848,-0.345425 -0.38227,-0.570273 -0.141467,-0.282932 -0.241271,-0.531479 -0.241271,-0.838177 0,-0.363333 0.266918,-0.728468 0.560874,-0.883612 l 0.01097,-0.0062 3.033105,-1.514986 -3.033105,-1.51342 -0.01097,-0.0062 c -0.293956,-0.155144 -0.560874,-0.520279 -0.560874,-0.883612 0,-0.3067 0.0998,-0.555247 0.241271,-0.838177 0.112422,-0.224848 0.218641,-0.406645 0.38227,-0.570274 0.15982,-0.159819 0.407752,-0.294537 0.675242,-0.294537 z" style="fill:#2689c9;fill-opacity:1;stroke-width:0.802144"></path>
  
</svg><style>@media (prefers-color-scheme: light) { :root { filter: none; } }
@media (prefers-color-scheme: dark) { :root { filter: none; } }
</style></svg>