<svg width="156" height="22" viewBox="0 0 156 22" fill="none" xmlns="http://www.w3.org/2000/svg">
<path fill-rule="evenodd" clip-rule="evenodd" d="M12.2329 9.92005C13.4838 9.89639 14.674 9.40361 15.5438 8.54927C16.4136 7.69494 16.8922 6.54844 16.8753 5.36005C16.8753 2.84005 14.791 0.800049 12.2329 0.800049C9.67483 0.800049 7.52731 2.84005 7.52731 5.36005C7.51895 5.95603 7.6353 6.54765 7.86962 7.10056C8.10393 7.65347 8.45154 8.15665 8.89226 8.58089C9.33299 9.00513 9.85804 9.34197 10.4369 9.57186C11.0158 9.80175 11.637 9.9201 12.2645 9.92005H12.2329ZM16.749 8.69005C17.2543 8.93005 17.8543 9.05005 18.4544 9.05005C20.665 9.05005 22.4967 7.25005 22.4967 5.09005C22.5093 4.57538 22.4145 4.06344 22.2177 3.58376C22.021 3.10408 21.7262 2.66614 21.3504 2.29521C20.9746 1.92428 20.5252 1.6277 20.0282 1.42257C19.5311 1.21745 18.9962 1.10783 18.4544 1.10005C17.6938 1.10723 16.9504 1.31495 16.3068 1.70005C17.2858 2.60242 17.8741 3.82005 17.9559 5.11354C18.0377 6.40703 17.6072 7.68281 16.749 8.69005ZM5.85352 9.05005C6.48514 9.05005 7.0536 8.93005 7.59048 8.69005C6.72529 7.68562 6.29032 6.40838 6.37227 5.1129C6.45421 3.81742 7.04705 2.59884 8.03261 1.70005C7.40099 1.31005 6.64304 1.07005 5.82194 1.07005C5.28002 1.08168 4.74588 1.19515 4.25036 1.40389C3.75484 1.61263 3.30774 1.91253 2.93486 2.28626C2.56198 2.66 2.2707 3.10018 2.07784 3.58141C1.88497 4.06263 1.79433 4.57537 1.81114 5.09005C1.80279 5.60472 1.90177 6.11586 2.10238 6.59402C2.30298 7.07217 2.60124 7.50787 2.97996 7.876C3.35869 8.24413 3.81037 8.5374 4.30898 8.7389C4.80759 8.9404 5.34326 9.04615 5.8851 9.05005H5.85352ZM4.36921 10.52C2.85332 10.52 2.09537 9.32005 2.09537 9.32005C0.832131 9.32005 0.263672 10.31 0.263672 11.51V16.16C0.263672 17.18 2.15853 18.08 4.49553 18.62V12.38C4.49553 11.27 5.3798 10.37 6.51672 10.22C5.8851 10.31 4.77976 10.52 4.36921 10.52V10.52ZM16.2437 10.94C16.2437 10.94 15.012 12.11 13.4961 12.11C13.0224 12.11 12.6434 11.36 12.1381 11.36C11.3486 11.36 11.1591 12.11 10.4644 12.11C9.3906 12.11 7.87471 10.94 7.87471 10.94C6.61146 10.94 5.60087 11.9 5.60087 13.1V19.4901C5.60087 22.0101 18.5491 22.1001 18.5491 19.4901V13.1C18.5491 11.9 17.5069 10.94 16.2437 10.94V10.94ZM15.5805 18.32C14.1278 18.59 10.0538 18.62 8.56949 18.32C8.03261 18.23 7.7168 18.11 7.7168 17.72C7.7168 17.39 7.96945 17.15 8.56949 17.3C10.8977 17.5719 13.2522 17.5719 15.5805 17.3C16.4648 17.21 16.5279 17.39 16.5595 17.75C16.5911 18.14 16.1805 18.2 15.5805 18.32ZM15.5805 16.43C14.1278 16.73 10.0538 16.73 8.56949 16.43C8.03261 16.34 7.7168 16.22 7.7168 15.86C7.7168 15.5 7.96945 15.26 8.56949 15.41C9.70641 15.71 13.433 15.71 15.5805 15.41C16.4648 15.32 16.5279 15.5 16.5595 15.86C16.5911 16.25 16.1805 16.34 15.5805 16.46V16.43ZM22.0546 9.35005C22.0546 9.35005 21.2651 10.52 19.7492 10.52C19.307 10.52 18.2333 10.28 17.6017 10.22C18.7386 10.37 19.5913 11.27 19.5913 12.38V18.5901C21.9283 18.0801 23.8863 17.18 23.8863 16.16V11.51C23.8863 10.31 23.3178 9.35005 22.0546 9.35005Z" fill="#2689C9"/>
<path d="M40.3708 12.3799H42.7709V16.9999C41.4445 18.4099 39.5497 19.0999 37.0863 19.0999C34.9704 19.0999 33.2334 18.4399 31.8123 17.1499C31.1216 16.5079 30.5795 15.7361 30.2206 14.8837C29.8617 14.0314 29.6939 13.1173 29.728 12.1999C29.728 10.1899 30.4227 8.53992 31.8755 7.21992C33.2966 5.86992 35.0336 5.20992 37.0548 5.20992C39.1075 5.20992 40.7813 5.77992 42.1077 6.91992L40.8445 8.62992C40.3575 8.21396 39.7887 7.89375 39.1707 7.68779C38.5528 7.48182 37.898 7.39418 37.2442 7.42992C35.8231 7.42992 34.623 7.87992 33.644 8.74992C32.6966 9.64992 32.1913 10.7899 32.1913 12.1999C32.1608 12.816 32.264 13.4314 32.4944 14.0079C32.7248 14.5845 33.0775 15.1099 33.5306 15.5516C33.9837 15.9933 34.5275 16.3417 35.1283 16.5754C35.7292 16.8091 36.3741 16.9229 37.0232 16.9099C38.3812 16.9099 39.4865 16.6399 40.4023 16.0999V12.3799H40.3708ZM56.1613 9.85992C56.1613 12.0799 55.1191 13.4599 53.0979 14.0599L56.7929 18.8899H53.7611L50.382 14.3899H47.2554V18.8899H44.8869V5.50992H50.1293C52.2768 5.50992 53.8243 5.86992 54.7401 6.55992C55.6876 7.24992 56.1297 8.35992 56.1297 9.85992H56.1613ZM53.0032 11.7499C53.4769 11.3599 53.698 10.7299 53.698 9.85992C53.698 8.95992 53.4453 8.35992 52.9716 8.05992C52.4663 7.72992 51.582 7.54992 50.2872 7.54992H47.2554V12.3499H50.2241C51.582 12.3499 52.4979 12.1699 52.9716 11.7499H53.0032ZM70.3728 17.0599C69.6747 17.7128 68.8448 18.2247 67.933 18.565C67.0212 18.9053 66.0464 19.0668 65.0671 19.0399C64.1001 19.0599 63.1385 18.8962 62.239 18.5584C61.3394 18.2206 60.5199 17.7155 59.8286 17.0728C59.1373 16.43 58.5881 15.6626 58.2132 14.8156C57.8384 13.9685 57.6454 13.0588 57.6456 12.1399C57.6454 11.221 57.8384 10.3114 58.2132 9.4643C58.5881 8.61722 59.1373 7.8498 59.8286 7.20708C60.5199 6.56435 61.3394 6.05927 62.239 5.72147C63.1385 5.38366 64.1001 5.21995 65.0671 5.23992C66.0368 5.21588 67.0018 5.3766 67.9051 5.71258C68.8083 6.04855 69.6316 6.55299 70.3263 7.19613C71.0209 7.83926 71.573 8.60806 71.9498 9.45716C72.3266 10.3063 72.5206 11.2185 72.5203 12.1399C72.5203 14.0899 71.7939 15.7399 70.3728 17.0599V17.0599ZM68.6358 8.65992C68.1787 8.19981 67.6247 7.83642 67.0097 7.59346C66.3948 7.35051 65.7329 7.23345 65.0671 7.24992C64.4023 7.25378 63.745 7.38301 63.1331 7.63011C62.5213 7.8772 61.9673 8.23725 61.5031 8.68936C61.0389 9.14146 60.6738 9.67663 60.4291 10.2638C60.1844 10.851 60.0648 11.4785 60.0773 12.1099C60.0605 12.7464 60.1779 13.3796 60.4227 13.9722C60.6675 14.5648 61.0347 15.1049 61.5027 15.5607C61.9706 16.0164 62.5299 16.3785 63.1475 16.6257C63.7651 16.8729 64.4285 17.0001 65.0987 16.9999C65.7636 16.9922 66.4202 16.8591 67.0305 16.6084C67.6407 16.3576 68.1925 15.9943 68.6538 15.5394C69.115 15.0844 69.4766 14.547 69.7175 13.9583C69.9583 13.3696 70.0737 12.7413 70.057 12.1099C70.057 10.7599 69.5832 9.61992 68.6358 8.68992V8.65992ZM77.668 15.8299C78.2996 16.5499 79.1839 16.9099 80.2892 16.9099C81.3946 16.9099 82.2788 16.5499 82.9104 15.8299C83.5421 15.1099 83.8579 14.1499 83.8579 12.9199V5.50992H86.258V13.0099C86.258 14.9599 85.6896 16.4299 84.5842 17.5099C83.4789 18.5299 82.0578 19.0399 80.2892 19.0399C78.5523 19.0399 77.1311 18.5299 75.9942 17.4799C75.414 16.8856 74.9665 16.1858 74.6788 15.4227C74.3911 14.6596 74.2692 13.849 74.3204 13.0399V5.53992H76.689V12.9199C76.689 14.1499 77.0048 15.1399 77.668 15.8299V15.8299ZM98.4799 6.67992C99.4905 7.45992 99.9642 8.65992 99.9642 10.2799C99.9642 11.8999 99.4905 13.0999 98.4799 13.8499C97.4693 14.5999 95.9534 14.9899 93.8691 14.9899H91.3426V18.8899H89.0056V5.53992H93.8691C95.985 5.53992 97.5641 5.92992 98.5431 6.73992L98.4799 6.67992ZM96.8693 12.1999C97.343 11.7199 97.5641 11.0299 97.5641 10.0999C97.5641 9.19992 97.2482 8.50992 96.6482 8.14992C96.0482 7.75992 95.1007 7.54992 93.8059 7.54992H91.4057V12.9499H94.1533C95.4797 12.9499 96.364 12.6799 96.8693 12.1999ZM112.439 7.27992C113.797 8.44992 114.492 10.0699 114.492 12.1399C114.492 14.2399 113.828 15.8899 112.502 17.0899C111.175 18.2899 109.186 18.8899 106.47 18.8899H101.764V5.53992H106.628C109.154 5.53992 111.081 6.13992 112.439 7.30992V7.27992ZM112.091 12.1999C112.091 9.13992 110.228 7.60992 106.533 7.60992H104.164V16.7899H106.786C108.491 16.7899 109.818 16.3999 110.733 15.6199C111.618 14.8399 112.091 13.6999 112.091 12.1999V12.1999ZM128.356 17.0599C127.657 17.7128 126.828 18.2247 125.916 18.565C125.004 18.9053 124.029 19.0668 123.05 19.0399C122.083 19.0599 121.121 18.8962 120.222 18.5584C119.322 18.2206 118.503 17.7155 117.811 17.0728C117.12 16.43 116.571 15.6626 116.196 14.8156C115.821 13.9685 115.628 13.0588 115.628 12.1399C115.628 11.221 115.821 10.3114 116.196 9.4643C116.571 8.61722 117.12 7.8498 117.811 7.20708C118.503 6.56435 119.322 6.05927 120.222 5.72147C121.121 5.38366 122.083 5.21995 123.05 5.23992C124.017 5.21995 124.979 5.38366 125.878 5.72147C126.778 6.05927 127.597 6.56435 128.289 7.20708C128.98 7.8498 129.529 8.61722 129.904 9.4643C130.279 10.3114 130.472 11.221 130.472 12.1399C130.497 13.0545 130.322 13.9642 129.958 14.8112C129.594 15.6582 129.048 16.4239 128.356 17.0599ZM126.587 8.65992C126.134 8.20361 125.585 7.84244 124.975 7.59962C124.366 7.35679 123.71 7.23768 123.05 7.24992C122.385 7.25378 121.728 7.38301 121.116 7.63011C120.504 7.8772 119.95 8.23725 119.486 8.68936C119.022 9.14146 118.657 9.67663 118.412 10.2638C118.167 10.851 118.048 11.4785 118.06 12.1099C118.043 12.7438 118.16 13.3746 118.403 13.9652C118.645 14.5559 119.01 15.0947 119.474 15.55C119.939 16.0053 120.495 16.368 121.108 16.617C121.722 16.866 122.382 16.9961 123.05 16.9999C123.715 16.9961 124.372 16.8668 124.984 16.6197C125.596 16.3726 126.15 16.0126 126.614 15.5605C127.078 15.1084 127.443 14.5732 127.688 13.986C127.933 13.3988 128.052 12.7713 128.04 12.1399C128.04 10.7899 127.566 9.64992 126.587 8.71992V8.65992ZM138.904 16.8499C139.725 16.8499 140.451 16.7299 141.02 16.4599C141.718 16.1388 142.358 15.7134 142.914 15.1999L144.43 16.6999C143.76 17.4531 142.922 18.0562 141.978 18.4659C141.033 18.8757 140.005 19.0819 138.967 19.0699C137.99 19.1007 137.016 18.9439 136.105 18.6089C135.193 18.2738 134.362 17.7674 133.661 17.1199C132.97 16.4779 132.428 15.7061 132.069 14.8537C131.711 14.0014 131.543 13.0873 131.577 12.1699C131.572 11.2329 131.766 10.3045 132.148 9.44053C132.53 8.57656 133.092 7.79477 133.8 7.14203C134.508 6.48929 135.347 5.97904 136.267 5.64189C137.188 5.30473 138.17 5.1476 139.156 5.17992C141.367 5.17992 143.167 5.95992 144.62 7.48992L143.104 9.04992C142.555 8.52773 141.914 8.10125 141.209 7.78992C140.539 7.52539 139.819 7.39271 139.093 7.39992C137.672 7.39992 136.472 7.84992 135.493 8.71992C134.545 9.61992 134.04 10.7299 134.04 12.0799C134.04 13.4299 134.545 14.5699 135.493 15.4999C136.44 16.3999 137.609 16.8499 138.904 16.8499V16.8499ZM150.494 7.27992C149.799 7.27992 149.231 7.39992 148.789 7.66992C148.576 7.79665 148.403 7.97439 148.287 8.18513C148.17 8.39587 148.115 8.63212 148.125 8.86992C148.125 9.43992 148.346 9.85992 148.757 10.1299C149.231 10.4299 150.178 10.7299 151.599 11.0599C153.052 11.3899 154.126 11.8699 154.884 12.4699C155.61 13.0699 155.989 13.9699 155.989 15.1099C155.989 16.2499 155.515 17.2399 154.599 17.9599C153.684 18.6799 152.452 19.0999 150.904 19.0999C148.694 19.0999 146.736 18.3799 145.03 16.9399L146.515 15.2299C147.936 16.3999 149.42 16.9699 150.936 16.9699C151.726 16.9699 152.326 16.8199 152.799 16.5199C153.241 16.2199 153.463 15.7999 153.463 15.2599C153.463 14.7199 153.241 14.3599 152.831 14.0599C152.42 13.7599 151.662 13.5199 150.62 13.2799C149.61 13.0399 148.82 12.8299 148.283 12.6199C147.746 12.4099 147.273 12.1699 146.862 11.8399C146.009 11.2399 145.599 10.3399 145.599 9.07992C145.599 7.84992 146.073 6.88992 147.02 6.22992C147.967 5.56992 149.136 5.20992 150.525 5.20992C151.441 5.20992 152.326 5.35992 153.21 5.62992C154.126 5.92992 154.884 6.31992 155.515 6.82992L154.252 8.53992C153.754 8.1329 153.174 7.82666 152.547 7.63992C151.852 7.42992 151.157 7.30992 150.462 7.30992L150.494 7.27992Z" fill="black"/>
</svg>
